<svg width="1728" height="2548" viewBox="0 0 1728 2548" fill="none" xmlns="http://www.w3.org/2000/svg">
<g clip-path="url(#clip0_236_107)">
<rect width="1728" height="2548" fill="white"/>
<path d="M1393.95 879.905L1294.41 1013.48L1309.66 1025.3L1393.95 879.905Z" fill="#0F2DB9" stroke="#0F2DB9" stroke-width="9.28042"/>
<path d="M1289.11 708.387L1122.97 696.324L1121.2 715.535L1289.11 708.387Z" fill="#0F2DB9" stroke="#0F2DB9" stroke-width="9.28042"/>
<path d="M1388.53 538.565L1313.59 389.794L1296.19 398.143L1388.53 538.565Z" fill="#0F2DB9" stroke="#0F2DB9" stroke-width="9.28042"/>
<path d="M1579.85 545.45L1676.81 409.992L1661.34 398.465L1579.85 545.45Z" fill="#0F2DB9" stroke="#0F2DB9" stroke-width="9.28042"/>
<path d="M1676.87 715.083L1842.78 730.04L1844.88 710.862L1676.87 715.083Z" fill="#0F2DB9" stroke="#0F2DB9" stroke-width="9.28042"/>
<path d="M1588.31 885.141L1665.24 1032.9L1682.52 1024.31L1588.31 885.141Z" fill="#0F2DB9" stroke="#0F2DB9" stroke-width="9.28042"/>
<path d="M1487.35 914.064L1471.5 1079.89L1490.67 1082.09L1487.35 914.064Z" fill="#0F2DB9" stroke="#0F2DB9" stroke-width="9.28042"/>
<path d="M1310.56 805.498L1162.24 881.337L1170.69 898.679L1310.56 805.498Z" fill="#0F2DB9" stroke="#0F2DB9" stroke-width="9.28042"/>
<path d="M1316.21 606.828L1174.98 518.484L1164.44 534.642L1316.21 606.828Z" fill="#0F2DB9" stroke="#0F2DB9" stroke-width="9.28042"/>
<path d="M1485.81 513.09L1498.48 346.988L1479.28 345.155L1485.81 513.09Z" fill="#0F2DB9" stroke="#0F2DB9" stroke-width="9.28042"/>
<path d="M1657.12 617.612L1806.74 544.37L1798.59 526.884L1657.12 617.612Z" fill="#0F2DB9" stroke="#0F2DB9" stroke-width="9.28042"/>
<path d="M1659.71 815.917L1802.11 902.363L1812.43 886.065L1659.71 815.917Z" fill="#0F2DB9" stroke="#0F2DB9" stroke-width="9.28042"/>
<path d="M1416.13 888.417L1334.78 1033.79L1351.43 1043.53L1416.13 888.417Z" fill="#0F2DB9" stroke="#0F2DB9" stroke-width="9.28042"/>
<path d="M1293.86 731.658L1127.56 741.282L1128.3 760.56L1293.86 731.658Z" fill="#0F2DB9" stroke="#0F2DB9" stroke-width="9.28042"/>
<path d="M1371 554.59L1277.36 416.817L1261.2 427.355L1371 554.59Z" fill="#0F2DB9" stroke="#0F2DB9" stroke-width="9.28042"/>
<path d="M1557.52 537.365L1636.06 390.457L1619.23 381.038L1557.52 537.365Z" fill="#0F2DB9" stroke="#0F2DB9" stroke-width="9.28042"/>
<path d="M1672.53 691.733L1838.97 685.009L1838.56 665.72L1672.53 691.733Z" fill="#0F2DB9" stroke="#0F2DB9" stroke-width="9.28042"/>
<path d="M1605.62 868.883L1701.1 1005.39L1717.11 994.637L1605.62 868.883Z" fill="#0F2DB9" stroke="#0F2DB9" stroke-width="9.28042"/>
<path d="M1510.73 909.844L1516.55 1076.33L1535.84 1076.02L1510.73 909.844Z" fill="#0F2DB9" stroke="#0F2DB9" stroke-width="9.28042"/>
<path d="M1326.69 822.932L1189.48 917.398L1200.11 933.495L1326.69 822.932Z" fill="#0F2DB9" stroke="#0F2DB9" stroke-width="9.28042"/>
<path d="M1309.53 629.62L1158.02 560.373L1149.67 577.764L1309.53 629.62Z" fill="#0F2DB9" stroke="#0F2DB9" stroke-width="9.28042"/>
<path d="M1462.53 517.757L1453.51 351.418L1434.22 352.094L1462.53 517.757Z" fill="#0F2DB9" stroke="#0F2DB9" stroke-width="9.28042"/>
<path d="M1641.3 599.9L1780.13 507.84L1769.78 491.561L1641.3 599.9Z" fill="#0F2DB9" stroke="#0F2DB9" stroke-width="9.28042"/>
<path d="M1666.08 793.037L1818.51 860.25L1826.63 842.749L1666.08 793.037Z" fill="#0F2DB9" stroke="#0F2DB9" stroke-width="9.28042"/>
<path d="M1444.48 900.979L1384.29 1056.31L1402.14 1063.62L1444.48 900.979Z" fill="#0F2DB9" stroke="#0F2DB9" stroke-width="9.28042"/>
<path d="M1298.53 762.319L1135.21 795.131L1138.65 814.115L1298.53 762.319Z" fill="#0F2DB9" stroke="#0F2DB9" stroke-width="9.28042"/>
<path d="M1347.09 574.334L1235.08 451.027L1220.55 463.724L1347.09 574.334Z" fill="#0F2DB9" stroke="#0F2DB9" stroke-width="9.28042"/>
<path d="M1528.93 525.35L1586.13 368.894L1568.14 361.925L1528.93 525.35Z" fill="#0F2DB9" stroke="#0F2DB9" stroke-width="9.28042"/>
<path d="M1668.4 660.995L1832.27 631.035L1829.16 611.994L1668.4 660.995Z" fill="#0F2DB9" stroke="#0F2DB9" stroke-width="9.28042"/>
<path d="M1629.27 848.821L1742.92 970.618L1757.27 957.728L1629.27 848.821Z" fill="#0F2DB9" stroke="#0F2DB9" stroke-width="9.28042"/>
<path d="M1541.49 905.882L1570.56 1069.91L1589.62 1066.91L1541.49 905.882Z" fill="#0F2DB9" stroke="#0F2DB9" stroke-width="9.28042"/>
<path d="M1346.58 846.731L1223.94 959.475L1236.73 973.924L1346.58 846.731Z" fill="#0F2DB9" stroke="#0F2DB9" stroke-width="9.28042"/>
<path d="M1299.32 658.904L1139.61 611.55L1133.77 629.939L1299.32 658.904Z" fill="#0F2DB9" stroke="#0F2DB9" stroke-width="9.28042"/>
<path d="M1431.85 522.31L1399.63 358.871L1380.63 362.24L1431.85 522.31Z" fill="#0F2DB9" stroke="#0F2DB9" stroke-width="9.28042"/>
<path d="M1621.83 575.758L1746.41 465.169L1733.88 450.499L1621.83 575.758Z" fill="#0F2DB9" stroke="#0F2DB9" stroke-width="9.28042"/>
<path d="M1675.9 763.619L1836.24 808.831L1841.83 790.366L1675.9 763.619Z" fill="#0F2DB9" stroke="#0F2DB9" stroke-width="9.28042"/>
<path d="M1468.36 908.851L1426.55 1070.1L1445.13 1075.3L1468.36 908.851Z" fill="#0F2DB9" stroke="#0F2DB9" stroke-width="9.28042"/>
<path d="M1304.73 786.679L1146.31 838.177L1151.92 856.635L1304.73 786.679Z" fill="#0F2DB9" stroke="#0F2DB9" stroke-width="9.28042"/>
<path d="M1329.37 592.167L1203.84 482.656L1190.88 496.949L1329.37 592.167Z" fill="#0F2DB9" stroke="#0F2DB9" stroke-width="9.28042"/>
<path d="M1504.91 517.938L1543.61 355.912L1524.94 351.072L1504.91 517.938Z" fill="#0F2DB9" stroke="#0F2DB9" stroke-width="9.28042"/>
<path d="M1662.62 636.53L1821.91 587.801L1816.62 569.248L1662.62 636.53Z" fill="#0F2DB9" stroke="#0F2DB9" stroke-width="9.28042"/>
<path d="M1646.75 830.753L1773.73 938.574L1786.5 924.109L1646.75 830.753Z" fill="#0F2DB9" stroke="#0F2DB9" stroke-width="9.28042"/>
<path d="M1565.98 900.233L1613.85 1059.79L1632.43 1054.6L1565.98 900.233Z" fill="#0F2DB9" stroke="#0F2DB9" stroke-width="9.28042"/>
<path d="M1364.51 864.341L1255.76 990.525L1270.13 1003.4L1364.51 864.341Z" fill="#0F2DB9" stroke="#0F2DB9" stroke-width="9.28042"/>
<path d="M1293.41 683.34L1129.29 654.794L1125.63 673.734L1293.41 683.34Z" fill="#0F2DB9" stroke="#0F2DB9" stroke-width="9.28042"/>
<path d="M1407.47 528.428L1356.54 369.818L1338.06 375.364L1407.47 528.428Z" fill="#0F2DB9" stroke="#0F2DB9" stroke-width="9.28042"/>
<path d="M1604.2 557.837L1715.14 433.569L1701 420.448L1604.2 557.837Z" fill="#0F2DB9" stroke="#0F2DB9" stroke-width="9.28042"/>
<path d="M1681.48 739.107L1845.97 765.454L1849.38 746.466L1681.48 739.107Z" fill="#0F2DB9" stroke="#0F2DB9" stroke-width="9.28042"/>
<path d="M763 694C565.705 1266.27 143.46 1364.52 -43 1342.12" stroke="#0F2DB9" stroke-width="94"/>
<path d="M785 124C572.774 625.068 118.571 711.095 -82 691.475" stroke="#0F2DB9" stroke-width="96"/>
<path d="M370.496 2054.35L377.108 2066.17L199.911 2165.35L153.051 2081.63C140.977 2060.06 139.811 2035.08 150.087 2012.46C166.775 1974.79 207.37 1958.14 230.59 1924.91C253.81 1891.68 254.763 1850 233.202 1811.47C199.854 1751.9 131.247 1732.96 71.1543 1766.6C10.5477 1800.52 -9.63952 1870.5 23.9959 1930.6L12.1827 1937.21C-25.4774 1869.92 -2.74143 1792.44 66.5966 1753.63C133.88 1715.97 206.78 1736.55 244.728 1804.35C270.026 1849.55 268.455 1894.95 242.215 1931.22C217.969 1965.02 178.75 1982.93 161.713 2018.77C152.855 2037.89 153.653 2054.99 164.864 2075.02L205.112 2146.92L370.496 2054.35ZM383.145 2076.95L389.757 2088.77L189.447 2200.88L129.938 2094.57C114.414 2066.83 113.62 2032.87 127.534 2003.5C145.989 1964.17 185.434 1945.46 208.079 1911.2C227.312 1882.9 228.304 1853.34 211.918 1824.06C185.469 1776.81 131.796 1761.66 84.5432 1788.11C36.2634 1815.13 20.6602 1870.41 47.1086 1917.66L35.2954 1924.27C5.39729 1870.86 22.9743 1807.06 76.3903 1777.16C129.806 1747.26 194.408 1765.06 223.443 1816.94C242.13 1850.32 240.705 1887.54 219.765 1918.83C196.381 1954.17 153.567 1974.09 137.515 2014.1C127.814 2037.75 129.102 2065.35 141.752 2087.95L194.648 2182.46L383.145 2076.95ZM396.369 2100.58L402.981 2112.39L179.559 2237.45L107.401 2108.53C87.5645 2073.09 85.908 2037.59 101.918 2002.33C122.696 1956.29 160.538 1937.14 183.635 1901.27C199.622 1876.81 201.044 1856.46 189.257 1835.4C170.284 1801.5 131.892 1791.96 94.9119 1812.66C58.4452 1833.07 49.5226 1867.74 70.2213 1904.72L58.4081 1911.33C34.2596 1868.19 45.6697 1824.71 88.2998 1800.84C131.443 1776.7 178.647 1788.72 200.783 1828.27C214.87 1853.44 213.467 1879.86 195.775 1907.3C171.712 1945.05 132.205 1962.44 113.03 2008.92C99.979 2039.83 101.677 2070.59 119.214 2101.92L184.76 2219.02L396.369 2100.58ZM477.931 1921.37L489.745 1914.76C526.542 1980.5 593.608 2000.3 656.783 1964.94C720.471 1929.29 737.577 1861.03 700.204 1794.26C677.206 1753.17 644.897 1732.81 601.676 1732.72C623.911 1695.31 623.22 1657.93 600.222 1616.84C562.561 1549.55 496.235 1528.67 432.547 1564.32C368.859 1599.97 351.178 1667.2 387.688 1732.43L375.875 1739.04C334.765 1665.59 354.542 1592.46 425.935 1552.5C497.327 1512.54 569.775 1534.72 611.46 1609.2C634.458 1650.29 636.977 1687.33 618.626 1723.23C658.826 1726.36 689.08 1747.87 712.079 1788.96C753.764 1863.44 734.274 1937.08 663.395 1976.75C592.003 2016.71 519.041 1994.82 477.931 1921.37ZM524.488 1784.01L517.876 1772.2L540.989 1759.27C591.837 1730.8 606.536 1678.73 577.787 1627.37C548.752 1575.5 495.017 1559.03 445.196 1586.92C395.375 1614.8 381.026 1668.7 409.774 1720.06L397.961 1726.68C366.05 1669.66 382.6 1606.44 438.584 1575.1C494.568 1543.77 557.402 1563.23 589.888 1621.27C615.186 1666.47 610.02 1713.88 577.023 1746.52C622.321 1734.65 665.722 1755.55 691.02 1800.75C723.506 1858.79 706.73 1922.82 650.746 1954.15C594.762 1985.49 531.701 1966.82 499.503 1909.3L511.316 1902.68C540.065 1954.05 594.313 1970.22 644.134 1942.34C693.955 1914.45 708.243 1859.24 679.207 1807.36C650.747 1756.51 599.476 1742.04 547.601 1771.08L524.488 1784.01ZM536.275 1805.07L529.663 1793.26L552.776 1780.32C597.974 1755.02 643.637 1767.91 668.935 1813.11C694.521 1858.82 682.329 1908.14 638.672 1932.58C595.014 1957.02 546.086 1941.91 521.075 1897.22L532.888 1890.61C554.449 1929.13 594.566 1941.75 632.06 1920.77C669.04 1900.07 679.545 1859.79 657.409 1820.24C635.848 1781.72 597.909 1770.58 559.388 1792.14L536.275 1805.07ZM512.127 1761.93L505.515 1750.12L528.627 1737.18C567.662 1715.33 578.064 1678.48 556.216 1639.45C534.079 1599.9 494.477 1586.99 456.983 1607.97C419.489 1628.96 409.271 1669.76 430.832 1708.28L419.019 1714.89C394.008 1670.2 406.713 1620.6 450.371 1596.16C494.028 1571.73 542.443 1587.12 568.029 1632.83C593.327 1678.03 580.438 1723.69 535.239 1748.99L512.127 1761.93Z" fill="#0F2DB9"/>
<path d="M1943.82 2472.96C1457.8 2331.75 1357.03 1979.86 1367.4 1821.57" stroke="#EB2222" stroke-width="102"/>
</g>
<defs>
<clipPath id="clip0_236_107">
<rect width="1728" height="2548" fill="white"/>
</clipPath>
</defs>
</svg>
