<?xml version="1.0" encoding="UTF-8"?>
<svg id="Layer_1" data-name="Layer 1" xmlns="http://www.w3.org/2000/svg" viewBox="0 0 670 670">
  <defs>
    <style>
      .cls-1 {
        fill: none;
      }

      .cls-1, .cls-2 {
        stroke: #637fc0;
      }

      .cls-1, .cls-2, .cls-3, .cls-4 {
        stroke-miterlimit: 10;
      }

      .cls-5 {
        font-size: 28px;
      }

      .cls-5, .cls-6, .cls-7 {
        font-family: Arial-Black, 'Arial Black';
        font-weight: 800;
      }

      .cls-6 {
        font-size: 48px;
      }

      .cls-2 {
        fill: #f7c102;
      }

      .cls-3 {
        stroke: #152f8d;
      }

      .cls-3, .cls-7 {
        fill: #152f8d;
      }

      .cls-4 {
        fill: #fff;
        stroke: #000;
      }

      .cls-7 {
        font-size: 80px;
      }

      .cls-8 {
        letter-spacing: -.02em;
      }

      .cls-9 {
        letter-spacing: -.02em;
      }
    </style>
  </defs>
  <path class="cls-1" d="M39.55,374.88c.16,2.09.41,4.76.8,7.86,0,0,.75,6,1.94,12.07,2.32,11.84,6.55,24.32,8.94,31.33.83,2.44,3.81,11.07,8.39,22.32,3.69,9.05,5.53,13.58,8.39,19.15,5.25,10.24,10.31,17.15,16.3,25.33,6.76,9.23,12.26,15.58,18.36,22.64,8.95,10.34,13.42,15.51,20.58,22.16,9.58,8.9,17.78,14.71,23.43,18.68,10.17,7.14,18.21,11.67,26.44,16.3,7.15,4.02,14.84,8.36,25.49,13.14,9.43,4.24,16.4,6.68,27.23,10.45,16.08,5.6,25.41,8.84,37.83,11.87,16.29,3.98,28.51,5.29,42.58,6.81,14.85,1.6,30.01,3.23,50.34,2.69,29.23-.78,51.17-5.56,57.94-7.12,21.04-4.85,36.35-10.96,46.06-14.88,5.57-2.25,22.67-9.33,43.69-21.37,14.06-8.06,24.33-15.15,28.65-18.2,13.22-9.33,25.01-17.65,37.83-31.5,8.51-9.2,14.24-17.33,18.38-23.21,8.35-11.86,13.78-21.67,17.04-27.59,3.32-6.03,7.6-13.87,12.17-24.55,5.17-12.07,8.13-22.24,11.36-33.07,1.98-6.65,3.47-12.2,4.46-15.99"/>
  <path class="cls-3" d="M31.34,308.26c.29-8.04.88-22.22,4.58-40.3.67-3.29,2.65-12.56,6.41-24.43,4.3-13.57,9.19-25.01,15.27-37.56,10.54-21.76,18.86-38.93,32.67-58.01,23.24-32.11,48.45-50.91,66.87-64.43,14.59-10.7,34.36-25.2,62.59-36.95,48.61-20.22,91.37-19.38,127.02-18.32,29.85.89,68.98,2.06,116.33,20.76,58.31,23.03,93.94,58.76,106.56,72.37,37.07,39.95,52.73,79.79,60.15,99.24,4.42,11.57,20.29,55.14,21.37,114.5.33,17.98.68,49.34-9.77,88.55-3.92,14.72-15.97,55.35-47.33,98.93-42.91,59.64-95.02,87.35-105.65,92.82-61.14,31.52-116.58,32.1-149.01,32.06-26.52-.03-74.8-.58-130.38-25.04-15.32-6.74-50.69-23.87-86.41-58.01-9.28-8.87-33.91-33.53-55.88-72.37-12.1-21.39-31.93-56.45-36.95-104.73-1.01-9.73-.16-32.85,1.53-79.08Z"/>
  <path class="cls-1" d="M45.93,282.85c.69-7.45,2.02-16.84,4.67-27.5,1.47-5.91,3.68-14.59,8.27-25.16,1.01-2.33,3.2-7.19,14.02-25.52,6.73-11.4,10.1-17.1,12.94-21.39,9.65-14.54,18.67-24.06,30.55-36.49,12.12-12.67,20.17-21.09,32.53-30.73,16.03-12.5,29.65-19.55,41.7-25.7,13.64-6.96,36.75-18.6,68.3-26.6,42.19-10.7,76.18-8.98,100.65-7.55,22.45,1.31,49.83,2.91,83.93,14.38,39.23,13.19,65.5,32.08,83.57,45.29,14.39,10.52,37.54,27.69,60.75,56.79,10.4,13.05,23.63,29.89,34.15,55.54,11.42,27.86,14.18,52.77,14.74,68.84"/>
  <path class="cls-2" d="M41.05,294.53c-4.65,9.23-4.32,17.73-3.78,31.71.43,11.01,1.63,9.15,3.02,26.43.18,2.28-.62,8.3,1.18,15.88.26,1.1.86,3.64,1.84,6.01,3.2,7.75,10.14,12.07,15.86,15.86,8.47,5.6,13.82,6.65,26.43,11.33,18.81,6.98,18.34,8.89,31.71,13.59,9.48,3.33,14.67,4.12,37.75,8.31,46.83,8.49,41.34,8.14,57.38,10.57,18.9,2.86,32.79,4.3,49.83,6.04,28.39,2.9,44.44,4.54,64.93,5.29,40.18,1.46,71.28-1.46,95.89-3.78,26.93-2.53,47.92-5.74,59.65-7.55,20.23-3.12,34.29-5.87,50.59-9.06,13.4-2.62,36.07-7.22,62.67-15.86,6.85-2.23,20.19-6.74,32.47-18.12,3.56-3.3,6.46-6.69,6.46-6.69s2.43-3.23,4.11-6.9c3.76-8.17,1.15-20.81.76-30.2-.8-19.28,1.76-18.57,0-30.2-1.25-8.29-2.8-18.54-9.82-27.94-2.76-3.69-7.9-9.31-29.45-18.88-17.23-7.65-31.21-11.73-37.75-13.59-26.02-7.41-46.73-11.84-55.12-13.59-9.18-1.91-35.29-7.22-70.82-12.13-17.25-2.39-33.13-4.58-54.98-6.19-33.56-2.47-58.84-1.9-65.13-1.73-19.28.51-35.3,2.16-67.36,5.45-30.9,3.17-47.59,4.93-71.07,9.16-5.13.93-24,4.39-48.29,10.65-4.54,1.17-22.33,5.8-44.57,14.12-12.33,4.6-20.83,8.4-29.72,15.6-5.42,4.39-10.81,8.76-14.67,16.43Z"/>
  <text class="cls-7" transform="translate(174.74 358.32)"><tspan x="0" y="0">MIKASA</tspan></text>
  <polygon class="cls-4" points="50.36 271.92 84.48 190.05 131.78 131.37 212.75 79.06 268.35 57.45 327.37 54.04 391.06 61.78 453.37 76.33 542.98 130.46 572.54 160.19 613.48 216.43 630.31 263.28 630.31 275.56 550.26 248.73 371.04 210.52 331.47 211.43 266.19 219.17 210.78 225.69 139.07 237.25 50.36 271.92"/>
  <polygon class="cls-4" points="632.97 386.93 600.34 469.41 554.1 528.93 474.09 582.7 418.89 605.31 359.94 609.78 296.13 603.2 233.56 589.77 142.99 537.28 112.89 508.08 70.94 452.6 53.27 406.06 53.05 393.78 133.58 419.16 313.45 454.12 353 452.5 418.13 443.58 473.41 436.06 544.9 423.2 632.97 386.93"/>
  <text class="cls-6" transform="translate(189.17 164.23)"><tspan x="0" y="0">BE</tspan><tspan class="cls-8" x="72" y="0">A</tspan><tspan x="108.47" y="0">CH P</tspan><tspan class="cls-9" x="236.46" y="0">R</tspan><tspan x="272.98" y="0">O</tspan></text>
  <text class="cls-5" transform="translate(173.48 543.98)"><tspan x="0" y="0">OFFICIAL GAME </tspan><tspan class="cls-9" x="255.13" y="0">B</tspan><tspan x="276.43" y="0">ALL</tspan></text>
</svg>