<?xml version="1.0" encoding="UTF-8"?>
<svg id="Fodbold" xmlns="http://www.w3.org/2000/svg" viewBox="0 0 140 121">
  <defs>
    <style>
      .cls-1 {
        fill: #fff;
      }

      .cls-1, .cls-2, .cls-3 {
        stroke: #000;
        stroke-miterlimit: 10;
      }

      .cls-2 {
        fill: none;
      }
    </style>
  </defs>
  <polyline class="cls-2" points="95.38 13.97 121.29 34.24 128.5 44.83 131.2 51.37 132.9 60.57 132.9 65.71 132.9 73.64 131.51 79.74 127.55 86.17 123.15 92.6 117.37 98.91 112.44 104.48 106.45 107.59 93.1 111.44 85.32 112.94 76.72 114.58 70.58 114.58 63.48 113.62 54.2 111.44 46.96 109.12 36.33 101.94 30.74 95.96 24.95 89.01 21.09 82.84 15.69 74.41 13.76 69.72 10.48 59.69 10.48 51.78 13.18 46.18 15.49 40.22 23.6 30.75 26.88 27.71 34.79 20.33 42.12 15.79 49.07 13.19 57.94 10.81 63.39 10.81"/>
  <polygon class="cls-1" points="52.57 27.71 74.65 34.24 96.51 27.71 95.38 13.97 74.54 10.81 63.39 10.81 52.57 27.71"/>
  <polyline class="cls-3" points="74.65 34.24 80.28 49.12 96.51 52.72 109.57 44.83 96.51 27.71"/>
  <polyline class="cls-2" points="129.96 48.35 127.1 48.35 123.97 47.06 121.77 44.83 120.39 43.26"/>
  <polyline class="cls-2" points="109.57 44.83 120.39 43.26 119.49 41.23 119.49 38.1 122.06 35.37"/>
  <polygon class="cls-3" points="47.98 88.63 34.76 75.12 39.66 56.64 58.15 64.94 64.83 82.41 47.98 88.63"/>
  <polyline class="cls-2" points="41.35 105.33 42.97 94.25 39.66 91.52 28.28 92.12"/>
  <line class="cls-2" x1="47.98" y1="88.63" x2="39.66" y2="91.52"/>
  <line class="cls-2" x1="34.76" y1="75.12" x2="21.09" y2="82.84"/>
  <polyline class="cls-2" points="39.66 56.64 33.85 43.26 15.49 40.22"/>
  <polyline class="cls-2" points="33.85 43.26 52.57 27.71 51.17 20.9 47.98 17.86 43.82 17.26 42.12 15.79"/>
  <polyline class="cls-1" points="80.28 49.12 58.15 64.94 58.32 65.38 64.83 82.41 86.28 78.41 102.58 70.8 96.01 52.72 80.17 49.47"/>
  <polyline class="cls-2" points="90.86 97.98 74.54 105.33 66.81 110.04 63.48 113.62"/>
  <line class="cls-2" x1="120.49" y1="72.74" x2="132.9" y2="65.71"/>
  <path d="M37.1,39.41c-.14-4.05-.28-8.14.57-12.12l-2.95-.4c-.22,3.63-.26,7.27-.12,10.91h3c-.12-2.49-.23-4.99-.32-7.49-.04-1.17-.09-2.35-.13-3.52-.04-1.26-.15-2.52.2-3.74-.98-.13-1.96-.27-2.95-.4-.33,4.84-2.43,9.36-2.74,14.21.98-.13,1.96-.27,2.95-.4-.18-1.22.41-2.48.81-3.6.46-1.28.79-2.54.85-3.91.06-1.36-.05-2.71.23-4.05.14-.67.32-1.33.52-1.98.14-.46.28-1.47.61-1.79.24-.23,1.18-.31,1.5-.42.61-.2,1.2-.45,1.78-.73s1.34-.61,1.81-1.07l.31-.21c-.77-.52-1.06-.58-.89-.18.01.21.23.61.31.77,1,2.16,3.17,3.46,5.51,3.6,1.11.07,1.91-1.34,1.3-2.26-.86-1.3-1.9-2.35-3.15-3.27l-1.16,2.74c.84.27,1.63.64,2.35,1.15.66.46,1.65,1.23,1.95,2s-.72,1.72-1.17,2.31c-.73.96-1.49,1.89-2.26,2.82-1.01,1.21-.03,2.71,1.46,2.51,1.14-.16,2.7-.1,3.67-.78.41-.28.66-.66.84-1.12.08-.21.14-.42.19-.64.04-.17.25-.49.09-.35,1.46-1.32-.64-3.29-2.12-2.12s-2.97,2.35-4.46,3.53c-.75.59-1.42,1.17-1.97,1.95-.46.65-.85,1.16-1.56,1.56-1.3.74-2.73,1.15-3.93,2.08-.57.44-1.09.97-1.46,1.59-.17.28-.31.6-.41.92-.07.2-.11.4-.12.61-.1.49-.08.53.07.11l1.06-.44h-.18c.25.94.5,1.87.76,2.8.92-.65,1.89-1.27,2.75-2,.83-.71,1.16-1.59,1.31-2.65.34-2.39.53-4.88.33-7.29-.19-2.25-2.46-3.04-4.13-1.56s-2.38,3.66-2.44,5.75c-.04,1.51,2.05,2.01,2.8.76,1.16-1.97,1.79-4.12,1.9-6.4l-2.95.4c.68,3.33.93,6.71.79,10.11h3c-.14-4.62.25-9.21.66-13.81.15-1.73-2.49-1.98-2.95-.4l-1.11,3.81,2.89.8c.45-1.74.9-3.48,1.36-5.22.41-1.56-1.39-2.34-2.51-1.46s-2.22,1.96-3.16,3.12l2.56,1.06c0-1.09.15-2.11.47-3.16-.98-.13-1.96-.27-2.95-.4l.07,4.28c.03,1.78,2.35,1.92,2.95.4.75-1.92,1.5-3.84,2.24-5.76l-2.74.36c.29.42.42.76.5,1.27.16,1.02,1.43,1.28,2.2.9,1.32-.66,2.63-1.31,3.95-1.97-.73-.56-1.47-1.13-2.2-1.69-.17.94-.35,1.89-.52,2.83-.25,1.36,1.42,2.66,2.51,1.46.19-.21.38-.41.59-.6.37-.33.51-.17-.08-.17l-1.06-.44c-.26-.54-.3-.53-.13.02.07.28.14.56.2.83.14.56.27,1.11.41,1.67.33,1.35,2.04,1.35,2.74.36.33-.46.65-.93.98-1.39l-2.74-.36c.04.29.08.57.12.86.19,1.31,2.16,1.41,2.74.36.37-.67.7-1.35,1-2.05l-2.74-1.16c-.33.87-.81,1.71-1.41,2.43-.62.74-1.43,1.3-1.86,2.19-.38.78-.47,1.28-1.18,1.84-.66.52-1.35.96-1.9,1.6l2.51,1.46c.9-2.14,1.79-4.28,2.69-6.41.36-.86-.55-1.98-1.45-1.9-2.22.19-3.01,3.04-3.91,4.75.93.25,1.86.5,2.8.76-.07-1.62-.13-3.25-.2-4.87-.05-1.16-1.7-2.16-2.56-1.06-.48.61-.81,1.18-1.09,1.91l2.89.8c.66-1.97,1.06-3.98,1.27-6.05.14-1.38-1.69-1.86-2.56-1.06-2.45,2.25-3.21,5.47-4.05,8.56-.45,1.64-1.18,3.13-1.72,4.74-.26.78-.38,1.59-.3,2.4.08.75.68,1.74.49,2.46l2.2-.9c-.89-.58-1.96-1.47-3.08-.99s-1.39,2.23-1.76,3.23c-.66,1.82,2.24,2.6,2.89.8.22-.61.38-1.36.74-1.9l-1.3.74-.38-.14c.17.1.35.2.52.31.29.17.57.36.85.54.81.53,1.96,0,2.2-.9.21-.76.17-1.44-.02-2.21s-.49-1.33-.33-2.12c.3-1.54,1.23-3,1.67-4.52.82-2.8,1.24-5.92,3.49-8l-2.56-1.06c-.18,1.8-.59,3.55-1.17,5.26-.62,1.85,2.23,2.58,2.89.8.08-.21.18-.41.31-.59l-2.56-1.06c.07,1.62.13,3.25.2,4.87.06,1.41,2.07,2.13,2.8.76.33-.62.65-1.24.98-1.86.13-.25.26-.5.39-.74.1-.19.2-.37.29-.56.2-.27.09-.3-.35-.11-.48-.63-.96-1.27-1.45-1.9-.9,2.14-1.79,4.28-2.69,6.41-.58,1.38,1.57,2.56,2.51,1.46.57-.67,1.31-1.1,1.98-1.66.86-.71,1.14-1.48,1.61-2.44.41-.83,1.36-1.5,1.92-2.26.69-.93,1.19-1.94,1.61-3.03.6-1.57-2.07-2.72-2.74-1.16-.3.7-.64,1.38-1,2.05l2.74.36c-.04-.29-.08-.57-.12-.86-.2-1.41-2.09-1.28-2.74-.36l-.98,1.39c.91.12,1.83.24,2.74.36-.29-1.2-.37-3.39-1.56-4.08-1.28-.74-2.6.58-3.39,1.45.84.49,1.67.97,2.51,1.46.17-.94.35-1.89.52-2.83.24-1.31-.99-2.3-2.2-1.69-1.32.66-2.63,1.31-3.95,1.97l2.2.9c-.11-.72-.38-1.38-.8-1.98-.77-1.11-2.26-.86-2.74.36-.75,1.92-1.5,3.84-2.24,5.76l2.95.4-.07-4.28c-.03-1.7-2.46-2.03-2.95-.4-.38,1.29-.57,2.61-.57,3.95,0,1.2,1.71,2.11,2.56,1.06.94-1.16,1.99-2.19,3.16-3.12-.84-.49-1.67-.97-2.51-1.46-.45,1.74-.9,3.48-1.36,5.22-.49,1.87,2.35,2.65,2.89.8l1.11-3.81-2.95-.4c-.41,4.59-.8,9.19-.66,13.81.06,1.93,2.92,1.93,3,0,.15-3.66-.16-7.32-.9-10.91-.35-1.72-2.87-1.22-2.95.4-.09,1.75-.6,3.38-1.49,4.89.93.25,1.86.5,2.8.76.03-1.13.37-2.24,1.09-3.13.36-.44.65-.32-.04-.76-.73-.46-.46-.09-.44.54.02.7.02,1.4,0,2.09-.03,1.31-.1,2.64-.32,3.93-.2,1.2-1.7,1.83-2.63,2.49-1.11.8-.86,2.87.76,2.8.77-.04,1.35-.37,1.71-1.06.3-.6.19-1.28.6-1.84.95-1.27,2.87-1.64,4.18-2.39,1.59-.91,2.27-2.46,3.64-3.58,1.64-1.33,3.3-2.62,4.96-3.93-.71-.71-1.41-1.41-2.12-2.12-.11.09-1.26,1.85-.92,1.99-.04-.02.67-.19.11-.24-.23-.02-.53.07-.76.11-.64.09-1.27.18-1.91.27.49.84.97,1.67,1.46,2.51,1.07-1.28,2.11-2.59,3.11-3.93.92-1.24,1.66-2.56,1.12-4.13-.9-2.6-3.94-4.45-6.42-5.23-1.73-.54-2.44,1.8-1.16,2.74.82.6,1.51,1.35,2.07,2.19.43-.75.86-1.5,1.3-2.26-1.17-.07-2.26-.78-2.78-1.83-.57-1.14-.99-2.44-2.57-2.3-.81.07-1.39.57-2.05.98-.6.37-1.22.7-1.88.94-1.27.48-2.78.54-3.58,1.79-.75,1.19-1.12,2.86-1.43,4.22-.37,1.62-.38,3.2-.41,4.85-.06,3.05-2.02,5.58-1.57,8.71.25,1.76,2.85,1.19,2.95-.4.31-4.84,2.41-9.36,2.74-14.21.12-1.72-2.49-1.99-2.95-.4-.69,2.42-.29,5.14-.2,7.62.1,2.64.21,5.28.34,7.93.09,1.92,3.07,1.94,3,0-.14-3.64-.1-7.28.12-10.91.1-1.68-2.59-2.06-2.95-.4-.91,4.26-.83,8.59-.68,12.92.07,1.93,3.07,1.93,3,0h0Z"/>
  <path d="M35.4,41.45c.04-.22.07-.42.17-.62h-2.59c.3.62.81.99,1.47,1.16l-.9-2.2-.1.15.54-.54.02-.04h.8c.3.51.42.54.35.1,0-.18,0-.36,0-.54,0-.36,0-.71-.02-1.07-.02-.77-.07-1.55-.16-2.32-.17-1.47-.56-2.9-.75-4.37-.17-1.35-.17-2.75-.22-4.11-.04-1.11-.45-2.86.79-3.4-.75-.43-1.5-.86-2.26-1.3.13,1.59-.91,3.02-.93,4.62,0,.91.29,1.69,1.09,2.16.66.39,1.04.61,1.23,1.42.37,1.58.44,3.33,2.07,4.21.82.44,1.87.45,2.5-.32.54-.67.44-1.67.42-2.48-.05-1.93-3.05-1.93-3,0,0,.22.01.44,0,.67-.06.39-.03.44.1.15l.9-.69-.15.06h.8c-.71-.11-.7-2.4-.94-3.01-.22-.57-.53-1.1-.95-1.55-.21-.22-.45-.42-.69-.59-.16-.12-.63-.3-.7-.36l.39.66c-.24-.71.23-1.62.45-2.29.28-.86.49-1.74.41-2.64-.1-1.21-1.18-1.76-2.26-1.3-2.15.93-2.36,3.22-2.3,5.28.06,2.2.09,4.45.54,6.61.47,2.23.57,4.38.63,6.64.03,1.02.34,1.99,1.3,2.47s2.08.12,2.68-.77c.55-.81,0-1.96-.9-2.2l-.25-.07.66.39-.08-.1c-.48-.99-2.11-.97-2.59,0-.22.43-.39.86-.48,1.34-.14.8.22,1.62,1.05,1.85.73.2,1.7-.25,1.85-1.05h0Z"/>
  <path d="M35.27,97.5c.83.61,1.65,1.22,2.48,1.82.2.15.4.3.61.45.3.2.72.31,1.08.31.48,0,.96-.17,1.3-.52.28-.29.45-.69.46-1.1,0-.27-.08-.63-.24-.85-.24-.32-.49-.58-.9-.69-.36-.1-.84-.05-1.16.15s-.6.51-.69.9-.09.84.15,1.16c.01.02.02.03.03.05l-.15-.36v.02c-.01-.13-.03-.27-.05-.4v.02c.02-.13.03-.27.05-.4v.02c.04-.12.09-.24.14-.36v.02c.07-.1.14-.2.22-.3l-.02.02.3-.23s-.03.02-.05.03l.36-.15s-.06.02-.1.03l.4-.05c-.05,0-.1,0-.15,0l.4.05c-.05,0-.1-.02-.15-.04l.36.15c-.27-.14-.51-.37-.76-.55l-.81-.59c-.54-.4-1.08-.79-1.62-1.19-.29-.22-.82-.24-1.16-.15s-.73.36-.9.69c-.18.35-.28.77-.15,1.16l.15.36c.13.23.31.4.54.54h0Z"/>
  <path d="M41.34,97.66c0-.07,0-.15.01-.22l-.05.4c.01-.07.03-.14.06-.21l-.15.36s.03-.06.06-.09l-.23.3c.1-.12.22-.21.33-.32.15-.14.27-.29.39-.45s.25-.33.34-.52c.15-.33.23-.58.27-.94.03-.21.05-.41.04-.63-.01-.27-.03-.56-.09-.82-.04-.17-.11-.35-.2-.49-.17-.27-.36-.41-.6-.6-.15-.11-.3-.22-.44-.33-.3-.22-.82-.24-1.16-.15s-.73.36-.9.69c-.18.35-.28.77-.15,1.16l.15.36c.13.23.31.4.54.54.15.11.3.22.44.33l-.3-.23s.04.04.06.06l-.23-.3.02.04-.15-.36s.02.06.03.1l-.05-.4c.03.28.06.56.03.85l.05-.4c-.02.13-.05.26-.1.38l.15-.36c-.06.13-.13.25-.22.37l.23-.3c-.17.21-.37.37-.55.56-.45.47-.6,1.01-.62,1.64-.01.38.18.8.44,1.06s.69.46,1.06.44c.83-.04,1.47-.66,1.5-1.5h0Z"/>
  <path d="M41.04,93.11c-.18-.08-.33-.19-.49-.31l.3.23c-.52-.41-1.02-.83-1.69-.96-.56-.11-1.11-.07-1.67-.14l.4.05c-.16-.02-.31-.06-.46-.12l.36.15-.05-.02c-.17-.11-.36-.17-.56-.18-.2-.04-.4-.04-.6.03-.35.1-.73.36-.9.69-.18.35-.28.77-.15,1.16.11.35.34.74.69.9.23.1.46.21.71.26.26.05.53.09.8.1.3.02.6,0,.9.04l-.4-.05c.16.02.31.06.47.12l-.36-.15c.18.08.33.19.49.31l-.3-.23c.32.25.63.54,1,.71s.74.26,1.16.15c.35-.1.73-.36.9-.69.18-.35.28-.77.15-1.16-.11-.35-.34-.73-.69-.9h0Z"/>
  <path d="M36.82,91.82c-2.07.08-4.08.13-6.02-.36-.76-.19-1.66.25-1.85,1.05s.25,1.57,1.05,1.85c-.16-.06-.06-.05,0,.03-.16-.19.02.04.07.08.17.17.34.33.51.5.4.39.79.78,1.19,1.16.77.76,1.54,1.51,2.31,2.27v-2.12l-.05.06,1.06-.44c.47.15.57.16.31.02-.09-.05-.18-.11-.26-.17,0,0-.37-.26-.2-.14-.29-.22-.56-.48-.81-.74-.24-.25-.44-.53-.7-.75-.16-.14-.34-.27-.53-.38-.08-.04-.16-.07-.24-.11-.22-.13-.17-.05.16.24-.56.73-1.13,1.47-1.69,2.2,1.46.31,2.94.57,4.43.7.69.06,1.39.07,2.08.08.74.01,1.26.03,1.92.21.76.21,1.67-.26,1.85-1.05s-.24-1.62-1.05-1.85c-1.45-.4-2.95-.27-4.44-.37-1.36-.09-2.6-.32-3.99-.62-.6-.13-1.19.04-1.58.54-.34.44-.47,1.19-.12,1.67.23.32.45.58.81.78.09.05.19.09.29.14.1.05.22.16.08.03.37.34.67.76,1.04,1.1.87.78,2.68,2.3,3.75.97.51-.62.63-1.51,0-2.12-.86-.84-1.72-1.68-2.58-2.52s-1.68-1.88-2.84-2.29l-.8,2.89c2.24.57,4.52.56,6.82.47.78-.03,1.54-.67,1.5-1.5-.04-.79-.66-1.53-1.5-1.5h0Z"/>
  <path d="M39.36,95.87c.01.57.03,1.14.04,1.71,0,.29.01.57.02.86,0,.14,0,.27,0,.41.02.3.09-.25,0,.06-.18.59-.33,1.15-.34,1.77,0,.53.06,1.05.01,1.58l1.9-1.45c-.06-.02-.13-.05-.19-.07-.19-.07.01-.02.07.03-.09-.08-.26-.12-.37-.18-.26-.13-.51-.29-.75-.45-.06-.04-.11-.08-.17-.12-.17-.11.21.18.06.04-.1-.09-.21-.18-.31-.27-.22-.2-.42-.41-.61-.63-.04-.04-.08-.13-.13-.16.06.04.16.22.05.06-.08-.11-.16-.23-.23-.34-.14-.22-.25-.46-.41-.67-.53-.73-1.37-1.04-2.15-1.43-.58-.29-1.35-.28-1.82.23-.41.45-.64,1.28-.23,1.82.8,1.05,1.63,2.15,2.86,2.74.36.18.79.27,1.15.46-.33-.18.11.06.17.1.06.04.11.07.17.11-.17-.13-.19-.15-.07-.04.05.05.28.22.28.29-.13-.17-.15-.19-.05-.06.04.06.07.11.11.17.05.08.2.27.19.36-.08-.2-.1-.23-.04-.07.02.06.04.13.06.19.23.75,1.06,1.3,1.85,1.05.76-.24,1.29-1.04,1.05-1.85-.22-.73-.58-1.38-1.08-1.96-.52-.61-1.22-.96-1.95-1.24-.15-.06-.31-.1-.45-.17.1.05.18.09.04,0-.06-.03-.13-.07-.19-.1-.07-.04-.29-.24-.35-.24.06,0,.22.18.05.03-.05-.05-.11-.09-.16-.14-.22-.21-.43-.43-.63-.67-.09-.11-.18-.22-.27-.34-.02-.03-.18-.23-.05-.06.14.18-.07-.1-.08-.11l-2.05,2.05c.33.17.67.33,1,.5.08.04.15.07.23.11.06.03.19.16.08.03-.04-.05-.24-.34-.13-.13.03.05.06.11.09.16.33.59.74,1.14,1.2,1.64.94,1,2.12,1.72,3.4,2.19.44.16.95,0,1.31-.27.39-.3.55-.69.59-1.18.05-.53-.02-1.05-.01-1.58,0-.12,0-.25.02-.36-.08.38.03-.05.06-.12.07-.24.15-.47.2-.72.11-.63.06-1.26.05-1.89-.01-.57-.03-1.14-.04-1.71-.02-.78-.68-1.54-1.5-1.5s-1.52.66-1.5,1.5h0Z"/>
  <path d="M38.76,102.33s-.02.06-.02.09c-.02.14-.04.29-.06.43,0,.02,0,.03,0,.05,0,.03,0,.06,0,.1.01.15.04.29.06.44,0,.02,0,.03,0,.05,0,.03.01.06.02.09,0,.02.01.03.02.04.05.13.11.26.17.39.01.03.03.05.04.08,0,.01.02.03.03.04.08.11.17.23.26.34.14.15.3.25.48.31.18.09.37.14.58.13.21,0,.4-.04.58-.13.19-.06.35-.16.48-.31l.23-.3c.14-.23.2-.49.2-.76l-.05-.4c-.07-.25-.2-.47-.39-.66,0,0,0-.01-.01-.02l.23.3s-.07-.1-.09-.16l.15.36c-.03-.06-.04-.13-.05-.19l.05.4c0-.07,0-.13,0-.2l-.05.4s.01-.07.02-.1c.06-.2.07-.4.03-.6,0-.2-.07-.39-.18-.56-.09-.17-.22-.32-.39-.42-.14-.13-.31-.22-.51-.27l-.4-.05c-.27,0-.52.07-.76.2l-.3.23c-.19.19-.31.41-.39.66h0Z"/>
  <polygon class="cls-1" points="74.32 34.62 52.57 28.05 34.37 43.41 39.94 56.31 58.03 64.42 79.85 49.12 74.32 34.62"/>
  <polyline class="cls-1" points="21.25 82.23 34.41 74.87 39.1 56.16 33.4 43.53 15.72 40.72 10.88 51.79 10.88 59.6 14.49 70.63 20.76 81.82"/>
  <polygon class="cls-1" points="119.74 42.92 109.82 44.42 96.78 27.43 95.91 14.9 120.87 34.24 121.67 35.78 119.74 42.92"/>
  <polygon class="cls-1" points="44.46 90.38 41.78 105.11 47.3 108.95 63.19 113.22 69.91 107.78 83.01 101.13 90.63 97.71 85.93 78.71 64.94 82.67 44.46 90.38"/>
  <polygon class="cls-1" points="21.69 83 34.67 75.59 47.23 88.42 39.66 91.09 27.63 91.65 21.69 83"/>
  <polygon class="cls-1" points="31.18 24.17 32.75 42.56 16.27 39.95 31.18 24.17"/>
  <polygon class="cls-1" points="52.87 26.4 49.78 13.29 57.85 11.13 62.6 11.13 52.87 26.4"/>
  <polyline class="cls-3" points="97.01 52.72 103.85 71.4 120.49 72.74 124.86 87.75 114.76 101.87 90.86 97.98 86.28 78.41 103.06 71.29 96.51 52.72"/>
  <polygon class="cls-1" points="120.49 72.25 132.63 65.31 132.9 60.57 130.77 51.32 129.03 48.35 119.11 43.45 109.08 45.13 97.39 52.69 104.16 71.04 120.49 72.25"/>
  <polygon class="cls-1" points="64.4 112.91 70.8 107.79 90.89 98.29 113.88 102.16 112.24 104.11 106.31 107.26 95.25 110.47 87.7 112.1 76.87 114.24 70.52 114.25 64.23 113.41 64.4 112.91"/>
  <polygon class="cls-1" points="120.9 72.89 132.44 66.33 132.7 73.13 131.21 79.53 126.34 87.48 124.78 86.69 120.9 72.89"/>
</svg>