<?xml version="1.0" encoding="UTF-8"?>
<svg id="vinderskærm" xmlns="http://www.w3.org/2000/svg" viewBox="0 0 700 495">
  <defs>
    <style>
      .cls-1, .cls-2, .cls-3, .cls-4, .cls-5, .cls-6, .cls-7, .cls-8 {
        font-family: Noteworthy-Bold, Noteworthy;
        font-weight: 700;
      }

      .cls-9 {
        fill: #199f38;
      }

      .cls-9, .cls-10, .cls-11, .cls-12, .cls-13, .cls-14, .cls-15, .cls-16, .cls-17, .cls-18, .cls-19, .cls-20, .cls-21, .cls-22 {
        stroke-miterlimit: 10;
      }

      .cls-9, .cls-10, .cls-13, .cls-14, .cls-16, .cls-17, .cls-18, .cls-23, .cls-19, .cls-20, .cls-22, .cls-24 {
        stroke: #000;
      }

      .cls-10 {
        fill: #d59290;
      }

      .cls-10, .cls-18 {
        stroke-width: .25px;
      }

      .cls-11, .cls-12, .cls-23, .cls-19, .cls-24 {
        fill: none;
      }

      .cls-11, .cls-21 {
        stroke: #fff;
      }

      .cls-12 {
        stroke: #754c24;
      }

      .cls-13 {
        fill: #a67c52;
      }

      .cls-14 {
        fill: #f7931e;
      }

      .cls-2 {
        letter-spacing: 0em;
      }

      .cls-3, .cls-15, .cls-25 {
        fill: #0056ff;
      }

      .cls-3, .cls-26, .cls-8 {
        font-size: 18px;
      }

      .cls-15 {
        stroke: #0067ff;
      }

      .cls-16, .cls-27 {
        fill: #c69c6d;
      }

      .cls-17, .cls-28, .cls-18, .cls-21 {
        fill: #fff;
      }

      .cls-4 {
        letter-spacing: -.2em;
      }

      .cls-5 {
        letter-spacing: -.05em;
      }

      .cls-23 {
        letter-spacing: -.04em;
      }

      .cls-6 {
        letter-spacing: .01em;
      }

      .cls-29 {
        fill: #754c24;
      }

      .cls-7 {
        letter-spacing: .04em;
      }

      .cls-20 {
        fill: #8c6239;
      }

      .cls-30 {
        letter-spacing: -.02em;
      }

      .cls-31 {
        letter-spacing: .02em;
      }

      .cls-32 {
        font-family: Kavivanar-Regular, Kavivanar;
      }
    </style>
  </defs>
  <rect class="cls-9" x="26.51" y="78.47" width="542" height="238"/>
  <g id="Jonas_wind" data-name="Jonas wind">
    <g>
      <text class="cls-8" transform="translate(584.77 156.93)"><tspan class="cls-24" x="0" y="0">Lo</tspan><tspan class="cls-23" x="19.67" y="0">r</tspan><tspan class="cls-24" x="26.14" y="0">em </tspan><tspan x="51.34" y="0">i</tspan><tspan class="cls-30" x="55.01" y="0">ps</tspan><tspan class="cls-31" x="72.31" y="0">u</tspan><tspan x="80.93" y="0">m</tspan></text>
      <polyline class="cls-11" points="523.51 131.21 520.95 133.58 520.14 135.45 517.65 143.49 515.84 146.17 514.16 149.59 511.85 153.02 510.23 154.83 508.3 159.75 505.74 163.12 503.5 167.29 501.32 171.72 498.95 175.27 496.48 181.11 493.48 183.44 498.64 182.61 502.47 183.44 506.63 185.11 509.8 186.94 513.46 189.1 518.62 190.6 521.51 190.6 525.94 192.93 528.61 192.93 531.6 196.43 531.6 198.59 530.77 201.42 528.28 203.25 524.78 204.25 521.51 204.25 517.62 203.42 513.63 202.59 508.13 201.26 504.3 199.76 501.14 198.26 496.98 195.1 495.48 191.43 494.65 185.61 494.31 183.51"/>
      <text class="cls-3" transform="translate(577.55 160.53)"><tspan x="0" y="0">FCK</tspan></text>
      <polyline class="cls-21" points="639.29 182.51 637.08 179.71 635.62 177.05 634.41 174.88 633.24 172.46 631.08 169.5 629.66 167.21 629.18 166.49"/>
      <path class="cls-28" d="M650.25,147.72c.38,1.47-.48,2.85.28,4.33.68,1.32,2.15,1.89,3.54,1.33,2.83-1.14,2.61-5.46,1.77-7.82-.98-2.75-3.48-4.96-6.53-4.78-3.19.19-5.1,3.15-6.35,5.75-1.36,2.86-2.35,6.23-2.27,9.43.03,1.19.45,2.5,1.75,2.84,1.58.41,2.97-1.09,4.01-2.04,2.23-2.04,4.11-4.51,5.5-7.19,1.3-2.49,2.58-5.54,2.66-8.39.07-2.99-2.77-5.02-5.31-2.92-2.37,1.95-3.37,5.68-3.64,8.61-.24,2.65,0,6.9,3.33,7.45,3.05.5,5.23-3.58,6.33-5.84,1.49-3.07,2.61-6.35,3.3-9.69.33-1.6.62-3.24.73-4.87.08-1.23-.09-2.64-1.04-3.53-2.61-2.45-5.65,1.58-7.13,3.42-1.98,2.46-3.63,5.14-4.88,8.04-.56,1.31-1.71,3.3-1.25,4.79.55,1.77,2.38,1.65,3.8,1.18,3.13-1.04,5.83-3.09,7.73-5.78.84-1.2,1.76-2.71,1.65-4.23-.13-1.64-1.7-2.75-3.3-2.24-1.61.51-2.7,2.21-3.51,3.58-.9,1.53-1.53,3.22-1.88,4.95s1.74,2.51,2.74,1.16c1.97-2.66,3.46-5.67,4.36-8.86.54-1.89,2.37-7.69-1.16-7.8-1.47-.05-2.72,1.53-3.64,2.48-1.09,1.13-2.08,2.35-2.99,3.63-1.92,2.68-3.36,5.66-4.37,8.79-.5,1.54,1.45,2.35,2.51,1.46,3.74-3.14,6.45-7.29,7.9-11.95.47-1.51-1.45-2.41-2.51-1.46-6.72,6-12.11,13.42-15.71,21.68-.45,1.04.07,2.21,1.3,2.26,3.21.12,5.34-3.26,6.87-5.64,1.84-2.86,3.2-5.99,4.42-9.15l-2.89-.8c-2.32,6.51-4.77,12.98-7.34,19.4-.72,1.79,2.18,2.57,2.89.8,2.57-6.42,5.01-12.89,7.34-19.4.65-1.84-2.21-2.57-2.89-.8-.97,2.52-2.06,5-3.43,7.33-.67,1.13-1.39,2.24-2.22,3.27-.69.86-1.53,2.04-2.74,1.99l1.3,2.26c3.51-8.05,8.68-15.22,15.24-21.07-.84-.49-1.67-.97-2.51-1.46-1.3,4.19-3.78,7.81-7.13,10.63.84.49,1.67.97,2.51,1.46,1.51-4.67,4.18-8.9,7.77-12.25.44-.41.63-.3-.05-.76-.81-.56-.4-.34-.54.15-.16.59-.15,1.29-.27,1.91-.23,1.25-.56,2.48-.98,3.69-.84,2.42-2.09,4.67-3.62,6.72.91.39,1.83.77,2.74,1.16.39-1.91,1.11-3.69,2.25-5.27.23-.31.8-.72.93-1.05l.15-.11-.51-.35s-.08.41-.12.47c-.47.75-.81,1.55-1.36,2.25-1.11,1.44-2.55,2.61-4.16,3.44-.33.17-.67.33-1.02.46-.12.05-1.19.28-1.25.41l.35.28c.29.41.45.38.48-.11.1-.15.14-.41.2-.58.19-.52.39-1.03.6-1.54,1.52-3.54,3.69-6.8,6.38-9.56.17-.17.86-1.03,1.08-.95-.26-.1-.07.29-.05.49.08.93-.13,1.92-.28,2.83-.34,2.16-.85,4.3-1.53,6.38-.64,1.96-1.4,3.89-2.4,5.7-.43.78-.91,1.54-1.49,2.22-.65.75-1.37,1.64-1.83.25-.58-1.75-.26-4.03.21-5.76.14-.51,1.76-4.84,2.46-4.4.38.24-.05,1.81-.12,2.12-.2.9-.46,1.79-.77,2.66-.61,1.75-1.46,3.41-2.46,4.96-1.04,1.61-2.29,3.08-3.69,4.39-.29.27-.59.53-.89.79-.16.14-.54.32-.62.5l-.16.12.9.34c.13-.12.02-1.1.04-1.35.04-.58.11-1.15.21-1.72.38-2.19,1.11-4.31,2.19-6.26.93-1.67,2.31-3.77,4.52-2.95,1.98.73,2.7,2.89,2.7,4.84,0,.43,0,.92-.14,1.34-.03.1-.35.57-.13.51.2-.06-.02-.08.04-.33.24-1.05.29-2.34.03-3.38-.48-1.87-3.37-1.08-2.89.8h0Z"/>
      <path class="cls-28" d="M638.06,151.83c-1.06,3.31-2.12,6.61-3.18,9.92-.55,1.73,1.8,2.44,2.74,1.16,2.43-3.32,4.16-7.1,5.12-11.1.41-1.74-1.75-2.47-2.74-1.16-3.46,4.61-6.43,9.56-8.88,14.78-.82,1.75,1.48,3.11,2.59,1.51,1.36-1.96,2.24-4.19,2.57-6.56.18-1.33-1.38-2.69-2.51-1.46-2.14,2.34-3.33,5.22-3.5,8.38.85-.35,1.71-.71,2.56-1.06l-.85-1.09c-.61.79-1.21,1.57-1.82,2.36,3.7,2.82,5.54,7.4,7.22,11.58l2.74-1.16c-1.15-1.93-2.29-3.86-3.44-5.79-.57-.96-1.15-1.93-1.72-2.89-.31-.52-.59-1.07-.92-1.57.19.3-.41.4.41.22,2.13-.48,4.37-.63,6.54-.62,1.87,0,3.88.36,5.63-.49s2.88-2.78,3.96-4.34c1.23-1.77,2.38-3.59,3.49-5.44,2.21-3.71,4.22-7.53,6.23-11.35.65-1.23-.74-2.96-2.05-2.05-7.35,5.08-14.51,10.42-21.48,16-1.37,1.1.38,3.13,1.82,2.36,5.02-2.72,9.87-5.74,14.51-9.07-.61-.79-1.21-1.57-1.82-2.36-2.97,2.64-5.75,5.48-8.32,8.51-.9,1.06-.08,3.01,1.46,2.51,4.12-1.34,7.86-3.41,11.21-6.16,1.36-1.12-.38-3.12-1.82-2.36-6.27,3.33-12.16,7.3-17.63,11.83-1.16.96.08,2.95,1.46,2.51,5.66-1.84,10.99-4.55,15.79-8.09,1.53-1.13.24-3.49-1.51-2.59-2.95,1.52-5.8,3.2-8.56,5.05-.66.45-.98,1.32-.54,2.05.71,1.17,2.66,1.36,3.27-.05.45-1.04-.06-2.21-1.3-2.26-3.5-.14-6.94.56-10.35,1.3.39.91.77,1.83,1.16,2.74,3.17-1.59,6.22-3.72,8.01-6.87s2.12-7.53,5.27-9.62c-.68-.18-1.37-.36-2.05-.54l.11.22-.15-1.16c-.08.41-1.09.99-1.43,1.27-.64.55-1.29,1.09-1.95,1.62-1.27,1.04-2.55,2.06-3.86,3.05-2.57,1.96-5.2,3.82-7.88,5.61l2.2,1.69c.25-1.45,1.27-2.38,2.29-3.35,1.24-1.17,2.48-2.33,3.69-3.52,2.43-2.38,4.78-4.84,6.92-7.47,3.97-4.88,7.25-10.34,8.92-16.44.51-1.86-2.38-2.66-2.89-.8-1.7,6.2-5.17,11.7-9.34,16.54-2.22,2.58-4.62,4.99-7.07,7.34-2.04,1.95-4.91,3.94-5.42,6.91-.2,1.18,1.01,2.49,2.2,1.69,3.3-2.2,6.52-4.53,9.65-6.97,1.57-1.23,3.12-2.49,4.65-3.78,1.25-1.06,2.85-2.16,1.94-3.98-.35-.69-1.41-.97-2.05-.54-3.23,2.14-4.14,5.69-5.56,9.07-1.5,3.57-4.34,5.72-7.72,7.42-1.58.8-.44,3.09,1.16,2.74,3.16-.68,6.31-1.32,9.55-1.19-.43-.75-.86-1.5-1.3-2.26l1.11-.49.9.69-.09-.15-.54,2.05c2.75-1.85,5.6-3.54,8.56-5.05-.5-.86-1.01-1.73-1.51-2.59-4.59,3.39-9.65,6.02-15.07,7.79.49.84.97,1.67,1.46,2.51,5.27-4.36,10.98-8.15,17.02-11.36-.61-.79-1.21-1.57-1.82-2.36-2.93,2.4-6.28,4.22-9.88,5.39.49.84.97,1.67,1.46,2.51,2.57-3.03,5.34-5.87,8.32-8.51,1.25-1.11-.42-3.36-1.82-2.36-4.64,3.33-9.49,6.35-14.51,9.07.61.79,1.21,1.57,1.82,2.36,6.77-5.43,13.73-10.6,20.87-15.54l-2.05-2.05c-2.15,4.09-4.31,8.19-6.71,12.14-1.2,1.97-2.46,3.91-3.81,5.78-.56.78-1.14,1.76-2.09,2.11s-2.01.15-2.95.12c-2.23-.08-4.46.07-6.67.39-1.74.25-4.16.51-4.42,2.69-.12.96.35,1.76.82,2.56.65,1.1,1.31,2.2,1.96,3.31,1.23,2.07,2.45,4.13,3.68,6.2.83,1.4,3.4.47,2.74-1.16-2.01-5.01-4.19-10.01-8.6-13.37-.59-.45-1.53-.14-1.94.39-.49.64-.35,1.37.12,1.97.28.36.57.73.85,1.09.87,1.11,2.5.1,2.56-1.06.12-2.34,1.04-4.53,2.62-6.26-.84-.49-1.67-.97-2.51-1.46-.3,2.15-1.03,4.06-2.27,5.84.86.5,1.73,1.01,2.59,1.51,2.44-5.23,5.41-10.17,8.88-14.78-.91-.39-1.83-.77-2.74-1.16-.9,3.78-2.52,7.25-4.82,10.39.91.39,1.83.77,2.74,1.16,1.06-3.31,2.12-6.61,3.18-9.92.59-1.84-2.31-2.63-2.89-.8h0Z"/>
      <path class="cls-28" d="M653.13,126.19c-1.98,2.74-3.67,5.64-5.08,8.71l1.3-.74c.49,1.19.9,1.43,1.22.71.12-.17.24-.32.38-.47.31-.35.65-.67,1.03-.94l-2.05-2.05c-2.68,3.76-5.37,7.52-8.05,11.28.86.5,1.73,1.01,2.59,1.51,2.92-4.39,5.34-9.05,7.32-13.93.58-1.43-1.53-2.49-2.51-1.46-2.05,2.17-3.81,4.58-5.23,7.21-.93,1.74,1.46,3.04,2.59,1.51,2.29-3.09,4.52-6.23,6.67-9.41.93-1.37,1.75-2.97,2.92-4.15.46-.46,1.04-.9,1.73-.85.76.05.85.56,1.09,1.21.55,1.47,1.57,2.41,2.51,3.63s1.62,2.62,2.21,4.03c1.21,2.85,2.15,5.83,4.05,8.31,1.16,1.51,3.77.02,2.59-1.51-2.22-2.9-3.1-6.48-4.69-9.72-.82-1.67-1.91-2.99-3.07-4.41-1.06-1.3-1.09-3.08-2.66-4-3.64-2.12-6.47,1.74-8.2,4.36-2.48,3.74-5.07,7.41-7.74,11.01l2.59,1.51c1.3-2.41,2.87-4.62,4.76-6.61-.84-.49-1.67-.97-2.51-1.46-1.88,4.63-4.25,9.05-7.02,13.21-1.08,1.62,1.49,3.06,2.59,1.51,2.68-3.76,5.37-7.52,8.05-11.28.85-1.19-.86-2.93-2.05-2.05-1.17.86-2.6,2.05-2.99,3.52-.35,1.31.38,2.82,1.88,2.77.49-.02,1.08-.26,1.3-.74,1.41-3.07,3.1-5.97,5.08-8.71,1.13-1.57-1.47-3.07-2.59-1.51h0Z"/>
      <path class="cls-28" d="M667.89,139.31c-.58,3.57.91,6.76,2.99,9.58s4.43,5.17,5.03,8.57l2.74-1.16c-1.8-2.81-3.14-5.84-3.93-9.09-.37-1.52-.61-3.08-1.38-4.47-.76-1.38-2.01-2.24-3.18-3.23-2.54-2.16-4.24-5.1-6.03-7.87-2.01-3.11-4.02-6.22-6.04-9.32-.49-.75-1.7-1.08-2.36-.3-3.12,3.68-1.42,9.61,3.59,10.37,1.53.23,2.41-1.29,1.46-2.51-.79-1.02-1.58-2.03-2.37-3.05-1.04-1.33-3.36.44-2.36,1.82,2.05,2.82,4.1,5.65,5.77,8.72,1.72,3.15,2.47,6.62,3.98,9.85,1.45,3.12,3.93,5.73,6.09,8.37,1.63,1.99,4.48,6.39,7.38,3.51.42-.42.63-1.3.23-1.82-1.14-1.49-2.15-3.07-3-4.74s-1.38-3.44-2.05-5.18c-.63-1.63-1.44-3.05-2.68-4.29-1.04-1.03-2.45-1.96-2.98-3.38l-2.74,1.16c2.17,2.92,4.33,5.85,6.16,9,.56-.73,1.13-1.47,1.69-2.2-1.87-.68-3.38-2.16-4.09-4.02-.84.49-1.67.97-2.51,1.46,2.09,2.66,4.17,5.31,6.26,7.97.49-.84.97-1.67,1.46-2.51-6.28-2.45-15.04-6.31-14.36-14.48-.98.13-1.96.27-2.95.4.89,4.75,1.78,9.49,2.67,14.24.32,1.7,2.92,1.25,2.95-.4.08-5.94-.71-11.86-2.35-17.57l-2.74,1.16c2.1,3.46,4.21,6.91,6.31,10.37.9,1.48,3.1.5,2.74-1.16-.47-2.12-1.28-4.12-2.42-5.96-.92-1.49-3.05-.49-2.74,1.16.62,3.26,1.23,6.52,1.85,9.78l2.74-1.16c-2.4-3.84-4.84-7.66-7.66-11.21-.81-1.02-2.62-.17-2.56,1.06.19,3.8.67,7.58,1.4,11.31l2.89-.8c-.86-2.61-.82-5.31-.75-8.03.05-1.94-2.88-1.91-3,0-.38,5.98-3.62,11.3-4.64,17.15-.24,1.35.97,2.24,2.2,1.69,2.39-1.06,4.36-2.78,6.29-4.51-.79-.61-1.57-1.21-2.36-1.82-3.19,4.98-6.56,9.85-10.12,14.58-1.04,1.39,1.18,2.98,2.36,1.82,5.26-5.2,10.52-10.4,15.79-15.6.95-.94.22-2.52-1.06-2.56-3.41-.11-6.5,2.35-9.17,4.19-2.92,2.01-5.69,4.22-8.33,6.59-1.28,1.15.36,3.21,1.82,2.36,6.1-3.58,11.36-8.33,15.61-13.97.79-1.05-.52-2.6-1.69-2.2-4.41,1.48-8.37,3.97-11.58,7.35-1.34,1.41.69,3.41,2.12,2.12,2.45-2.21,4.91-4.41,7.36-6.62-.71-.71-1.41-1.41-2.12-2.12-4.01,3.69-8,7.41-11.96,11.15-3.76,3.55-7.97,6.97-11.06,11.13-.55.74,0,2.04.9,2.2,2.6.49,5.04-.36,7.17-1.86,2.11-1.48,3.86-3.41,6.24-4.49-.61-.79-1.21-1.57-1.82-2.36-4.54,3.62-8.3,8.14-11.04,13.26l2.74.36c-.55-2.53-1.51-4.98-2.88-7.18-.11-.17-.89-1.56-1.04-1.54l-.2.55.18-.04c.12.07.57-.04.71-.04,1.45-.01,2.89,0,4.34,0,1.94,0,1.92-2.91,0-3s-4.32.29-5.09,2.36c-.86,2.33.68,5.18,2.19,6.88.49.55,1.64.61,2.12,0,.9-1.15,1.02-2.28,1.33-3.66s1.49-2.4,2.46-3.39c1.13-1.16,2.3-2.29,3.51-3.37.88-.79,2.48-2.74,3.8-2.24l-.66-2.51c-.89.98-2.26,1.3-3.23,2.19-1.09.99-1.52,2.35-1.89,3.73s-1.08,2.35-1.96,3.53c-.42.55-.75,1.13-.99,1.78-.08.22-.38,1.42-.34,1.4l1.16,2.74c2.98-1.83,4.86-5.03,7.97-6.64,1.77-.91,3.61-1.56,5.31-2.62,1.74-1.09,3.42-2.27,5.13-3.41,1.41-.94.54-3.12-1.16-2.74-3.07.69-6.03,1.94-8.63,3.74-2.4,1.66-4.97,3.84-4.93,7.02.01,1.04,1.3,1.99,2.26,1.3,2.27-1.65,3.78-3.89,5.32-6.2,1.62-2.44,3.26-4.34,5.92-5.67,2.62-1.32,5.51-2.62,6.72-5.51,1-2.37.27-5.51-2.18-6.66-1.27-.59-2.38.38-2.2,1.69.36,2.65,3.31,3.56,4.75,5.5,1.57,2.13,2.62,4.37,5.21,5.41.13-.98.27-1.96.4-2.95-2.31-.03-4.56.06-6.72.97-1.92.81-3.74,2.21-5.92,2.04.48.63.96,1.27,1.45,1.9.58-1.82,1.96-3.3,3.76-3.96,1.71-.63,3.47-.99,4.07-2.95.22-.74-.27-1.68-1.05-1.85-.52-.11-1.04-.22-1.56-.32-.84-.17-2.03.41-1.9,1.45.33,2.69,1.58,4.86,3.76,6.47,1.23.91,2.82-.84,2.05-2.05-1.69-2.66-5.7-3.17-7.86-.77-1.14,1.26.28,3.17,1.82,2.36,1.16-.62,2.45-.6,3.6.03l-.54-2.05c-2.18,3.01-6.23,4-9.31,5.8-3.36,1.97-5.76,5.51-9.39,7-1.76.72-.99,3.63.8,2.89,4.08-1.68,6.64-5.36,10.42-7.49,3.59-2.02,7.55-3.22,10.07-6.7.47-.64.12-1.69-.54-2.05-2.11-1.16-4.5-1.16-6.62-.03.61.79,1.21,1.57,1.82,2.36.83-.92,2.44-.95,3.15.16l2.05-2.05c-1.23-.91-2.09-2.35-2.27-3.88l-1.9,1.45c.52.11,1.04.22,1.56.32-.35-.62-.7-1.23-1.05-1.85-.15.5-1.37.66-1.81.8-.97.32-1.87.77-2.69,1.38-1.6,1.2-2.72,2.83-3.33,4.73-.32.99.52,1.83,1.45,1.9,2.18.17,4.07-.82,5.96-1.76,2.19-1.09,4.26-1.27,6.67-1.24,1.81.02,1.88-2.35.4-2.95-1.81-.73-2.72-3.16-3.85-4.61-.63-.81-1.35-1.45-2.17-2.06s-1.7-1.1-1.84-2.15l-2.2,1.69c2.26,1.06.75,3.73-.63,4.82-2.03,1.6-4.63,2.27-6.67,3.88-3.52,2.78-4.85,7.52-8.47,10.16.75.43,1.5.86,2.26,1.3-.03-2.35,2.74-4.04,4.5-5.12,2.13-1.3,4.42-2.2,6.85-2.74l-1.16-2.74c-1.64,1.1-3.27,2.23-4.94,3.29-1.76,1.12-3.67,1.8-5.5,2.75-3.15,1.63-4.99,4.81-7.97,6.64-1.38.85-.48,3.39,1.16,2.74,1.38-.55,1.85-1.55,2.26-2.91.44-1.48,1.7-2.41,2.38-3.77.64-1.29.65-3.01,1.51-4.16.87-1.15,2.59-1.48,3.59-2.58.8-.88.41-2.11-.66-2.51-1.7-.64-3.33.19-4.66,1.25-1.49,1.18-2.9,2.5-4.26,3.83-1.27,1.23-2.66,2.5-3.66,3.97-.42.63-.72,1.32-.88,2.06-.16.7-.1,1.75-.56,2.34h2.12c-.67-.75-1.83-2.43-1.53-3.52.21-.79,1.65-.62,2.31-.59v-3c-1.75,0-3.61-.19-5.35.06-1.32.18-2.7,1.02-2.7,2.52,0,1.53,1.53,2.99,2.21,4.28.86,1.64,1.45,3.38,1.84,5.18.27,1.25,2.15,1.47,2.74.36,2.63-4.92,6.2-9.18,10.57-12.66,1.43-1.14-.39-3-1.82-2.36-1.97.89-3.56,2.34-5.22,3.7-1.61,1.32-3.68,2.76-5.88,2.35l.9,2.2c1.46-1.97,3.34-3.62,5.11-5.31,1.94-1.85,3.89-3.7,5.84-5.55,3.84-3.63,7.71-7.23,11.6-10.81,1.43-1.31-.69-3.41-2.12-2.12-2.45,2.21-4.91,4.41-7.36,6.62l2.12,2.12c2.85-3,6.33-5.26,10.25-6.57-.56-.73-1.13-1.47-1.69-2.2-3.93,5.22-8.9,9.59-14.54,12.9.61.79,1.21,1.57,1.82,2.36,2.33-2.1,4.77-4.07,7.35-5.87,1.24-.87,2.51-1.7,3.81-2.5,1.32-.81,2.63-1.6,4.22-1.55-.35-.85-.71-1.71-1.06-2.56-5.26,5.2-10.52,10.4-15.79,15.6.79.61,1.57,1.21,2.36,1.82,3.56-4.73,6.93-9.59,10.12-14.58.95-1.49-1.13-2.91-2.36-1.82-1.75,1.57-3.51,3.08-5.68,4.04.73.56,1.47,1.13,2.2,1.69,1.07-6.14,4.35-11.66,4.75-17.95h-3c-.07,2.97-.08,5.97.86,8.83.61,1.84,3.27,1.09,2.89-.8-.69-3.47-1.12-6.97-1.3-10.51-.85.35-1.71.71-2.56,1.06,2.66,3.35,4.92,6.98,7.19,10.6.93,1.49,3.05.49,2.74-1.16-.62-3.26-1.23-6.52-1.85-9.78l-2.74,1.16c1.02,1.64,1.71,3.36,2.12,5.25.91-.39,1.83-.77,2.74-1.16-2.1-3.46-4.21-6.91-6.31-10.37-.87-1.43-3.22-.51-2.74,1.16,1.57,5.47,2.32,11.09,2.24,16.78l2.95-.4c-.89-4.75-1.78-9.49-2.67-14.24-.33-1.77-2.81-1.18-2.95.4-.35,4.17,1.74,8.18,4.75,10.96,3.34,3.09,7.64,4.78,11.81,6.41,1.57.61,2.26-1.49,1.46-2.51-2.09-2.66-4.17-5.31-6.26-7.97-.92-1.17-3.02.1-2.51,1.46,1.1,2.92,3.25,5.05,6.18,6.12,1.27.46,2.31-1.14,1.69-2.2-1.83-3.15-3.99-6.08-6.16-9-.92-1.24-3.39-.58-2.74,1.16.61,1.64,1.7,2.79,2.96,3.96s2.23,2.4,2.85,4.1c1.35,3.69,2.8,7.11,5.21,10.25l.23-1.82c-.19.19-5.01-5.81-5.48-6.39-2.01-2.48-3.41-4.94-4.41-7.98-1.9-5.76-5.07-10.6-8.61-15.48l-2.36,1.82c.79,1.02,1.58,2.03,2.37,3.05.49-.84.97-1.67,1.46-2.51-2.56-.39-4.11-3.2-2.27-5.36-.79-.1-1.57-.2-2.36-.3,2.01,3.11,4.02,6.22,6.04,9.32,1.78,2.74,3.48,5.65,5.88,7.92,1.05.99,2.46,1.76,3.24,3.01.86,1.38.97,3.22,1.39,4.77.87,3.17,2.24,6.21,4.02,8.97.95,1.48,3.03.5,2.74-1.16-.54-3.07-2.42-5.55-4.3-7.94-1.87-2.39-4.26-5.35-3.73-8.61.31-1.89-2.59-2.7-2.89-.8h0Z"/>
      <path class="cls-28" d="M522.04,164.4c-2.11,1.75-.25,5.16,2.19,5.26,3.1.13,5.16-3.37,6.27-5.81,1.27-2.79,1.9-5.9,1.68-8.97-.19-2.58-.81-5.73-3.22-7.17-2.67-1.6-5.78-.15-7.52,2.09-1.98,2.55-3.09,5.89-4,8.95-.47,1.6-.86,3.21-1.23,4.84-.31,1.4-1.17,3.51-.39,4.87,1.64,2.82,5.23-.25,6.71-1.54,2.48-2.16,4.55-4.87,5.96-7.83,1.52-3.19,2.61-6.72,1.17-10.13-.4-.93-1.73-.89-2.36-.3-3.27,3.04-6.09,6.57-8.29,10.45-1.08,1.91-2.01,3.9-2.8,5.95-.6,1.57-1.02,3.97.87,4.89,1.83.89,3.7-1.59,4.46-2.96,1.13-2.03,1.98-4.27,2.88-6.41,1.89-4.49,4.31-9.35,4.51-14.3.11-2.69-.43-5.43-.94-8.06-.48-2.44-1.25-4.72-2.87-6.64-.48-.57-1.65-.6-2.12,0-1.46,1.86-2.92,3.72-4.38,5.58-1.18,1.5.93,3.64,2.12,2.12,1.46-1.86,2.92-3.72,4.38-5.58h-2.12c1.84,2.18,2.15,5.37,2.58,8.08.53,3.31.36,6.28-.72,9.46s-2.28,6.07-3.55,9.04c-.6,1.41-1.21,2.83-1.87,4.22-.56,1.17-1.12,2.29-2.36,2.84h1.51c.1.28.13.24.08-.12.01-.13.04-.25.07-.37.07-.35.23-.68.35-1.02.32-.84.68-1.67,1.07-2.49.74-1.55,1.57-3.06,2.49-4.52,1.89-2.98,4.17-5.67,6.76-8.07-.79-.1-1.57-.2-2.36-.3.81,1.91.03,4.22-.7,6.03-.72,1.79-1.71,3.51-2.89,5.05-1.18,1.54-2.59,2.95-4.14,4.11-.34.25-.79.46-1.08.75-.03.03-.33.13-.34.16l.3.24c.29.38.42.32.39-.2.45-.93.5-2.31.74-3.32.52-2.2,1.11-4.39,1.89-6.52.69-1.89,1.51-4.08,2.92-5.56,1.28-1.35,3.2-1.66,4.16.17.86,1.63.95,3.72.87,5.53-.11,2.27-.74,4.53-1.83,6.53-.5.92-1.07,1.89-1.84,2.61-.28.26-.76.69-1.19.63-.06,0-.09-.1-.14-.13-.31-.24.05-.08-.04,0,1.49-1.23-.64-3.34-2.12-2.12h0Z"/>
      <path class="cls-28" d="M523.26,137.9c-1.37,2.69-2.19,5.52-2.54,8.52-.09.74.64,1.38,1.3,1.47.79.11,1.36-.37,1.65-1.07,1.74-4.31,3.48-8.63,5.22-12.94.59-1.46-1.52-2.43-2.51-1.46-3.07,3.02-5.23,6.85-6.21,11.04.98.13,1.96.27,2.95.4-.03-1.9.23-3.71.8-5.53l-2.89-.8c-.33,1.21-1.32,2.14-1.95,3.2-.74,1.24-1.34,2.57-1.98,3.87-1.37,2.76-2.73,5.51-4.1,8.27-.85,1.72,1.73,3.25,2.59,1.51,1.42-2.87,2.85-5.75,4.27-8.62.66-1.34,1.27-2.73,2.1-3.98.75-1.13,1.59-2.11,1.96-3.45.51-1.87-2.32-2.63-2.89-.8-.64,2.05-.95,4.18-.91,6.33.03,1.65,2.55,2.09,2.95.4.86-3.71,2.72-7.04,5.44-9.72-.84-.49-1.67-.97-2.51-1.46-1.74,4.31-3.48,8.63-5.22,12.94.98.13,1.96.27,2.95.4.28-2.44,1.02-4.82,2.13-7.01.87-1.72-1.72-3.24-2.59-1.51h0Z"/>
      <path class="cls-28" d="M512.95,152.95c-.84,1.64-1.87,3.11-3.14,4.45.71.71,1.41,1.41,2.12,2.12,1.2-1.4,2.06-2.95,2.58-4.72.38-1.32-1.08-2.27-2.2-1.69-2.52,1.28-2.5,3.99-3.27,6.35-.88,2.7-2.89,5.27-4.51,7.57.86.5,1.73,1.01,2.59,1.51.92-1.84,1.93-3.63,3.04-5.37.9-1.41-1.26-3.15-2.36-1.82-2.05,2.49-4.08,5.04-4.97,8.19-.44,1.57-.72,3.1-1.52,4.55-.84,1.53-1.91,2.92-3,4.28-1.19,1.5.92,3.63,2.12,2.12,2.06-2.59,4.03-5.19,4.87-8.45.4-1.57.77-3.02,1.59-4.44s1.94-2.81,3.03-4.13c-.79-.61-1.57-1.21-2.36-1.82-1.11,1.74-2.12,3.53-3.04,5.37-.87,1.74,1.48,3.09,2.59,1.51,1.52-2.15,3.08-4.38,4.2-6.77.52-1.11.81-2.22,1.06-3.41.22-1.04.42-2.15,1.44-2.67l-2.2-1.69c-.36,1.26-.95,2.4-1.8,3.4-1.24,1.45.78,3.54,2.12,2.12,1.44-1.51,2.65-3.2,3.61-5.05.88-1.71-1.71-3.23-2.59-1.51h0Z"/>
      <path class="cls-28" d="M497.39,179.43c-.03.11-.07.22-.1.33-.05.21.14-.25-.04.09-.11.2-.23.4-.37.58-.44.6-.15,1.52.39,1.94.59.46,1.43.4,1.97-.12.65-.63,1.29-1.27,1.9-1.94.38-.41.75-.83.9-1.38.14-.52.1-1.08.09-1.61,0-.46-.01-.92-.01-1.37,0-.09,0-.18,0-.26,0-.11,0-.08-.01.09l-.21.35c.07-.11.09-.1-.03,0,.08-.06.17-.12.25-.18.81-.58,1.48-1.29,1.95-2.18.35-.67.22-1.47-.39-1.94s-1.41-.39-1.97.12c-.86.79-1.32,1.84-1.91,2.81-.06.1-.13.21-.19.31-.07.11-.22.28-.05.08-.19.22-.39.41-.59.61-.6.59-.93,1.21-1.03,2.05-.09.78.75,1.53,1.5,1.5.89-.04,1.4-.66,1.5-1.5,0,.05-.13.48-.01.22-.11.24-.02.04.07-.06.16-.16.33-.31.48-.47.38-.4.7-.86.98-1.33.23-.39.43-.79.66-1.17.12-.21.25-.41.39-.61-.15.21-.02.03.07-.07.08-.09.17-.17.26-.25-.79-.61-1.57-1.21-2.36-1.82-.09.18-.21.34-.31.51-.1.19.14-.15,0,.01-.07.08-.14.17-.22.25-.12.13-.26.24-.39.36.2-.18,0,0-.06.04-.07.05-.13.09-.2.14-.52.38-.94.82-1.1,1.47-.12.49-.08,1.02-.08,1.52,0,.43,0,.86.01,1.3,0,.12,0,.24,0,.35.01.15.02-.09.04-.14.02-.05.18-.24.08-.15-.09.08-.16.18-.24.27-.61.67-1.25,1.31-1.9,1.94l2.36,1.82c.38-.51.64-1.1.8-1.72.2-.76-.25-1.66-1.05-1.85s-1.63.24-1.85,1.05h0Z"/>
      <path class="cls-28" d="M500.04,182.19c.78.12,1.51.42,2.24.7.77.3,1.52.51,2.34.67.37.07.74.15,1.1.25.2.06.39.12.59.19.1.03.19.07.29.11-.12-.05-.1-.04.07.03.33.15.64.32.95.5.18.11.35.22.52.33.08.06.17.12.25.18-.1-.08-.08-.06.06.05.61.49,1.53.64,2.12,0,.5-.55.65-1.59,0-2.12-1.41-1.14-3.02-1.99-4.8-2.35-.87-.18-1.69-.35-2.52-.67-.78-.3-1.55-.63-2.38-.76-.77-.12-1.65.2-1.85,1.05-.16.72.22,1.71,1.05,1.85h0Z"/>
      <path class="cls-28" d="M509,185.34c2.32,1.58,4.76,3.13,7.5,3.86,1.48.39,3.02.53,4.54.72s3.15.38,4.72.56c.81.1,1.5-.76,1.5-1.5,0-.89-.69-1.4-1.5-1.5-2.8-.33-5.74-.45-8.46-1.17-2.5-.66-4.68-2.12-6.79-3.55-.67-.46-1.66-.13-2.05.54-.43.74-.13,1.59.54,2.05h0Z"/>
      <path class="cls-28" d="M523,190.67c1.51,1.12,3.25,1.86,5.11,2.12.39.06,1.13-.03,1.46.14s.53.59.72.88c.57.88,1.04,1.81,1.41,2.79.52,1.4,2.39,1.44,2.89,0,.86-2.45,1.68-4.91,1.98-7.5.32-2.74-.26-5.26-1.15-7.84-1.77-5.11-2.61-10.4-3.38-15.74-.26-1.79-2.8-1.15-2.95.4-.42,4.55.17,9.08.81,13.58s1.35,8.87,2.16,13.28c.3,1.65,3.07,1.29,2.95-.4-.17-2.39-.81-4.68-1.39-6.99s-1.14-4.48-1.75-6.72c-1.23-4.54-2.6-9.04-4.29-13.43-.57-1.48-3.01-1.41-2.95.4.12,3.58.44,7.15.94,10.7.35,2.5.43,6.15,3.02,7.47,1,.51,2.25-.11,2.26-1.3.1-10.86.18-21.75-1.11-32.56-.93.25-1.86.5-2.8.76,1.74,3.95.43,8.72-2.78,11.48.84.49,1.67.97,2.51,1.46.5-1.68,1.05-3.35,1.66-4.99.6-1.63-1.9-2.58-2.74-1.16-1.45,2.45-2.93,4.88-4.44,7.28-1.43,2.28-2.82,4.62-4.7,6.55.84.49,1.67.97,2.51,1.46,1.62-7.79,3.23-15.57,4.85-23.36.39-1.88-2.31-2.65-2.89-.8-1.4,4.49-2.8,8.98-4.91,13.19l2.74,1.16c1.74-5.76,3.61-11.47,5.62-17.14.56-1.6-1.97-2.67-2.74-1.16-2.64,5.16-5.34,10.29-8.12,15.38l2.74,1.16c1.34-4.1,2.9-8.12,4.69-12.05l-2.74-1.16c-.43,2.73-1.27,5.33-2.55,7.78l2.74,1.16c1.6-4.22,3.2-8.44,4.8-12.66.69-1.82-2.18-2.56-2.89-.8-2.92,7.22-6.13,14.32-9.61,21.29-.86,1.73,1.53,3.14,2.59,1.51,2.57-3.92,5.12-7.86,6.97-12.18.61-1.42-1.13-3.23-2.36-1.82-4.22,4.85-7.58,10.29-10.07,16.21-.66,1.57,1.95,2.63,2.74,1.16,2.88-5.37,5.99-10.61,9.31-15.71-.86-.5-1.73-1.01-2.59-1.51-3.64,6.45-7.36,12.86-11.15,19.22-1.01,1.7,1.47,3.03,2.59,1.51,3.25-4.41,6.5-8.82,9.75-13.23,1.02-1.39-1.19-3.01-2.36-1.82-2.61,2.68-5.15,5.43-7.59,8.25-1.22,1.41-2.43,2.84-3.61,4.29-.91,1.13-1.56,2.38-.44,3.63.52.58,1.6.57,2.12,0,3.1-3.4,5.5-7.26,7.21-11.53.56-1.4-1.55-2.53-2.51-1.46-2.07,2.31-3.33,5.24-4.76,7.96-1.6,3.05-3.21,6.11-4.81,9.16-.61,1.16.4,2.52,1.69,2.2,2.53-.61,4.97-1.47,7.33-2.56,2.23-1.03,4.63-2.23,6.44-3.93,1.95-1.84,2.09-4.03,1.51-6.52-.64-2.76-.76-5.51-.2-8.29.39-1.91-2.23-2.6-2.89-.8-1.24,3.35-3.42,6.25-5.1,9.38-1.69,3.15-3.07,6.47-4.13,9.88.98.13,1.96.27,2.95.4.01-1.03,1.08-2.01,1.7-2.75.79-.95,1.61-1.87,2.46-2.76,1.65-1.73,3.42-3.34,5.28-4.84-.84-.49-1.67-.97-2.51-1.46-.28,1.85-.87,3.55-1.83,5.16.91.12,1.83.24,2.74.36-.28-1.72.59-3.43.2-5.09-.3-1.28-1.4-2.18-2.71-2.17l1.5,1.5c-.22-2.79-.44-5.59-.66-8.38-.11-1.46-1.97-2.07-2.8-.76s-1.7,2.7-2.56,4.04c.93.25,1.86.5,2.8.76.07-1.18,1.47-2.56,2.13-3.5.82-1.17,1.65-2.34,2.47-3.52l-2.74-1.16c-1.96,7.62-4.09,15.05-8.38,21.73.79-.1,1.57-.2,2.36-.3-.4-.36-.8-.73-1.19-1.09-.35.85-.71,1.71-1.06,2.56,1.78-.24,3.56-.48,5.34-.71,1.39-.19,3-.2,4.22-.98,2.37-1.5,1.28-5.4-1.65-4.88l1.69,2.2c3.79-4.96,8.08-9.53,12.74-13.67-.84-.49-1.67-.97-2.51-1.46-.27,1.94-.48,3.92-.94,5.83-.34,1.41-.82,2.76-2.23,3.37l2.2.9c-.61-2.71.89-5.55,1.73-8.07.74-2.22,1.94-4.93.86-7.23-.87-1.87-3.31-2.82-5.03-1.43-1.67,1.35-1.07,4.22,1.06,4.7,1.88.42,2.68-2.47.8-2.89.31.07,0,.49.03.52.02.03.33.18.41.29.34.47.15,1.28.04,1.79-.32,1.47-.86,2.91-1.35,4.33-.99,2.88-2.12,5.7-1.43,8.78.23,1.04,1.37,1.26,2.2.9,3.95-1.71,4.04-7.4,4.55-10.99.2-1.45-1.31-2.52-2.51-1.46-4.87,4.32-9.27,9.1-13.21,14.28-.88,1.16.57,2.4,1.69,2.2-.66.04-.91-.11-.77-.45.08-.17.03-.17-.17,0-.18.02-.38.11-.57.14-.77.16-1.56.23-2.34.33-1.63.22-3.25.43-4.88.65-1.17.16-2.13,1.59-1.06,2.56.4.36.8.73,1.19,1.09.73.67,1.82.53,2.36-.3,4.42-6.89,6.66-14.59,8.68-22.44.44-1.71-1.79-2.51-2.74-1.16-1.01,1.43-2.02,2.87-3.02,4.3-.94,1.34-1.89,2.54-1.99,4.24-.09,1.55,2.04,1.95,2.8.76.85-1.35,1.7-2.7,2.56-4.04l-2.8-.76c.22,2.79.44,5.59.66,8.38.06.8.64,1.51,1.5,1.5-.43,0-.52,1.84-.56,2.31-.08.93.03,1.83.17,2.74.22,1.33,2.13,1.38,2.74.36,1.09-1.81,1.82-3.78,2.14-5.88.23-1.51-1.3-2.44-2.51-1.46-2.2,1.77-4.27,3.7-6.17,5.8-1.65,1.81-4.11,4.06-4.15,6.68-.02,1.72,2.45,1.99,2.95.4,1.08-3.47,2.5-6.8,4.27-9.97,1.72-3.08,3.73-5.96,4.96-9.29l-2.89-.8c-.49,2.39-.62,4.8-.3,7.23.28,2.14,1.59,4.54-.23,6.26-1.55,1.46-3.72,2.47-5.63,3.37-2.18,1.02-4.48,1.78-6.82,2.35.56.73,1.13,1.47,1.69,2.2,1.53-2.91,3.06-5.82,4.59-8.73,1.36-2.59,2.55-5.59,4.52-7.79-.84-.49-1.67-.97-2.51-1.46-1.51,3.76-3.71,7.21-6.44,10.21h2.12c.41.46-.09,1.27.59.43.24-.3.49-.6.74-.9.45-.54.9-1.08,1.35-1.61.96-1.13,1.93-2.25,2.91-3.35,1.97-2.21,3.99-4.38,6.05-6.5-.79-.61-1.57-1.21-2.36-1.82-3.25,4.41-6.5,8.82-9.75,13.23.86.5,1.73,1.01,2.59,1.51,3.79-6.36,7.51-12.77,11.15-19.22.95-1.69-1.54-3.13-2.59-1.51-3.33,5.1-6.43,10.35-9.31,15.71l2.74,1.16c2.28-5.42,5.44-10.46,9.3-14.89l-2.36-1.82c-1.86,4.32-4.41,8.26-6.97,12.18.86.5,1.73,1.01,2.59,1.51,3.59-7.2,6.9-14.55,9.92-22.01l-2.89-.8c-1.6,4.22-3.2,8.44-4.8,12.66-.6,1.59,1.96,2.65,2.74,1.16,1.41-2.67,2.38-5.51,2.86-8.5.24-1.52-1.97-2.84-2.74-1.16-1.9,4.16-3.57,8.42-4.99,12.77-.53,1.62,1.93,2.65,2.74,1.16,2.77-5.09,5.48-10.22,8.12-15.38-.91-.39-1.83-.77-2.74-1.16-2,5.67-3.88,11.38-5.62,17.14-.48,1.6,1.97,2.7,2.74,1.16,2.22-4.45,3.74-9.18,5.21-13.91l-2.89-.8c-1.62,7.79-3.23,15.57-4.85,23.36-.29,1.41,1.41,2.59,2.51,1.46,1.95-2.01,3.43-4.4,4.91-6.75,1.61-2.54,3.17-5.11,4.7-7.7l-2.74-1.16c-.61,1.65-1.16,3.31-1.66,4.99-.45,1.52,1.43,2.39,2.51,1.46,4.31-3.71,5.51-9.98,3.25-15.12-.58-1.33-2.97-.69-2.8.76,1.29,10.81,1.21,21.7,1.11,32.56.75-.43,1.5-.86,2.26-1.3-.82-.42-.94-1.45-1.1-2.28-.28-1.48-.49-2.98-.68-4.47-.37-2.93-.59-5.88-.69-8.83-.98.13-1.96.27-2.95.4,1.63,4.24,2.97,8.59,4.16,12.97.59,2.15,1.15,4.32,1.7,6.48.57,2.26,1.3,4.55,1.46,6.89l2.95-.4c-.77-4.26-1.47-8.52-2.09-12.8-.63-4.39-1.18-8.81-.77-13.26-.98.13-1.96.27-2.95.4.72,5.01,1.45,10.04,3.07,14.85.81,2.41,1.61,4.66,1.42,7.24-.19,2.54-1.1,5-1.93,7.38h2.89c-.69-1.86-1.76-4.63-3.66-5.56-.98-.48-2.19-.32-3.24-.59-1.18-.31-2.21-.86-3.18-1.58-1.55-1.15-3.05,1.45-1.51,2.59h0Z"/>
      <path class="cls-28" d="M524.55,143.39c-.25,1.96-.76,3.88-1.42,5.73-.66,1.85,2.17,2.53,2.89.8,2.56-6.09,5.39-12.07,8.45-17.93-.91-.39-1.83-.77-2.74-1.16-1.56,4.66-3.62,9.11-6.13,13.33.93.25,1.86.5,2.8.76-.05-2.11-.11-4.23-.16-6.34-.93.25-1.86.5-2.8.76.31.59.75,1.03,1.33,1.34.84.44,1.96.08,2.2-.9.28-1.1.41-2.22.37-3.36-.98.13-1.96.27-2.95.4,1.04,3.8,4.21,5.72,7.96,6.04,3.94.34,6.05,3.3,7.62,6.65.56-.73,1.13-1.47,1.69-2.2-6.09-1.32-11.7-4.18-16.29-8.41-.61.79-1.21,1.57-1.82,2.36,5.78,3.63,10.57,8.74,16.85,11.59,1.44.65,3.19-1.13,1.82-2.36-4.27-3.83-8.85-7.32-13.67-10.43l-1.51,2.59c3.25,1.41,6.42,2.98,9.5,4.72,1.5.84,2.98-1.11,1.82-2.36-1.99-2.13-4.19-4.03-6.55-5.74-1.3-.94-2.69.84-2.05,2.05,2.11,4.01,5.09,7.49,8.37,10.6,1.63,1.55,3.35,3,5.07,4.46,1.86,1.58,3.14,3.2,3.59,5.64.35,1.9,3.25,1.09,2.89-.8-.92-4.91-5.07-7.41-8.51-10.56-3.47-3.18-6.62-6.67-8.82-10.85l-2.05,2.05c2.15,1.56,4.12,3.33,5.94,5.27.61-.79,1.21-1.57,1.82-2.36-3.08-1.74-6.25-3.31-9.5-4.72-1.74-.75-3.18,1.52-1.51,2.59,4.61,2.98,8.97,6.3,13.06,9.96.61-.79,1.21-1.57,1.82-2.36-6.27-2.85-11.06-7.96-16.85-11.59-1.43-.9-3.08,1.2-1.82,2.36,4.95,4.56,11.02,7.75,17.61,9.18,1.34.29,2.25-1.01,1.69-2.2-1.41-3.01-3.46-6.03-6.61-7.38-1.79-.77-3.74-.44-5.53-1.09-1.57-.58-2.7-1.91-3.13-3.5-.44-1.6-3-1.32-2.95.4.03.88-.05,1.7-.27,2.56l2.2-.9c-.15-.03-.23-.11-.26-.26-.69-1.32-2.83-.7-2.8.76.05,2.11.11,4.23.16,6.34.04,1.48,2.02,2.05,2.8.76,2.64-4.44,4.79-9.15,6.44-14.05.54-1.6-1.95-2.66-2.74-1.16-3.18,6.09-6.09,12.31-8.75,18.65.96.27,1.93.53,2.89.8.76-2.13,1.24-4.29,1.53-6.53.25-1.91-2.76-1.89-3,0h0Z"/>
      <path class="cls-28" d="M549.89,162.62c0,.16,0,.18,0,.07.01-.11,0-.09-.03.06l.04-.11-.07.12c.08-.11.09-.12.02-.04-.08.07-.06.07.04-.02l-.12.07c.13-.05.15-.05.05-.02-.15-.03.2.08-.07,0,.19.06-.09-.02-.16-.03-.46-.08-.89-.13-1.35-.02-.66.16-1.16.58-1.67,1s-1.04.87-1.57,1.3c-1.02.85-2.04,1.69-3.06,2.54-.96.81-1.85,1.89-1.76,3.22.05.78.65,1.54,1.5,1.5.77-.03,1.56-.66,1.5-1.5-.03-.38-.1.19,0-.16.03-.12.09-.15.01-.03,0-.01.26-.36.11-.18.08-.1.17-.19.26-.28.44-.43.93-.81,1.4-1.2,1.02-.85,2.04-1.69,3.06-2.54.25-.21.5-.41.75-.62.05-.05.28-.23.11-.09.19-.16.09-.05-.03-.04-.18.01.26.03.03,0,.24.03.47.09.72.11.32.03.65,0,.96-.08,1.37-.35,2.32-1.63,2.34-3.03,0-.78-.7-1.54-1.5-1.5s-1.49.66-1.5,1.5h0Z"/>
      <path class="cls-28" d="M544.13,167.71c0,4.42-.1,8.85-.39,13.27-.14,2.14-1.26,3.45-2.5,5.11-1.32,1.79-2.65,3.58-3.97,5.37-1.15,1.55,1.45,3.05,2.59,1.51,1.42-1.92,2.84-3.83,4.25-5.75,1.29-1.74,2.32-3.22,2.56-5.43.49-4.64.45-9.41.46-14.08,0-1.93-3-1.93-3,0h0Z"/>
      <path class="cls-28" d="M537.1,191.28c-2.03,2.19-4.06,4.38-6.09,6.58.71.71,1.41,1.41,2.12,2.12.78-1,1.66-1.93,2.68-2.69,1.01-.75,2.18-1.17,3.2-1.86,1.11-.75,1.54-1.86,1.63-3.16.11-1.5.1-3.01.14-4.51.03-1.14-.09-2.28-.99-3.09-.83-.75-2.03-.97-3.1-.72-2.51.58-4.55,3.13-5.71,5.29-.43.8-.09,2,.9,2.2,1.97.42,4.97.97,6.31-1,.61-.9.87-2.09,1.2-3.11.45-1.38.85-2.78,1.23-4.18l-2.89-.8c-1.05,4.48-2.6,8.8-4.67,12.9.91.39,1.83.77,2.74,1.16,2.03-5.85,4.26-11.63,6.72-17.31l-2.74-1.16c-.41,2.46-1.25,4.75-2.55,6.88.91.39,1.83.77,2.74,1.16,2.64-6.33,5.46-12.59,8.44-18.78l-2.74-1.16c-1.78,4.82-2.81,9.86-3.12,14.99-.1,1.67,2.63,2.07,2.95.4.84-4.4,1.69-8.81,2.53-13.21l-2.95-.4c-.1,1.73-.25,3.47-.49,5.19-.13.89-.23,1.82-.45,2.69-.18.73-.51,1-1.07,1.49-2.22,1.93-3.4,4.87-3.14,7.81.17,1.94,2.81,1.92,3,0,.99-9.88,1.99-19.75,2.98-29.63h-3c.06,4.02-.2,8.03-.83,12-.3,1.86,2.42,2.71,2.89.8,1.1-4.43,2.6-8.73,4.53-12.86l-2.8-.76c0,1.21.85,10.11-2.1,9.37-1.87-.47-2.67,2.43-.8,2.89,2.64.66,4.74-1.4,5.47-3.77.83-2.67.45-5.74.43-8.49-.01-1.4-2.14-2.16-2.8-.76-2.05,4.36-3.68,8.89-4.83,13.57l2.89.8c.67-4.24,1-8.51.94-12.8-.03-1.97-2.81-1.89-3,0-.99,9.88-1.99,19.75-2.98,29.63h3c-.13-1.45.12-2.84.88-4.09.74-1.22,2.08-1.89,2.77-3.13.74-1.34.8-3.14,1-4.63.24-1.77.41-3.54.51-5.32.1-1.67-2.63-2.07-2.95-.4-.84,4.4-1.69,8.81-2.53,13.21.98.13,1.96.27,2.95.4.3-4.87,1.33-9.62,3.02-14.19.58-1.58-2-2.69-2.74-1.16-3.09,6.42-6,12.92-8.74,19.49-.67,1.61,1.89,2.56,2.74,1.16,1.42-2.34,2.4-4.9,2.85-7.6.26-1.52-2.01-2.85-2.74-1.16-2.56,5.93-4.9,11.93-7.02,18.03-.55,1.6,1.97,2.67,2.74,1.16,2.19-4.33,3.87-8.89,4.98-13.62.44-1.88-2.39-2.67-2.89-.8-.46,1.72-.97,3.42-1.53,5.1-.23.69-.23,1.25-.98,1.36-.81.11-1.74-.09-2.53-.26l.9,2.2c.43-.8.91-1.53,1.53-2.2.51-.55,1.39-1.54,2.18-1.67s.51.53.49,1.12c-.03,1.06-.06,2.12-.1,3.17-.03,1,.11,1.53-.82,2.02-.7.37-1.4.71-2.07,1.15-1.44.97-2.71,2.14-3.78,3.51-1.15,1.48.77,3.58,2.12,2.12,2.03-2.19,4.06-4.38,6.09-6.58,1.31-1.41-.81-3.54-2.12-2.12h0Z"/>
      <path class="cls-28" d="M543.49,160.67c.18-2.13.27-4.28-.48-6.32-.58-1.56-2.86-1.35-2.95.4-.22,4.64-.23,9.29-.01,13.93h3c-.46-4.04-1.38-7.98-2.35-11.93-.84-3.44-1.79-6.92-3.86-9.84-.84-1.18-2.76-.81-2.8.76-.13,5.39-.26,10.78-.4,16.17.98-.13,1.96-.27,2.95-.4-.9-2.93-1.82-5.85-3.01-8.68-.98-2.33-2.07-5.13-4.46-6.35-1.25-.64-2.4.41-2.2,1.69.58,3.88,2.02,7.58,4.17,10.86.8,1.22,2.78.78,2.8-.76.05-6.57-.21-13.14-.78-19.69-.98.13-1.96.27-2.95.4,1.47,4.37,3.4,8.55,5.33,12.73l2.05-2.05c-2.55-1.78-4.83-3.88-6.88-6.21-1.11-1.27-3.34.42-2.36,1.82,1.81,2.57,3.62,5.15,5.43,7.72,1.09,1.56,3.57.19,2.59-1.51-1.61-2.79-3.3-5.52-5.06-8.22-1.05-1.6-3.58-.16-2.59,1.51.74,1.26,1.48,2.51,2.21,3.77.79-.61,1.57-1.21,2.36-1.82-2.3-2.31-4.12-4.96-5.48-7.93l-2.36,1.82c3.15,2.6,5.78,5.59,8.62,8.5,1.22,1.24,2.62,2.39,4.31,2.91.81.25,1.65.29,2.49.31.69.02,1.39-.09,1.85.49.61-.79,1.21-1.57,1.82-2.36-2.14-1.01-4.7-1.86-7.11-1.67-2.79.22-2.61,3.52-2.94,5.61-.41,2.61-1.18,5.41-1.17,8.05.01,2.26,1.48,4.59,3.97,4.47.85-.04,1.44-.66,1.5-1.5.28-3.92-.61-7.76-1.54-11.54l-2.89.8c1.35,4.79,2.71,9.59,4.06,14.38.45,1.59,3.03,1.33,2.95-.4-.24-4.99-.49-9.98-.73-14.96h-3c.44,4.08.37,8.17.25,12.26-.1,3.42-.4,7.03,1.44,10.08.76,1.27,2.79.74,2.8-.76.01-2.97.52-5.84,1.5-8.65-.98-.13-1.96-.27-2.95-.4.08,2.54-.03,5.09-.43,7.61-.17,1.04-.22,2.14-1.01,2.9-.73.69-1.48,1.2-2.09,2.02l2.74.36c-.57-4.11-1.21-8.21-1.9-12.3-.34-2-.68-4.01-1.07-6.01-.28-1.46-1.01-3.06-2.76-2.98-1.07.05-1.58.91-1.45,1.9.51,3.68,1.35,7.37,2.35,10.95.48,1.73,1.16,3.39,1.69,5.11.23.75.44,1.52.51,2.3.04.41.04.82-.01,1.22-.02.2-.06.4-.12.6-.26.5-.19.55.2.15l1.85,1.05c-2.23-7.48-4.45-14.97-6.25-22.57-.44-1.88-3.34-1.08-2.89.8,1.8,7.6,4.02,15.09,6.25,22.57.25.85,1.03,1.17,1.85,1.05,1.89-.27,2.23-3.16,2.16-4.66-.1-2.08-.87-4.02-1.55-5.97-1.49-4.27-2.5-8.91-3.12-13.39l-1.45,1.9c-.47.02-.42-.44-.23.3.08.31.12.64.18.96.16.88.32,1.76.48,2.64.3,1.68.59,3.37.86,5.05.56,3.37,1.07,6.75,1.54,10.14.2,1.44,2.08,1.25,2.74.36.61-.81,1.6-1.26,2.23-2.08.8-1.03.98-2.3,1.17-3.55.44-2.78.62-5.59.53-8.41-.06-1.73-2.39-1.99-2.95-.4-1.06,3.04-1.59,6.22-1.61,9.45.93-.25,1.86-.5,2.8-.76-1.68-2.79-1.09-6.45-1-9.55.11-3.77.13-7.53-.27-11.28-.2-1.87-3.1-1.96-3,0,.24,4.99.49,9.98.73,14.96.98-.13,1.96-.27,2.95-.4-1.35-4.79-2.71-9.59-4.06-14.38-.52-1.86-3.35-1.08-2.89.8.87,3.54,1.69,7.07,1.43,10.74l1.5-1.5c-1.6.08-.82-2.96-.69-3.82.27-1.72.54-3.44.81-5.15.13-.82.26-1.64.39-2.45.04-.23.27-.82.17-1.02-.47.22-.54.32-.24.29.2,0,.39,0,.59.02,1.62.1,3.23.56,4.7,1.25,1.59.75,2.87-1.01,1.82-2.36s-2.76-1.32-4.32-1.38c-1.81-.06-3.11-1.08-4.33-2.33-2.84-2.91-5.47-5.9-8.62-8.5-1.33-1.1-3.08.24-2.36,1.82,1.46,3.18,3.48,6.06,5.95,8.53,1.2,1.2,3.23-.34,2.36-1.82-.74-1.26-1.48-2.51-2.21-3.77-.86.5-1.73,1.01-2.59,1.51,1.76,2.69,3.45,5.43,5.06,8.22.86-.5,1.73-1.01,2.59-1.51-1.81-2.57-3.62-5.15-5.43-7.72-.79.61-1.57,1.21-2.36,1.82,2.22,2.53,4.73,4.75,7.49,6.68,1.35.95,2.62-.83,2.05-2.05-1.83-3.94-3.64-7.89-5.03-12.01-.51-1.51-3.1-1.38-2.95.4.57,6.55.83,13.12.78,19.69l2.8-.76c-2.03-3.09-3.32-6.49-3.87-10.14l-2.2,1.69c1.95,1,2.85,3.92,3.6,5.83.96,2.42,1.72,4.92,2.49,7.41.5,1.61,2.9,1.31,2.95-.4.13-5.39.26-10.78.4-16.17-.93.25-1.86.5-2.8.76,1.93,2.73,2.77,5.92,3.56,9.12.9,3.67,1.82,7.36,2.25,11.13.21,1.87,3.09,1.97,3,0-.21-4.64-.21-9.29.01-13.93l-2.95.4c.67,1.8.53,3.64.38,5.52-.16,1.92,2.84,1.91,3,0h0Z"/>
      <path class="cls-28" d="M524.13,169.88c-3.12,2.52-6.16,5.21-9.39,7.59-.64.47-1.32.93-2.11,1.09-.84.17-1.72.01-2.57.02-1.78,0-3.47.48-4.99,1.39l1.51,2.59c4.07-2.48,8.18-4.89,12.51-6.89,1.93-.9,4.17-1.44,5.99-2.54,1.47-.88,2.37-2.72,1.48-4.35-2.39-4.37-7.54,2.87-9,4.72-1.35,1.71-2.31,3.79-3.79,5.38-.79.85-1.68,1.32-2.84,1.16s-2.13-.46-3.32-.16c-.78.2-1.26,1.08-1.05,1.85.56,1.98,2.68,3.01,4.47,3.67,2.32.86,4.82.77,7.21,1.34,4.26,1.01,7.97,3.73,12.5,3.58,1.16-.04,1.83-1.24,1.3-2.26-1.05-1.99-2.11-3.98-3.16-5.97-.8-1.5-3.23-.47-2.74,1.16.64,2.16,1.59,4.2,2.86,6.06.78,1.15,2.87.83,2.8-.76-.07-1.55-.22-3.1-.45-4.63-.19-1.25-.21-3.22-1.35-4.03s-2.42,0-2.86,1.15c-.62,1.59-1.03,3.31-1.52,4.95l2.2-.9c-1.74-1-2.18-3.18-2.52-5.01-.47-2.52-.56-5.08-.4-7.63-.75.43-1.5.86-2.26,1.3,1.17.86,1.96,2.22,2.14,3.66.21,1.73-.29,3.38.13,5.12.23-.56.46-1.13.69-1.69-1.66,1.23-3.53,2.07-5.59,2.34-.99.13-4.7.46-4.98-.91l-1.05,1.85c2.53-.61,5.08-1.33,7.06-3.11,1.88-1.69,2.76-4.16,2.14-6.63-.34-1.34-2.04-1.36-2.74-.36-.93,1.31-1.85,2.62-2.78,3.93-.83,1.18-1.4,2.15-.72,3.58,1,2.13,3.17,4.38,5.74,3.46s2.65-4.38.39-5.64c-1.36-.76-2.33-.29-3.24.79-.77.92-1.69,1.99-2.97,2.04l.4,2.95c2.78-.76,5.8-.91,8.33-2.39,2.82-1.65,3.84-4.6,4.54-7.63.43-1.88-2.46-2.68-2.89-.8-.58,2.52-1.25,5-3.79,6.17-2.18,1-4.69,1.13-6.99,1.76-1.6.44-1.32,3.02.4,2.95,2.5-.11,4.21-1.77,5.68-3.65l-1.06.44c.26,0,.29.24.1.22-.3-.02-.51-.12-.76-.3-.37-.28-1.14-1.18-1.12-1.64.01-.3.67-.95.83-1.18.28-.39.56-.79.83-1.18.56-.79,1.11-1.57,1.67-2.36-.91-.12-1.83-.24-2.74-.36,1,3.98-4.31,5.37-7.11,6.04-.83.2-1.21,1.07-1.05,1.85.58,2.85,4.33,3.26,6.69,3.2,2.98-.07,5.89-1.06,8.28-2.84.56-.42.86-.99.69-1.69-.49-2.03.3-4.1-.37-6.16-.59-1.83-1.74-3.28-3.27-4.41-.99-.73-2.19.28-2.26,1.3-.19,3.1.01,6.24.68,9.27.52,2.37,1.54,4.7,3.72,5.95.86.49,1.92.03,2.2-.9.24-.79.48-1.59.72-2.38.1-.32.19-.64.29-.95.11-.38.54-1.01-.03-.93l-1.46-.39c-.15-.35-.14-.26,0,.26.07.31.13.62.18.93.1.55.2,1.11.27,1.67.16,1.18.25,2.37.31,3.57l2.8-.76c-1.13-1.66-1.98-3.42-2.55-5.34-.91.39-1.83.77-2.74,1.16,1.05,1.99,2.11,3.98,3.16,5.97.43-.75.86-1.5,1.3-2.26-3.77.12-7.05-2.06-10.53-3.15-1.91-.6-3.87-.71-5.83-1.02-1.01-.16-2.02-.39-2.95-.81-.62-.28-1.78-.72-1.97-1.41l-1.05,1.85c.88-.22,1.87.25,2.76.31s1.7-.12,2.49-.47c1.52-.68,2.61-1.93,3.53-3.29,1.09-1.6,2.06-3.23,3.32-4.72.57-.67,1.16-1.33,1.75-1.98.3-.33.6-.65.9-.97.24-.26.93-.74,1.05-1.05.34-.88-1.04.14-1.28.25-.81.35-1.66.63-2.48.97-1.75.73-3.47,1.51-5.16,2.36-3.5,1.76-6.88,3.75-10.23,5.79-1.65,1-.15,3.58,1.51,2.59,1.71-1.02,3.27-.91,5.18-.94s3.36-.7,4.81-1.8c3.29-2.51,6.46-5.21,9.67-7.82,1.5-1.22-.63-3.33-2.12-2.12h0Z"/>
      <polyline class="cls-16" points="524.57 192.21 524.23 194.38 523.4 197.86 519.26 205.48 515.79 209.95 512.81 213.59 508.34 216.9 504.96 219.88 501.71 222.86 496.74 226.84 492.94 229.98 487.64 236.94 486.81 242.24 486.64 248.03 477.11 248.03 476.21 248.03 475.55 241.08 476.54 235.12 478.2 230.64 480.35 225.18 482.5 221.54 484.56 215.42 486.35 211.33 491.14 204.25 492.74 201.87 495.68 197.46 498.75 191.7 500.43 189.21 503.39 183.81"/>
      <polyline class="cls-16" points="476.21 248.03 474.33 253.53 472.08 256.5 468.29 256.5 464.9 258.1 464.9 260.89 464.9 262.68 468.89 262.68 471.48 261.68 473.49 260.76 476.39 262.41 478.31 263.51 481.06 263.51 484.46 263.51 486.17 262.85 486.55 260.86 486.55 258.3 486.55 255.77 486.55 253.2 486.55 251.49 486.55 249.51 486.64 248.03"/>
      <polyline class="cls-16" points="473.81 261.54 472.32 264.26 471.58 266.32 471.58 268.37 471.58 271.01 473.81 272.47 475.77 271.45 475.77 269.69 475.77 267.01 475.77 264.56 476.39 262.41"/>
      <polyline class="cls-16" points="478.46 263.9 478.1 266.22 478.1 267.86 478.1 269.26 478.1 270.7 478.1 271.74 478.46 272.47 479.06 272.82 480.02 272.82 480.78 272.47 480.98 271.5 481.22 269.74 481.42 268.86 481.42 267.5 481.42 266.38 481.42 264.38 481.42 263.9"/>
      <polyline class="cls-16" points="483.61 263.9 483.61 265.88 483.61 267.16 483.61 268.36 483.61 268.97 483.61 270.32 484.08 271.23 484.92 272.64 485.76 273.04 486.95 273.04 486.95 272.32 487.14 270.97 487.14 269.74 487.14 268.17 486.45 266.36 486.3 265.27 485.76 263.9 485.67 263.04"/>
      <polyline class="cls-16" points="486.9 260.82 488.31 262.11 489.34 262.78 490.27 263.04 491.48 263.33 491.93 263.33 492.52 262.63 492.52 262.07 492.52 261.04 491.71 260.56 490.78 260.04 488.79 259.08 487.14 258.49"/>
      <polyline class="cls-16" points="646.97 228.16 643.97 230.06 640.78 232.46 639.46 235.53 640.56 239.25 643.97 242.1 646.97 244.07 651.29 246.04 655.88 246.04 660.04 246.04 662.89 244.51 662.89 241 662.89 239.03 662.24 234.3"/>
      <polyline class="cls-16" points="642.89 230.05 641.3 228.16 639.46 226.69 637.66 226.13 634.96 226.13 633.09 226.13 631.6 227.06 631.6 229.4 632.63 230.61 634.68 231.63 636.36 232.47 638.13 233.22 640.12 234.01"/>
      <path class="cls-16" d="M633.89,243.6c-2.66,3.75-4.01,6.33-3.02,7.31.99.98,3.79-.16,6.02-5.13,1.94-4.3,6.46-5.29,3.02-7.31-3.67-2.16-6.42,5.68-6.02,5.13Z"/>
      <path class="cls-16" d="M641.71,250.61c-4.18,7.47-2.39,8.68-.93,8.81,1.46.13,3.62-1.69,4.62-7.56,1.56-9.14,1.8-8.17.93-8.81-2.18-1.6-1.87,2.64-4.62,7.56Z"/>
      <ellipse class="cls-16" cx="653.17" cy="254.3" rx="1.8" ry="8.36"/>
      <polyline class="cls-15" points="543.73 271.6 538.57 279.51 535.18 282.61 533.48 286.28 531.76 290.89 529.71 294.5 526.34 299.08 524.18 302.69 520.93 307.5 518.76 310.87 515.75 315.32 512.99 320.26 511.9 322.18 510.58 324.95 508.9 327.84 507.45 330.84 505.53 334.57 504.2 337.82 503 340.83 502.16 342.88 507.09 341.91 511.06 341.55 515.27 340.59 519.97 339.87 524.42 339.39 527.31 339.15 531.04 338.43 534.77 337.94 536.93 337.58 539.82 337.22 545 336.62 547.28 331.93 550.29 327.48 553.46 320.56 555.73 317.2 558.97 313.49 561.25 308.69 564.48 303.18 566.88 298.39 568.44 296.35 572.51 296.59 576.35 295.87 579.82 295.51 583.89 294.91 586.53 294.31 589.41 293.95 590.84 293.71 591.32 296.71 591.32 299.11 592.88 302.46 594.32 305.58 595.16 308.33 596.6 312.29 597.91 315.4 599.59 319 601.03 323.19 601.99 327.39 603.55 330.98 605.1 333.5 609.3 331.46 611.81 330.86 613.97 330.86 615.05 331.94 618.41 332.3 624.64 331.22 627.75 331.1 631.11 330.5 638.3 329.9 640.81 330.02 643.81 329.66 645.97 329.06 645.97 325.47 645.97 319.84 645.97 313.61 645.97 309.65 645.25 305.94 644.41 303.78 644.17 301.98 643.69 299.23 642.98 295.87 642.16 294.31 641.56 291.32 640.69 288.68 635.9 284.97 633.86 283.17 632.07 280.89 627.87 278.14 623.08 275.62 620.32 273.46 616.25 270.95 613.97 269.15 612.05 267.59 612.07 266.27"/>
      <polyline class="cls-19" points="512.61 341.73 512.22 343.72 511.95 345.61 511.45 347.49 511.45 350.04 510.95 351.71 510.39 353.65 508.96 359.67 508.34 362.15 507.72 365.39 507.72 369.02 506.72 374.42 506.33 376.35 505.56 379.21 505.33 381.76 504.63 385 504.15 386.04 503.24 388.01 502.39 390.79 501.39 394.34 500.46 396.89 499.31 400.06 498.77 403.84 498.23 407.93 497.14 413.11 496.6 417.04 495.6 420.75 494.6 425 493.45 431.55 492.55 434.13 491.77 438.79 491 441.63 490.35 444.99 490.09 447.06 494.74 447.83 499.79 447.83 503.79 447.83 508.06 447.83 511.42 447.19 513.36 446.93 513.36 442.92 514.52 437.49 515.3 434.78 516.07 431.68 516.07 429.48 516.72 425.73 517.37 421.85 517.37 418.75 518.14 413.58 519.44 408.02 520.6 403.62 521.63 399.36 522.54 395.61 523.31 392.89 523.31 390.31 523.31 388.89 518.01 389.53 515.69 389.4 511.81 389.02 506.7 388.24 505.47 386.69"/>
      <polyline class="cls-19" points="523.83 389.06 524.63 385.53 524.63 382.8 525.48 379.63 526.27 376.15 527.07 372.5 527.07 368.23 528.02 363.63 528.02 359.83 528.97 356.35 528.97 349.06 530.07 344.94 530.07 341.73 531.04 338.43"/>
      <line class="cls-19" x1="505.4" y1="387.27" x2="504.15" y2="386.04"/>
      <path class="cls-28" d="M505.5,402.02c.36,4.22-.09,8.4-1.37,12.44.98.13,1.96.27,2.95.4-.31-2.58,1.38-4.7,2.97-6.55,1.96-2.27,4-4.48,6.02-6.69-.79-.61-1.57-1.21-2.36-1.82-2.78,5.52-5.44,11.1-7.98,16.73-.33.74-.21,1.61.54,2.05.64.38,1.72.2,2.05-.54,2.54-5.63,5.2-11.21,7.98-16.73.73-1.45-1.15-3.14-2.36-1.82-2.22,2.41-4.48,4.81-6.57,7.33-1.87,2.25-3.67,4.96-3.31,8.03.19,1.62,2.4,2.11,2.95.4,1.35-4.27,1.86-8.78,1.48-13.24-.07-.81-.64-1.5-1.5-1.5-.76,0-1.57.69-1.5,1.5h0Z"/>
      <path class="cls-28" d="M503.74,405.19c-.33,2.95-.65,5.89-.98,8.84h3c-.46-4.49-.08-8.82.71-13.24.75-4.18,1.1-8.23-.18-12.35-.49-1.56-3.02-1.35-2.95.4.08,1.77-.96,3.45-1.57,5.06-.64,1.71-1.18,3.46-1.62,5.24-.87,3.53-1.32,7.17-1.4,10.81-.04,1.93,2.96,1.93,3,0,.07-3.69.57-7.33,1.52-10.9.47-1.77,1.05-3.51,1.72-5.21.65-1.64,1.43-3.19,1.35-5.01l-2.95.4c1.28,4.1.65,8.02-.07,12.16s-1,8.39-.56,12.63c.2,1.93,2.79,1.92,3,0,.33-2.95.65-5.89.98-8.84.21-1.92-2.79-1.9-3,0h0Z"/>
      <path class="cls-28" d="M498.29,410.34c.04.76-.07,1.39-.34,2.1l2.74-.36c.15.26.02.11.21-.24.13-.24.23-.51.31-.77.19-.6.18-1.13.08-1.74l-2.89.8c.39,1.73-.09,3.42-.54,5.09s-.9,3.41-.91,5.19h3c-.2-1.88-.12-3.72.31-5.56l-2.95-.4c.06,6.26-1.4,12.4-1.58,18.64h3c-.14-3.92-.02-7.84.38-11.74.17-1.68-2.58-2.03-2.95-.4-1.18,5.21-2.26,10.44-3.23,15.69-.35,1.89,2.54,2.7,2.89.8.98-5.25,2.05-10.48,3.23-15.69-.98-.13-1.96-.27-2.95-.4-.4,3.9-.52,7.82-.38,11.74.07,1.93,2.94,1.94,3,0,.18-6.25,1.64-12.38,1.58-18.64-.02-1.65-2.56-2.09-2.95-.4-.49,2.1-.64,4.22-.42,6.36.2,1.88,2.99,1.97,3,0,.02-3.81,2.23-7.19,1.35-11.08-.43-1.91-3.21-1.07-2.89.8.06.33-.52,1.12-.6,1.48-.17.71-.07,1.35.29,1.98.7,1.2,2.3.8,2.74-.36.36-.94.5-1.89.45-2.89-.1-1.92-3.1-1.93-3,0h0Z"/>
      <path class="cls-28" d="M492.86,434.05c-.31,1.92-.61,3.84-.92,5.77l-.45,2.79c-.09.57-.18,2.07-.45,2.28-.91.71-.34,2.26.66,2.51,1.57.39,3.12.3,4.71.15,1.69-.17,3.39-.32,5.09-.45,3.33-.25,6.67-.43,10.01-.53,1.93-.06,1.93-3.06,0-3-3.21.1-6.43.26-9.63.5-1.57.12-3.14.25-4.71.4-1.55.15-3.14.42-4.67.04.22.84.44,1.67.66,2.51.73-.56.88-1.45,1.02-2.3.18-1.12.36-2.23.53-3.35l1.04-6.51c.13-.8-.21-1.61-1.05-1.85-.71-.2-1.72.24-1.85,1.05h0Z"/>
      <path class="cls-28" d="M512.02,444.49c-1.38-.2-2.69-.04-4.05.23-.56.11-1.12.27-1.69.31.4-.03-.13.01-.21.02-.12.01-.24.02-.36.02-.32.01-.65,0-.97-.03-.78-.08-1.53.75-1.5,1.5.04.88.66,1.41,1.5,1.5,1.23.13,2.46-.12,3.66-.36.28-.06.56-.11.84-.16.12-.02.24-.04.36-.06.08-.01.16-.03.24-.04-.2.03-.21.03-.04,0,.28-.03.56-.05.84-.06.12,0,.24,0,.36,0,.08,0,.6.07.2,0,.42.06.78.07,1.16-.15.31-.18.61-.54.69-.9.16-.71-.22-1.72-1.05-1.85h0Z"/>
      <path class="cls-28" d="M512.5,443.68c.02.21.02.23.02.06-.03.19-.03.23,0,.12.03-.07.16-.49.03-.14.12-.31.27-.6.38-.91.19-.54.26-1.13.34-1.69.18-1.2.36-2.39.54-3.59.06-.41.07-.78-.15-1.16-.18-.31-.54-.61-.9-.69-.71-.16-1.72.22-1.85,1.05-.2,1.29-.39,2.57-.59,3.86-.04.29-.09.59-.15.88-.03.14-.07.29-.11.43-.03.08-.05.16-.08.24.07-.16.08-.19.04-.09-.37.82-.61,1.53-.42,2.44.16.77,1.11,1.29,1.85,1.05.82-.26,1.22-1.02,1.05-1.85h0Z"/>
      <path class="cls-28" d="M513.88,437.32c-.11-1.24.1-2.33.74-3.4-.93-.25-1.86-.5-2.8-.76-.01.72-.12,1.39-.33,2.09.98.13,1.96.27,2.95.4-.07-.78.22-1.46.46-2.19.25-.78.46-1.58.62-2.39.33-1.67.49-3.39.45-5.09-.02-.81-.68-1.5-1.5-1.5s-1.52.69-1.5,1.5c.04,1.59-.09,3.16-.43,4.72s-1.25,3.27-1.1,4.95c.07.74.52,1.38,1.3,1.47s1.43-.34,1.65-1.07c.28-.94.42-1.91.44-2.89.02-1.51-2.04-2.02-2.8-.76-.88,1.47-1.31,3.21-1.15,4.92.07.81.64,1.5,1.5,1.5.76,0,1.57-.69,1.5-1.5h0Z"/>
      <path class="cls-28" d="M516.17,425.97c-.08-1.23.04-2.46.15-3.68s.23-2.49.35-3.74l-2.95.4c.03.18.03.19,0,.02.01.09.02.19.03.28.01.14.03.28.04.43.03.36.04.71.05,1.07.01.69,0,1.38-.02,2.07-.02.78.7,1.54,1.5,1.5s1.48-.66,1.5-1.5c.04-1.57.03-3.11-.21-4.67-.11-.73-.98-1.16-1.65-1.07-.78.1-1.23.72-1.3,1.47-.12,1.25-.23,2.49-.35,3.74s-.23,2.45-.15,3.68c.05.78.65,1.54,1.5,1.5.77-.03,1.55-.66,1.5-1.5h0Z"/>
      <path class="cls-28" d="M515.03,403.76c.26,4.83-.27,9.59-1.59,14.24h2.89c-.51-1.98-.41-4.16-.49-6.19-.08-2.22-.13-4.43-.15-6.65-.02-1.68-2.49-2.05-2.95-.4-1.64,5.98-2.8,12.06-3.52,18.22.98-.13,1.96-.27,2.95-.4-.63-2.25.08-4.88.41-7.14.37-2.53.79-5.05,1.27-7.56l-2.95-.4c-.48,6.07-1.46,12.08-2.9,18,.91-.12,1.83-.24,2.74-.36-.52-.69-.37-1.73-.4-2.56-.05-1.13-.08-2.27-.11-3.41-.05-2.19-.08-4.38-.11-6.57-.07-4.46-.2-8.92-.64-13.36-.19-1.88-3.06-1.96-3,0,.02.78.05,1.56.07,2.34.06,1.93,3.06,1.93,3,0-.02-.78-.05-1.56-.07-2.34h-3c.47,4.76.58,9.55.65,14.33.04,2.35.07,4.71.14,7.06.05,1.84-.28,4.46.88,6.02.72.96,2.41,1.01,2.74-.36,1.51-6.17,2.51-12.46,3.01-18.8.13-1.67-2.63-2.06-2.95-.4-.54,2.83-1.01,5.68-1.41,8.54-.36,2.54-.97,5.23-.27,7.76.48,1.74,2.76,1.2,2.95-.4.69-5.89,1.84-11.71,3.41-17.42-.98-.13-1.96-.27-2.95-.4.03,2.38.08,4.76.17,7.14.08,2.15.04,4.4.58,6.5.37,1.45,2.49,1.4,2.89,0,1.39-4.89,1.97-9.97,1.7-15.04-.1-1.92-3.1-1.93-3,0h0Z"/>
      <path class="cls-28" d="M502.98,399.47c-.02,3.86-.75,7.61-2.14,11.21.98.13,1.96.27,2.95.4-.28-2.65.53-5.29,1.07-7.86.54-2.59,1.08-5.19,1.63-7.78-.98-.13-1.96-.27-2.95-.4-.22,2.58-.87,5.09-1.34,7.64-.41,2.26-.63,4.53-.7,6.83-.15,4.7.1,9.44-1.32,13.99-.58,1.85,2.32,2.64,2.89.8,1.45-4.65,1.28-9.52,1.41-14.33.07-2.51.3-4.97.79-7.43s1.04-4.96,1.26-7.49c.15-1.68-2.6-2.05-2.95-.4-.58,2.75-1.15,5.5-1.73,8.25-.56,2.67-1.37,5.44-1.08,8.19.18,1.7,2.32,2.01,2.95.4,1.48-3.83,2.23-7.9,2.25-12.01,0-1.93-2.99-1.93-3,0h0Z"/>
      <path class="cls-28" d="M500.49,411.77c.19,4.13-.67,8.14-1.47,12.17-.83,4.16-1.67,8.32-2.5,12.48-.38,1.89,2.51,2.69,2.89.8.87-4.32,1.73-8.65,2.6-12.97.82-4.11,1.68-8.26,1.48-12.48-.09-1.92-3.09-1.93-3,0h0Z"/>
      <path class="cls-28" d="M496.39,433.69c-.07,3.16-.76,6.26-2.09,9.14l2.8.76c-.3-2.66.01-5.32,1.09-7.79l-2.74-1.16c-1.04,3.5-2.08,7-3.11,10.5-.31,1.06.76,2.2,1.85,1.85,1.62-.53,3.21-1.14,4.78-1.81.73-.31,1.53-.83,2.33-.91.74-.08,1.55.22,2.28.32,1.82.26,7.89,1.28,7.1-2.17-.11-.47-.56-.95-1.05-1.05-2.1-.4-4.2-.82-6.3-1.21-.82-.15-1.65-.31-2.49-.23-.76.07-1.94.87-2.62.7l.9,2.2c1.54-2.03,3.71-2.45,6.04-1.72s4.48,1.38,6.67.13c.57-.33.87-1.06.69-1.69-.54-1.92-.36-3.88-.12-5.84s.54-4.08.81-6.11c.55-4.1,1.1-8.21,1.64-12.31.09-.67-.53-1.25-1.1-1.45-1.35-.46-2.35.59-2.79,1.76-.54,1.44-.93,2.94-1.44,4.39-1.04,2.99-2.3,5.88-4.08,8.5.68-.18,1.37-.36,2.05-.54-.13-.09-.14-2.66-.18-3.08-.09-1.12-.18-2.24-.27-3.37-.19-2.4-.38-4.81-.58-7.21-.15-1.93-2.83-1.93-3,0-.44,4.96-.67,9.93-.68,14.91h3c-.11-2.22-.22-4.43-.34-6.65-.08-1.61-2.57-2.13-2.95-.4-.97,4.49-3.01,8.7-3.17,13.36-.06,1.65,2.66,2.09,2.95.4.47-2.79,1.11-5.54,1.91-8.25-.98-.13-1.96-.27-2.95-.4.2,1.99-.21,3.99-.48,5.96s-.55,3.97-.82,5.95c.98.13,1.96.27,2.95.4.13-1.47.94-2.75,1.7-3.97.71-1.13,1.44-2.25,2.25-3.32,1.61-2.13,3.53-3.98,5.92-5.19-.75-.43-1.5-.86-2.26-1.3-.2,1.63-.92,3.26-1.43,4.82s-1.07,3.25-1.6,4.88c.98.13,1.96.27,2.95.4.03-2.86.28-5.7.77-8.52.33-1.88-2.54-2.7-2.89-.8-.74,4.03-1.71,8-2.92,11.92.98.13,1.96.27,2.95.4.09-2.93.15-5.85-.21-8.76-.19-1.51-1.87-2-2.8-.76-1.57,2.1-4.05,4.91-3.16,7.73.35,1.1,1.66,1.44,2.51.66.51-.47,1.06-.81,1.71-1.04-.62-.62-1.23-1.23-1.85-1.85-.2,1.02-.47,2.02-.89,2.98-.47,1.07.33,2.69,1.69,2.2s2.75-.88,4.16-1.21c-.62-.35-1.23-.7-1.85-1.05.09.29.12.59.1.9.64-.24.77-.38.38-.4-.25-.16-.8-.13-1.1-.19-.79-.15-1.58-.32-2.35-.55-1.52-.46-2.85-1.15-3.9-2.35-.45-.51-1.25-.53-1.82-.23-.46.24-.84.53-1.24.85-.53.42-.52,1.27-.23,1.82.24.46.37.9.46,1.4.28,1.57,2.46,1.28,2.89,0,.74-2.19,2.36-4.11,3.57-6.06,1.26-2.02,2.46-4.08,3.61-6.16,1.04-1.89,2.43-3.95,3.06-6.03.27-.88.28-1.85-.28-2.62-.28-.39-.62-.65-1.04-.86-.33-.17-.75-.19-.98-.48-.75-.94-2.2-.31-2.51.66-.43,1.35-.65,2.74-.68,4.15-.04,1.93,2.96,1.93,3,0,.02-1.16.22-2.25.58-3.36-.84.22-1.67.44-2.51.66.28.35.6.55,1,.74.24.11.75.5.63-.01.06.26-.3.76-.41.99-.28.57-.57,1.13-.87,1.7-.95,1.83-1.94,3.64-2.98,5.43-1.03,1.79-2.11,3.55-3.22,5.29s-2.21,3.26-2.86,5.16h2.89c-.13-.76-.4-1.44-.76-2.12l-.23,1.82c.2-.15.41-.28.64-.38l-1.82-.23c1.85,2.11,4.53,3.07,7.22,3.61,1.19.23,2.87.8,3.94.02,1.21-.88,1.01-2.68.73-3.96-.18-.82-1.09-1.22-1.85-1.05-1.41.32-2.8.72-4.16,1.21l1.69,2.2c.53-1.2.94-2.4,1.19-3.69.2-1.03-.68-2.25-1.85-1.85s-2.14.98-3.04,1.81l2.51.66c-.31-.98.46-1.93.98-2.72.6-.92,1.23-1.82,1.89-2.7-.93-.25-1.86-.5-2.8-.76.36,2.91.3,5.83.21,8.76-.05,1.73,2.46,1.99,2.95.4,1.21-3.91,2.18-7.89,2.92-11.92l-2.89-.8c-.53,3.08-.84,6.19-.87,9.31-.02,1.74,2.43,1.98,2.95.4.58-1.78,1.17-3.56,1.75-5.35s1.17-3.36,1.39-5.15c.15-1.22-1.36-1.75-2.26-1.3-2.86,1.45-5.09,3.73-7,6.27-1.94,2.58-4.06,5.5-4.36,8.8-.15,1.66,2.72,2.08,2.95.4.3-2.14.59-4.29.89-6.43.28-2.07.74-4.19.53-6.28-.16-1.62-2.44-2.11-2.95-.4-.8,2.71-1.44,5.46-1.91,8.25.98.13,1.96.27,2.95.4.15-4.35,2.16-8.35,3.06-12.56l-2.95-.4c.11,2.22.22,4.43.34,6.65.1,1.92,3,1.94,3,0,.01-4.98.24-9.95.68-14.91h-3c.24,3.05.49,6.09.73,9.14.12,1.44.2,2.89.35,4.33.12,1.17.41,2.11,1.43,2.79.71.47,1.62.1,2.05-.54,1.43-2.11,2.53-4.39,3.47-6.75.46-1.16.88-2.33,1.27-3.52.19-.56.37-1.11.55-1.67.11-.35.23-.7.34-1.05.04-.12.08-.25.12-.38.17-.41-.1-.39-.81.08l-1.1-1.45c-.57,4.27-1.14,8.54-1.71,12.8-.53,3.98-1.63,8.3-.52,12.26.23-.56.46-1.13.69-1.69-1.18.67-2.54.17-3.73-.22-1.27-.42-2.58-.82-3.93-.73-2.54.18-4.62,1.64-6.12,3.62-.59.77.04,1.99.9,2.2s1.62.12,2.47-.21c.98-.38,1.62-.44,2.65-.26,2.11.37,4.2.81,6.3,1.21l-1.05-1.05.04.18.39-1.46c.04-.05-1.41-.11-1.67-.12-.62-.01-1.25-.04-1.87-.1-1.25-.12-2.5-.59-3.76-.43s-2.39.85-3.53,1.33c-1.31.55-2.64,1.03-3.98,1.47l1.85,1.85c1.04-3.5,2.08-7,3.11-10.5.47-1.59-2.05-2.74-2.74-1.16-1.3,2.95-1.86,6.08-1.5,9.3.15,1.3,2.1,2.27,2.8.76,1.55-3.37,2.41-6.94,2.5-10.65.05-1.93-2.95-1.93-3,0h0Z"/>
      <path class="cls-28" d="M517.53,398.23c.11,1.95-.26,3.71-.87,5.54-.32.95-.59,1.9-.68,2.9-.08.86,0,1.63-.3,2.4s.32,1.65,1.05,1.85c.85.23,1.55-.29,1.85-1.05.35-.9.32-1.87.37-2.82s.38-1.81.67-2.68c.67-1.99,1.03-4.04.91-6.14-.04-.81-.66-1.5-1.5-1.5-.78,0-1.54.69-1.5,1.5h0Z"/>
      <path class="cls-28" d="M509.73,400.14c.04.62-.03,1.14-.32,1.7.93.25,1.86.5,2.8.76.34-3.37.4-6.75.17-10.13-.05-.74-.53-1.38-1.3-1.47-.67-.08-1.53.33-1.65,1.07-.72,4.46-1.44,8.92-2.16,13.39.98.13,1.96.27,2.95.4-.51-4.35-1.02-8.7-1.52-13.04l-2.95.4c.33,1.07.65,2.15.98,3.22.57,1.86,3.27,1.09,2.89-.8-.41-2.09-.83-4.17-1.24-6.26l-2.74,1.16c.85,1.12,1.94,1.49,3.31,1.57.64.04,1.28,0,1.92.1.71.11,1.41.3,2.12.44,3.05.63,6.15.57,9.18-.18-.56-.73-1.13-1.47-1.69-2.2-1.49,2.93-2.95,5.95-3.44,9.24-.11.74.12,1.47.87,1.77.65.26,1.53.06,1.87-.61,1.02-2.01,2.04-4.01,3.06-6.02-.86-.5-1.73-1.01-2.59-1.51-.89,1.92-1.53,3.91-1.84,6l1.85-1.05c-.44-.18-.92-.36-1.3-.65-.47-.36-.6-.87-.75-1.43-.36-1.37-.53-2.77-.58-4.18l-2.95.4c.45,1.66-.65,3.62-1.21,5.15-.7,1.9-1.41,3.8-2.11,5.71-.51,1.39,1.55,2.58,2.51,1.46,1.43-1.68,2.74-3.46,3.87-5.35s2.31-4,2.05-6.27c-.19-1.65-2.37-2.08-2.95-.4-.6,1.75-.96,3.57-1.1,5.42-.11,1.49.04,3.12-.73,4.46l2.74.36c-.42-1.59-.84-3.19-1.42-4.73-.37-.96-1.33-2.51-.72-3.51.54-.89-.02-1.88-.9-2.2-.97-.36-1.93-.71-2.9-1.07-1.12-.41-2.1.82-1.85,1.85.42,1.7.34,3.46.6,5.19.24,1.59.81,3.03,1.87,4.26.98,1.13,2.97-.07,2.51-1.46-1.26-3.81-3.21-7.28-5.79-10.35-.8-.95-2.7-.21-2.56,1.06s.38,2.5.81,3.71c.27.76,1.02,1.27,1.85,1.05.74-.2,1.32-1.08,1.05-1.85-.34-.94-.6-1.91-.71-2.91-.85.35-1.71.71-2.56,1.06,2.23,2.66,3.93,5.74,5.02,9.03.84-.49,1.67-.97,2.51-1.46-.78-.9-1.02-2.17-1.13-3.32-.15-1.61-.17-3.22-.56-4.8l-1.85,1.85c.97.36,1.93.71,2.9,1.07l-.9-2.2c-.98,1.61-.55,3.41.11,5.05.72,1.79,1.24,3.63,1.73,5.5.33,1.24,2.1,1.47,2.74.36.91-1.6,1.01-3.38,1.09-5.18s.43-3.66,1.03-5.43c-.98-.13-1.96-.27-2.95-.4.21,1.85-.87,3.49-1.79,5.01s-2.05,3.08-3.25,4.49l2.51,1.46c.78-2.1,1.56-4.2,2.33-6.31.73-1.98,1.57-4,.99-6.14-.44-1.61-3-1.32-2.95.4.06,1.91.26,3.99.93,5.79.69,1.85,2.15,2.66,3.89,3.36.69.28,1.74-.31,1.85-1.05.27-1.82.76-3.61,1.53-5.29.34-.73.21-1.62-.54-2.05-.67-.39-1.68-.19-2.05.54-1.02,2.01-2.04,4.01-3.06,6.02.91.39,1.83.77,2.74,1.16.45-3.05,1.76-5.8,3.14-8.52.59-1.16-.38-2.53-1.69-2.2-2.37.59-4.87.71-7.28.24-1.24-.24-2.47-.58-3.74-.67-.47-.03-.93-.01-1.4-.04-.2-.01-.36-.04-.56-.08-.16-.03-.37-.28-.16,0-1.01-1.33-3.09-.6-2.74,1.16.41,2.09.83,4.17,1.24,6.26l2.89-.8c-.33-1.07-.65-2.15-.98-3.22-.22-.71-.9-1.19-1.65-1.07-.67.1-1.39.72-1.3,1.47.51,4.35,1.02,8.7,1.52,13.04.09.74.5,1.38,1.3,1.47.67.08,1.53-.33,1.65-1.07.72-4.46,1.44-8.92,2.16-13.39-.98-.13-1.96-.27-2.95-.4.22,3.38.17,6.76-.17,10.13-.15,1.49,2.14,2.03,2.8.76.52-1.01.79-2.07.72-3.21-.12-1.92-3.12-1.93-3,0h0Z"/>
      <path class="cls-28" d="M611.42,383.32v1.37h3c-.08-1.07-.35-2.02-.89-2.95-.7-1.22-2.94-.78-2.8.76.64,6.82.59,13.67-.15,20.49h3c-.51-4.33-.41-8.7.38-12.99l-2.89-.8c-1.35,9.52-1.85,19.12-1.44,28.72.08,1.92,3.08,1.93,3,0-.4-9.32.02-18.68,1.33-27.92.26-1.86-2.53-2.73-2.89-.8-.85,4.56-1.04,9.18-.49,13.79.23,1.92,2.79,1.94,3,0,.73-6.81.78-13.67.15-20.49-.93.25-1.86.5-2.8.76.27.46.44.9.48,1.44.15,1.9,3,1.96,3,0v-1.37c0-1.93-3-1.93-3,0h0Z"/>
      <path class="cls-28" d="M609.59,418.28c-.13,1.97-.52,3.91-1.14,5.79-.3.9-.64,1.79-1.06,2.65-.21.44-.43.87-.67,1.3-.1.19-.21.38-.32.56-.08.14-.17.28-.25.42-.09.17-.11.19-.05.04l.76-.2c.27,0,.27.35.43.18.04-.04.06-.29.08-.36.1-.28.31-.55.5-.78.51-.62,1.11-1.16,1.62-1.78.6-.73,1.03-1.54,1.51-2.35.31-.53.83-1.47,1.53-1.55l-1.5-1.5c.02,2.55-1.42,4.75-2.74,6.82-.63.99.2,2.23,1.3,2.26,4.83.11,9.66.05,14.49-.2.77-.04,1.56-.66,1.5-1.5-.29-4.21-.16-8.43.38-12.62.1-.8-.76-1.5-1.5-1.5-.9,0-1.4.69-1.5,1.5-.54,4.19-.66,8.41-.38,12.62l1.5-1.5c-4.83.24-9.66.31-14.49.2.43.75.86,1.5,1.3,2.26,1.62-2.54,3.17-5.23,3.15-8.34,0-.74-.69-1.59-1.5-1.5-1.5.17-2.63.91-3.52,2.12-.79,1.06-1.26,2.28-2.16,3.26-1.52,1.65-3.89,4.35-1.73,6.54,2.69,2.73,4.71-2.39,5.5-4.26,1.14-2.73,1.78-5.61,1.98-8.56.13-1.93-2.87-1.92-3,0h0Z"/>
      <path class="cls-28" d="M625.83,415.27c.11-3.21.22-6.42.33-9.63s.31-6.02,1.07-9c.47-1.87-2.42-2.67-2.89-.8-.78,3.1-1.05,6.24-1.16,9.42s-.23,6.67-.34,10c-.07,1.93,2.93,1.93,3,0h0Z"/>
      <path class="cls-28" d="M627.27,395.14c.47-3.74.81-7.49,1.01-11.25.09-1.6-2.01-1.89-2.8-.76.44-.23.46-.31.04-.25h-.5c-.5-.02-1-.03-1.5-.05-1.08-.02-2.17-.05-3.25-.07-2.08-.05-4.17-.09-6.25-.14-1.65-.04-2.1,2.69-.4,2.95.53.08,1.06.16,1.6.24.87.13,1.99-.37,1.9-1.45-.15-1.68-1.3-2.91-3.04-2.9-1.64,0-2.11,2.62-.4,2.95,2.01.39,4.03.78,6.04,1.16.97.19,1.93.37,2.9.56.45.09.92.14,1.35.27.13.03.26.06.38.11.31.27.38.19.2-.23.62-.35,1.23-.7,1.85-1.05-2.42-.43-4.82-.52-7.26-.17-1.94.28-4.31,1.22-6.16.2-1.69-.93-3.2,1.65-1.51,2.59,1.87,1.04,3.79,2.12,4.27,4.38s.18,4.98-.15,7.29h2.89c-.67-2.79-.93-5.61-.8-8.47.09-1.96-2.81-1.89-3,0-.77,7.78-1.18,15.59-1.23,23.41h3c-.22-4.77-.43-9.53-.65-14.3-.09-1.93-2.89-1.93-3,0-.2,3.68-.4,7.36-.6,11.04-.19,3.46-.21,6.98-1.42,10.28-.42,1.15.82,2.05,1.85,1.85,1.32-.27,2.36-1.06,3.06-2.2-.93-.25-1.86-.5-2.8-.76.03,1.51-1.69,2.77-2.12,4.22-.43,1.45-.03,3.13,1.34,3.94,1.25.74,2.83.58,4.1-.02.67-.32,3.17-2.44,3.77-1.35.43-.75.86-1.5,1.3-2.26-2.56.17-5.01-.14-7.44-.94l.36,2.74c2.29-1.03,4.87-1.32,7.34-.87,1.51.28,2.43-1.33,1.46-2.51-.41-.5-.46-1.08-.31-1.68.19-.72-.24-1.71-1.05-1.85-2.75-.45-5.48-.26-8.1.75l1.85,1.05c-.33-1.99.02-4,.93-5.78-.91-.12-1.83-.24-2.74-.36.57,2.67,1.14,5.34,1.71,8.01.3,1.39,2.66,1.47,2.89,0,1.05-6.57,2.11-13.14,3.16-19.71l-2.95-.4c.32,6.19.65,12.39.97,18.58.1,1.93,2.9,1.93,3,0,.22-4.37.23-8.75.05-13.12h-3c.47,3.51.61,7.04.41,10.58-.08,1.43,2.19,2.13,2.8.76,2.1-4.71,1.98-9.74,1.63-14.78-.18-2.65-.34-5.29-.31-7.95.01-1.41.06-2.83.11-4.24.02-.63-.21-2.47.43-2.86-.75-.43-1.5-.86-2.26-1.3.25,2.15.24,4.3-.11,6.44h2.89c-.3-1.35-.6-2.69-.9-4.04-.24-1.1-.44-2.26-1.27-3.08-1.6-1.57-4-.85-5.78-.07-.7.31-.96,1.44-.54,2.05.91,1.31,1.83,2.63,2.74,3.94s2.66.75,2.8-.76c.11-1.2.21-2.39.32-3.59h-3c-.33,4.67-.42,9.34-.27,14.02.98-.13,1.96-.27,2.95-.4-.55-3.67-.96-7.36-1.25-11.06-.12-1.58-2.57-2.16-2.95-.4-.88,4.16-.37,8.33-.37,12.54,0,2.03-.13,4.05-.75,5.99-.66,2.09-1.99,3.76-1.55,6.07l2.89-.8c-1.18-5.09.25-10.26.24-15.39,0-2.21-.23-4.49-.97-6.59-.65-1.85-1.72-4.64-4.11-4.22-1.03.18-1.27,1.41-.9,2.2,1.04,2.19.56,4.76.29,7.07-.28,2.43-.41,4.86.41,7.21.79,2.25,2.14,4.21,3.29,6.29.62,1.13,1.17,2.3,1.45,3.57.12.54.19,1.09.18,1.65,0,.35-.05.68-.13,1.02-.02.12-.06.24-.11.36-.19.39.08.42.84.08l.74,1.3c.04-.18.1-.36.2-.52.89-1.71-1.7-3.23-2.59-1.51-.35.67-.51,1.29-.61,2.03-.07.51.33,1.05.74,1.3,3.18,1.88,4.08-3.26,3.84-5.28-.38-3.14-2.13-5.73-3.66-8.41-.76-1.34-1.46-2.73-1.71-4.26s-.07-3.09.11-4.59c.34-3.03.67-5.95-.68-8.8l-.9,2.2c-.71-.32-.89-.27-.54.14.14.23.27.46.4.7.22.42.4.84.56,1.29.33.95.57,1.94.7,2.93.25,1.89.19,3.83.05,5.73-.33,4.47-1.05,8.88-.02,13.31.44,1.89,3.26,1.08,2.89-.8-.19-1.01.58-2.05.96-2.94s.69-1.79.9-2.73c.41-1.83.54-3.72.53-5.59,0-3.91-.55-7.88.26-11.74-.98-.13-1.96-.27-2.95-.4.31,3.97.77,7.92,1.36,11.86.25,1.68,3,1.27,2.95-.4-.15-4.68-.06-9.35.27-14.02.14-1.93-2.83-1.9-3,0-.11,1.2-.21,2.39-.32,3.59l2.8-.76c-.91-1.31-1.83-2.63-2.74-3.94l-.54,2.05c.48-.21,1.13-.49,1.67-.46.64.05.63.31.78.92.39,1.64.73,3.29,1.1,4.94.31,1.39,2.65,1.47,2.89,0,.4-2.41.5-4.81.21-7.24-.13-1.07-1.19-1.94-2.26-1.3-2.06,1.26-1.86,3.83-1.93,5.95-.1,3.01-.14,6.02.05,9.03.32,5.26,1.17,10.96-1.05,15.93.93.25,1.86.5,2.8.76.19-3.54.06-7.07-.41-10.58-.25-1.85-3.08-1.99-3,0,.19,4.37.17,8.75-.05,13.12h3c-.32-6.19-.65-12.39-.97-18.58-.08-1.59-2.66-2.16-2.95-.4-1.05,6.57-2.11,13.14-3.16,19.71h2.89c-.57-2.67-1.14-5.34-1.71-8.01-.26-1.24-2.16-1.49-2.74-.36-1.31,2.55-1.7,5.27-1.23,8.09.12.75,1.15,1.32,1.85,1.05,2.09-.81,4.27-1.12,6.5-.75l-1.05-1.85c-.45,1.71-.03,3.25,1.08,4.6l1.46-2.51c-3.34-.61-6.56-.21-9.65,1.17-1.27.57-.75,2.37.36,2.74,2.66.88,5.44,1.24,8.24,1.05,1.13-.08,1.87-1.22,1.3-2.26-.64-1.16-1.83-1.74-3.14-1.76-1.55-.02-2.73.88-4,1.63-.36.21-1.25.78-1.69.46-.41-.3.1-1.05.32-1.4.87-1.38,1.87-2.48,1.83-4.22-.03-1.5-2.01-2.03-2.8-.76-.32.52-.69.71-1.27.82l1.85,1.85c1.24-3.38,1.31-7.03,1.5-10.58.21-3.84.42-7.69.63-11.53h-3c.22,4.77.43,9.53.65,14.3.09,1.92,2.99,1.94,3,0,.05-7.82.46-15.63,1.23-23.41h-3c-.14,3.12.18,6.23.91,9.27.33,1.35,2.68,1.5,2.89,0,.42-2.97.87-6.36.04-9.3-.79-2.81-3.13-4.4-5.55-5.75l-1.51,2.59c2.02,1.11,4.17.88,6.36.47,2.61-.49,5.14-.68,7.77-.21.81.15,1.59-.21,1.85-1.05.78-2.58-2.13-3.47-4.03-3.84-2.98-.57-5.96-1.15-8.94-1.72l-.4,2.95.04-.1c.63-.48,1.27-.96,1.9-1.45-.53-.08-1.06-.16-1.6-.24-.13.98-.27,1.96-.4,2.95,2.67.06,5.33.12,8,.18,1.96.04,4.76.71,6.05-1.16-.93-.25-1.86-.5-2.8-.76-.21,3.76-.54,7.51-1.01,11.25-.24,1.91,2.76,1.89,3,0h0Z"/>
      <polygon class="cls-19" points="610.99 379.61 615.12 381.38 617.49 381.76 619.44 381.76 621.24 381.98 623.57 381.98 625.55 381.98 628.01 381.98 628.92 381.98 630 381.98 629.31 385.99 628.83 388.23 628.7 390.52 628.75 392.5 628.79 394.31 628.87 397.59 628.7 400.2 628.75 402.94 628.77 406.8 628.58 410.7 628.38 415.27 627.6 419.76 627.41 421.81 627.31 425.03 626.78 427.17 626.78 430.87 624.33 431.26 620.1 431.75 617.56 431.75 611.95 431.75 607.91 431.75 603.53 431.75 601.97 429.61 602.94 427.54 604.21 425.71 605.79 422.9 606.74 420.74 607.62 417.52 608.4 415.27 608.4 410.41 608.59 405.24 608.79 400.66 608.89 397.64 609.08 395.39 609.08 392.57 609.37 386.72 609.76 383.89 610.06 380.58 610.99 379.61"/>
      <path class="cls-25" d="M610.51,395.49c5.33-.03,10.67.16,15.98.58.81.06,1.5-.74,1.5-1.5,0-.86-.69-1.44-1.5-1.5-5.32-.42-10.65-.61-15.98-.58-1.93.01-1.93,3.01,0,3h0Z"/>
      <path class="cls-25" d="M608.89,402.83c6.06-.24,12.12-.14,18.17.33,1.93.15,1.92-2.85,0-3-6.05-.46-12.11-.57-18.17-.33-1.92.08-1.93,3.08,0,3h0Z"/>
      <polyline class="cls-16" points="610.51 379.61 611.1 371.35 611.1 365.62 611.1 362.31 611.95 358.59 612.66 355.68 613.66 351.76 613.66 348.45 614.46 344.93 614.46 341.82 615.27 335.19 615.05 331.94 634.75 330.77 634.35 337.9 634.35 340.21 634.35 344.33 633.65 348.55 633.35 352.87 632.94 357.09 632.94 360.5 631.94 363.92 631.14 368.34 630.84 372.76 630.63 376.27 630.13 379.61 630 381.98"/>
      <path class="cls-27" d="M516.98,364.23c-1.44,4.58-2.96,9.14-4.57,13.66.98.13,1.96.27,2.95.4-.31-3.83,1.06-7.42,2.48-10.9s2.95-7.15,3.27-11.06c.16-1.92-2.84-1.91-3,0-.63,7.66-6.4,14.05-5.75,21.96.14,1.69,2.37,2.03,2.95.4,1.61-4.53,3.13-9.08,4.57-13.66.58-1.85-2.32-2.64-2.89-.8h0Z"/>
      <path class="cls-27" d="M511.77,356.83c.07,2.4.06,4.79-.04,7.19.98-.13,1.96-.27,2.95-.4-.14-.53-.28-1.06-.42-1.58l-.2-.76c-.09-.32-.14-.72-.33-1-.3-.46-.72-.74-1.26-.81.03,0-.42-.03-.42,0-.03-.12.55.27.27.06.14.12.18.14.1.07-.08-.08-.05-.05.07.1-.03-.05-.06-.1-.09-.15-.05-.1-.04-.07.04.09-.11-.09-.14-.54-.17-.68-.14-.7-.82-1.03-1.45-1.1-.14-.02-.29-.03-.43-.05-.78-.09-1.53.76-1.5,1.5.04.89.66,1.4,1.5,1.5.14.02.29.03.43.05l-1.45-1.1c.14.69.37,1.35.85,1.88.22.24.48.44.77.57.2.1.36.16.56.2-.13-.03,1.01.14.43,0l-.66-.39.06.07-.39-.66c.33.97.54,2,.8,2.98.19.72.92,1.17,1.65,1.07s1.27-.72,1.3-1.47c.1-2.4.11-4.79.04-7.19-.02-.78-.67-1.54-1.5-1.5s-1.53.66-1.5,1.5h0Z"/>
      <path class="cls-27" d="M508.84,359.22c.46,3.64-.69,7.1-1.3,10.64-.6,3.53-.14,7.26-1.29,10.68-.62,1.83,2.28,2.62,2.89.8,1.2-3.58.7-7.41,1.36-11.08.66-3.66,1.81-7.29,1.33-11.05-.1-.81-.62-1.49-1.5-1.5-.73,0-1.6.7-1.5,1.5h0Z"/>
      <path class="cls-27" d="M506.07,381.05v2.44c0,.38,0,.76,0,1.14,0,.09-.06.59.02.21-.01.08-.03.16-.06.23.08-.18.07-.19-.01-.04.91.12,1.83.24,2.74.36-.23-.69-.56-1.18-1.31-1.37-.23-.06-.45-.07-.68-.05-.06,0-.12.01-.19.02-.54,0-.2.28,1.03.82v.8c.04-.16.04-.17-.01-.04.05-.11.09-.21.14-.32.08-.2.17-.4.25-.6.11-.28.22-.57.31-.85.22-.64.4-1.3.55-1.97.3-1.38.47-2.81.48-4.22,0-.78-.69-1.54-1.5-1.5-.82.04-1.49.66-1.5,1.5,0,.45-.02.91-.06,1.36-.02.2-.04.4-.06.6,0-.01-.05.4-.03.25.02-.14-.02.15-.03.17-.14.9-.35,1.78-.63,2.65-.13.41-.27.81-.43,1.21-.01.03-.15.37-.1.24.05-.13-.14.32-.12.28-.17.41-.24.78-.15,1.23.13.66.63,1.14,1.26,1.33.23.07.46.07.7.05.07,0,.17,0,.24-.02.12-.04-.32-.09-.09,0l-1.05-1.05c.03.09.06.18.09.27.42,1.26,2.01,1.44,2.74.36.54-.8.46-1.81.46-2.72s0-1.84,0-2.76c0-.78-.69-1.54-1.5-1.5s-1.5.66-1.5,1.5h0Z"/>
      <path class="cls-27" d="M514.56,368.94c0,3.21-.75,6.29-2.27,9.12.91.12,1.83.24,2.74.36-.72-3.4-.22-7.08.07-10.51.3-3.64.75-7.27,1.33-10.88-.98-.13-1.96-.27-2.95-.4-.22,5.09-2.25,9.85-3.43,14.75-.58,2.43-1.01,4.89-1.32,7.37-.17,1.33-.29,2.66-.38,4-.07,1.15-.09,2.26-.77,3.24s.26,2.17,1.3,2.26c2.41.19,4.82.31,7.24.32,1.13,0,2.25,0,3.38-.03,1.03-.03,2.27.1,3.25-.25,1.82-.65,1.68-3.73,1.87-5.31.29-2.37.43-4.74.46-7.13.02-1.93-2.98-1.93-3,0-.02,1.91-.12,3.81-.31,5.71-.1.97-.21,1.94-.36,2.91-.01.08-.29,1.37-.23,1.41.9-.39.98-.52.24-.41-.24.01-.48.02-.72.03-3.94.16-7.89.06-11.82-.25.43.75.86,1.5,1.3,2.26,1.4-2.02,1.14-4.77,1.38-7.11.28-2.77.75-5.52,1.4-8.22,1.24-5.18,3.3-10.17,3.53-15.55.07-1.66-2.68-2.09-2.95-.4-.62,3.87-1.11,7.77-1.43,11.68s-.74,7.6.04,11.3c.26,1.26,2.15,1.46,2.74.36,1.77-3.29,2.69-6.9,2.68-10.64,0-1.93-3-1.93-3,0h0Z"/>
      <path class="cls-27" d="M525.06,378.63c.34-1.39,1.05-2.66,1.39-4.05.33-1.39.43-2.84.43-4.27,0-2.81-.4-5.68.45-8.41.57-1.85-2.32-2.64-2.89-.8-.87,2.81-.61,5.73-.56,8.63.02,1.36,0,2.73-.31,4.06-.33,1.4-1.05,2.66-1.39,4.05-.46,1.88,2.44,2.68,2.89.8h0Z"/>
      <path class="cls-27" d="M526.21,368c.84-4.48,1.63-8.98,2.21-13.5.28-2.17.14-4.31.24-6.48.11-2.34.56-4.63,1.09-6.9.44-1.88-2.46-2.68-2.89-.8-.5,2.15-.92,4.31-1.11,6.51-.2,2.25.02,4.51-.21,6.76-.47,4.56-1.37,9.12-2.21,13.63-.35,1.89,2.54,2.7,2.89.8h0Z"/>
      <path class="cls-27" d="M528.72,339.36c-5.34-.79-10.2,1.52-15.44,1.88-.94.06-1.74.91-1.45,1.9,1.5,5.01-.06,10.16-1.55,14.98l2.74-.36c-.76-1.55.37-3.43.85-4.89.56-1.74.58-3.54.52-5.35l-2.56,1.06c.88.91,1,2.24,2.2,2.92s2.79.41,3.88-.47c1.53-1.24,3.21-6.72.14-7.2-.95-.15-1.89.39-1.9,1.45,0,1.44-.02,2.87-.02,4.31l2.8-.76c-.69-1.19-1.38-2.37-2.08-3.56-.7-1.19-2.98-.79-2.8.76.24,1.98.62,3.93,1.24,5.83.44,1.34,1,3.64,2.86,3.38.9-.12,1.35-.78,1.86-1.45.58-.76,1.16-1.53,1.74-2.29,1.26-1.66,2.52-3.31,3.78-4.97-.93-.25-1.86-.5-2.8-.76.35,5.03.56,10.07.61,15.11h3c-.11-5.27.29-10.52,1.23-15.71-.98-.13-1.96-.27-2.95-.4-.06,1.54-.47,2.97-1.21,4.32l2.74.36c-.35-2.05-.49-4.11-.45-6.19.01-.85-.7-1.45-1.5-1.5-1.9-.11-3.78.11-5.6.65-1.26.38-1.45,2.05-.36,2.74,2.99,1.91,6.3.45,9.03-1.17l-2.05-2.05c-1.57,3.19-5.65,4.26-8.21,6.5.85.35,1.71.71,2.56,1.06.08-.77,1.04-1.54,1.48-2.12.58-.77,1.16-1.76.96-2.77-.58-2.89-4.11-.25-5.67-1.42-1.1-.82-2.51.53-2.2,1.69.6,2.29,1.71,4.39,3.26,6.18.72.83,1.54,1.52,2.4,2.19.72.56,1.95,1.34,2.06,2.35.98-.13,1.96-.27,2.95-.4-.67-3.2-.92-6.42-.81-9.69h-3c.23,5.12-.23,10.16-1.16,15.19-.88,4.79-1.77,9.63-.61,14.46.35,1.45,2.52,1.41,2.89,0,1.47-5.64,2.32-11.42,2.55-17.24h-3c0,7.84-1.22,15.59-2.46,23.31.98.13,1.96.27,2.95.4-1.32-10.43,2.06-21.39-2.81-31.25-.56-1.13-2.49-.88-2.74.36-.96,4.81-1.6,9.68-1.93,14.58.98-.13,1.96-.27,2.95-.4-.4-2.77-.64-5.56-.72-8.36-.04-1.3-.05-2.61-.02-3.91.02-1.21.02-2.32-.6-3.39-.76-1.33-2.73-.69-2.8.76-.15,3.61-1.46,6.99-2.54,10.4-.83,2.62-2.59,6.66.11,8.7,1.54,1.16,3.04-1.44,1.51-2.59-.37-.28.58-2.99.69-3.42.42-1.48.91-2.94,1.39-4.41.92-2.83,1.7-5.69,1.83-8.68l-2.8.76c.5.88.17,2.37.17,3.34,0,1.3.03,2.61.1,3.91.13,2.58.41,5.14.77,7.69.25,1.76,2.84,1.19,2.95-.4.31-4.63.92-9.23,1.82-13.78l-2.74.36c4.56,9.21,1.16,19.96,2.4,29.73.1.75.5,1.36,1.3,1.47.67.09,1.53-.34,1.65-1.07,1.29-7.98,2.57-16,2.57-24.11,0-1.94-2.93-1.93-3,0-.21,5.57-1.03,11.06-2.44,16.45h2.89c-1.15-4.74.03-9.56.86-14.26s1.23-9.7,1.01-14.6c-.09-1.93-2.93-1.94-3,0-.12,3.52.2,7.03.92,10.48.34,1.63,3.14,1.3,2.95-.4-.29-2.57-2.14-3.72-3.95-5.27-1.93-1.65-3.24-3.8-3.88-6.24l-2.2,1.69c.75.56,1.65.79,2.58.78.45,0,.9-.07,1.34-.14.17-.03,1.42-.15.98-.36l-.69-.9c-.09-.3.18-.3-.05-.08-.15.14-.28.45-.42.63-.28.37-.6.71-.89,1.08-.64.83-1.01,1.65-1.11,2.71-.14,1.4,1.68,1.83,2.56,1.06,2.84-2.5,6.9-3.49,8.68-7.11.64-1.29-.69-2.86-2.05-2.05-1.77,1.04-4.01,2.45-6.01,1.17-.12.91-.24,1.83-.36,2.74,1.59-.47,3.15-.64,4.81-.55l-1.5-1.5c-.04,2.35.16,4.67.56,6.99.22,1.29,2.15,1.42,2.74.36,1.01-1.82,1.54-3.75,1.62-5.83.07-1.66-2.64-2.08-2.95-.4-.98,5.45-1.44,10.97-1.33,16.51.04,1.93,3.02,1.94,3,0-.06-5.04-.26-10.08-.61-15.11-.11-1.57-1.9-1.93-2.8-.76-.97,1.27-1.94,2.55-2.91,3.82-.44.57-.87,1.15-1.31,1.72-.35.47-1,1.67-1.54,1.91l1.16-.15c.6.19-.07-.94-.17-1.26-.17-.52-.32-1.04-.46-1.56-.3-1.14-.53-2.3-.68-3.48-.93.25-1.86.5-2.8.76.69,1.19,1.38,2.37,2.08,3.56.75,1.29,2.79.73,2.8-.76s.02-2.87.02-4.31l-1.9,1.45c-.42-.66-.61-.77-.58-.33,0,.2-.02.4-.04.6-.03.26-.06.53-.13.79-.09.33-.42,1.26-.95,1.14-.26-.06-.51-.81-.62-1.02-.28-.53-.58-1-1-1.44-.88-.92-2.6-.24-2.56,1.06.04,1.07.1,2.18-.07,3.25-.17,1.04-.61,2.01-.95,3-.64,1.86-.82,3.69.07,5.51.59,1.22,2.39.8,2.74-.36,1.65-5.35,3.21-11.03,1.55-16.58-.48.63-.96,1.27-1.45,1.9,4.87-.33,9.73-2.71,14.64-1.98,1.89.28,2.7-2.61.8-2.89h0Z"/>
      <path class="cls-27" d="M516.91,365.48c.21,3.71.15,7.43-.17,11.13h3c-.41-3.4-.17-6.77.75-10.07-.98-.13-1.96-.27-2.95-.4-.27,3.99-1.1,7.89-1.93,11.8-.24,1.15,1.06,2.53,2.2,1.69.31-.23.39-.26.69-.06.79.51,1.99.02,2.2-.9.41-1.79.69-3.68,1.25-5.43.41-1.28,1.97-1.61,2.84-2.57-.85-.35-1.71-.71-2.56-1.06.14,2-.69,3.82-1.22,5.72-.47,1.69-.56,3.45-.9,5.17-.14.71-.32,1.44-.67,2.08-.14.26-.35.67-.61.83s-.57-.12-.92-.35c-.68-.45-1.29-1.02-1.8-1.66-.38-.47-1.22-1.49-1.24-2.13l-.2.76-.23.25-.76.2c1.46-.1,3.07-.04,4.32.82.12-.91.24-1.83.36-2.74-2.91.95-3.81,4.34-1.76,6.62,1.12,1.24,3.37-.43,2.36-1.82-1.55-2.12-3.46-3.87-5.78-5.12l-1.16,2.74c2.46.49,4.53,1.85,6.59,3.22.25-.93.5-1.86.76-2.8-2.42.15-4.84.36-7.24.65-1.9.23-4.61.24-4.77,2.73-.1,1.58,2.03,1.9,2.8.76.43-.65.87-1.3,1.3-1.95.17-.26.43-.53.54-.81.06-.11.14-.21.22-.3-.65-.35-.9-.38-.76-.09-.02.14.24.53.3.67.16.37.33.74.49,1.11.33.74.65,1.47.98,2.21.43-.75.86-1.5,1.3-2.26-1.43-.01-2.81-.18-4.2-.52-.13.98-.27,1.96-.4,2.95,2.11.21,4.19.53,6.26.96,1.88.39,2.69-2.5.8-2.89-2.33-.48-4.69-.83-7.06-1.07-1.69-.17-2.02,2.55-.4,2.95,1.64.4,3.31.62,5,.63,1.24.01,1.74-1.26,1.3-2.26-.52-1.17-1.02-2.34-1.55-3.5-.42-.93-1.1-1.78-2.2-1.85-1.03-.07-1.82.58-2.39,1.36-.75,1.02-1.41,2.1-2.12,3.15l2.8.76v-.23c-.05.25-.12.5-.19.76.03-.06,1.24-.16,1.56-.2.87-.11,1.74-.21,2.61-.3,1.68-.17,3.35-.3,5.04-.41,1.5-.09,2.02-1.96.76-2.8-2.26-1.51-4.6-2.98-7.31-3.52-1.59-.32-2.74,1.89-1.16,2.74,1.85,1,3.47,2.34,4.71,4.04l2.36-1.82c-.51-.57-.29-1.37.43-1.6,1.27-.42,1.43-2.01.36-2.74-1.71-1.17-8.8-2.67-7.51,1.45.45,1.42,1.39,2.76,2.4,3.84,1.04,1.1,2.7,2.52,4.3,2.55,3.25.07,4.22-4.47,4.55-6.89.23-1.63.51-3.18,1.01-4.75.55-1.73,1.08-3.46.95-5.3-.08-1.21-1.63-2.09-2.56-1.06-.49.54-1.17.82-1.76,1.24-.75.53-1.29,1.18-1.63,2.03-.76,1.89-1.02,4.07-1.47,6.05l2.2-.9c-1.13-.72-2.63-.73-3.72.06l2.2,1.69c.88-4.16,1.74-8.34,2.03-12.59.12-1.72-2.5-2-2.95-.4-.99,3.53-1.3,7.22-.86,10.86.23,1.9,2.83,1.96,3,0,.32-3.71.38-7.42.17-11.13-.11-1.92-3.11-1.93-3,0h0Z"/>
      <path class="cls-25" d="M497.94,406.37c6.59,1.78,13.3,3.02,20.09,3.75.81.09,1.5-.75,1.5-1.5,0-.88-.69-1.41-1.5-1.5-6.52-.7-12.96-1.93-19.29-3.64-1.87-.5-2.66,2.39-.8,2.89h0Z"/>
      <path class="cls-25" d="M516.7,414.38c-6.21-.37-12.34-1.51-18.28-3.36-1.85-.57-2.64,2.32-.8,2.89,6.19,1.93,12.61,3.08,19.08,3.46,1.93.12,1.92-2.89,0-3h0Z"/>
      <polyline class="cls-14" points="490.09 447.06 487.9 450.54 485.97 452.56 482.39 454.58 480.46 455.77 477.07 457.98 474.04 459.17 471.56 459.63 467.88 459.63 465.59 460 461.45 460.55 459.89 460.55 458.06 461.56 456.49 463.4 455.58 465.42 456.13 467.25 457.41 468.26 459.53 469.55 463.57 470.93 466.69 472.03 468.16 472.03 474.31 472.76 478.81 473.5 484.41 474.23 488.36 474.23 498.74 474.23 501.81 473.87 506.09 473.04 508.18 472.4 509.94 472.03 511.02 470.28 511.69 466.15 512.37 463.4 513.34 460.09 513.34 456.69 513.42 453.29 513.89 449.99 513.36 446.93"/>
      <polyline class="cls-22" points="471.31 472.73 471.31 474.51 471.31 475.5 471.61 476.26 472.33 477.51 473.58 477.85 474.31 477.17 474.69 475.95 474.87 475.02 474.87 474.4 474.87 473.83 474.87 472.86"/>
      <polyline class="cls-22" points="478.79 473.91 478.79 475.29 478.79 476.73 479.2 477.85 480.1 479.07 481.44 478.73 482.23 478.04 482.23 476.94 482.23 476.01 482.37 475.29 482.37 474.11"/>
      <polyline class="cls-22" points="485.71 474.49 485.71 475.53 485.95 476.8 486.16 477.85 486.68 478.9 488.02 479.28 488.74 479.07 489.5 478.08 489.67 477.39 489.67 476.18 489.67 475.53 489.67 474.23"/>
      <polyline class="cls-22" points="493.39 474.49 493.39 475.94 493.56 476.49 494.32 477.7 495.32 478.76 496.6 478.28 497.25 477.42 497.46 476.49 497.46 475.6 497.46 474.49"/>
      <polyline class="cls-22" points="501 474.49 501.18 476.08 501.56 476.63 502.18 477.63 503.35 477.63 503.97 477.49 504.38 476.46 504.38 475.6 504.38 474.87 504.38 474.23 504.38 473.37"/>
      <polyline class="cls-22" points="506.51 473.37 507 475.12 507.61 476.27 508.63 476.63 509.51 476.63 510.7 476 510.7 475.5 510.48 475 510.48 474.49 510.09 473.93 510 472.91 509.27 472.17"/>
      <path d="M484.6,453.06c-.29-1.22-.7-2.4-1.19-3.55-.46-1.08-1.21-2.03-2.37-2.39-.75-.23-1.67.27-1.85,1.05s.24,1.6,1.05,1.85c.07.02.13.04.19.07l-.36-.15c.12.06.23.12.34.2l-.3-.23c.14.11.26.24.38.39l-.23-.3c.24.32.41.67.57,1.04l-.15-.36c.43,1.03.78,2.1,1.03,3.19.18.76,1.09,1.29,1.85,1.05.8-.26,1.24-1.03,1.05-1.85h0Z"/>
      <path d="M479.21,450.81c-.11,1.26-.21,2.52-.32,3.78.85-.35,1.71-.71,2.56-1.06-.05-.05-.11-.09-.16-.14-.3-.26-.65-.44-1.06-.44-.37,0-.81.16-1.06.44s-.46.66-.44,1.06.14.8.44,1.06c.05.05.11.09.16.14.46.4,1.05.56,1.64.31.25-.1.44-.25.6-.46.21-.28.29-.56.32-.91.11-1.26.21-2.52.32-3.78.03-.36-.19-.81-.44-1.06s-.69-.46-1.06-.44-.79.14-1.06.44-.4.64-.44,1.06h0Z"/>
      <path d="M480.5,451.53c-.95-.52-1.87-1.09-2.75-1.71-.3-.21-.81-.25-1.16-.15s-.73.36-.9.69c-.18.35-.28.77-.15,1.16l.15.36c.13.23.31.4.54.54.88.62,1.8,1.19,2.75,1.71.35.19.77.26,1.16.15.35-.1.73-.36.9-.69.18-.35.28-.77.15-1.16-.12-.37-.34-.71-.69-.9h0Z"/>
      <polyline class="cls-14" points="626.74 430.84 628.93 434.32 630.86 436.34 634.44 438.36 636.37 439.56 639.77 441.76 642.8 442.95 645.28 443.41 648.95 443.41 651.25 443.78 655.38 444.33 656.94 444.33 658.78 445.34 660.34 447.18 661.26 449.2 660.7 451.03 659.42 452.05 657.31 453.33 653.27 454.71 650.14 455.81 648.67 455.81 642.52 456.55 638.02 457.28 632.42 458.01 628.47 458.01 618.09 458.01 615.02 457.65 610.75 456.82 608.65 456.18 606.89 455.81 605.82 454.07 605.14 449.93 604.46 447.18 603.49 443.87 603.49 440.47 603.41 437.08 602.94 433.77 603.47 430.71"/>
      <polyline class="cls-22" points="658.83 453.05 659.47 455.11 659.47 456.31 659.47 457.45 658.83 458.01 657.06 458.8 656.21 458.37 655.85 457.31 655.14 455.11 654.87 454.16"/>
      <polyline class="cls-22" points="652.14 455.1 652.14 457.36 651.74 459.09 651.04 459.28 650.1 459.28 649.46 458.8 649.46 458.15 648.98 457.42 648.82 456.55 648.67 455.81"/>
      <polyline class="cls-22" points="645.53 456.51 645.53 458.29 645.53 459.28 645.22 460.04 644.5 461.29 643.25 461.63 642.53 460.95 642.15 459.74 641.96 458.8 641.96 458.18 641.96 457.61 641.96 456.64"/>
      <polyline class="cls-22" points="638.04 457.69 638.04 459.07 638.04 460.51 637.63 461.63 636.74 462.86 635.39 462.51 634.6 461.82 634.6 460.72 634.6 459.79 634.46 459.07 634.46 457.9"/>
      <polyline class="cls-22" points="631.12 458.27 631.12 459.31 630.88 460.58 630.67 461.63 630.16 462.68 628.81 463.06 628.09 462.86 627.33 461.86 627.16 461.17 627.16 459.96 627.16 459.31 627.16 458.01"/>
      <polyline class="cls-22" points="623.44 458.27 623.44 459.72 623.27 460.27 622.51 461.48 621.51 462.55 620.24 462.06 619.58 461.2 619.38 460.27 619.38 459.38 619.38 458.27"/>
      <polyline class="cls-22" points="615.83 458.27 615.66 459.86 615.28 460.41 614.66 461.41 613.49 461.41 612.87 461.27 612.45 460.24 612.45 459.38 612.45 458.65 612.45 458.01 612.45 457.15"/>
      <polyline class="cls-22" points="610.32 457.15 609.84 458.9 609.22 460.05 608.2 460.41 607.32 460.41 606.13 459.79 606.13 459.28 606.35 458.78 606.35 458.27 606.75 457.71 606.83 456.69 607.56 455.95"/>
      <path d="M635.12,437.64c.26-1.09.6-2.16,1.03-3.19l-.15.36c.15-.37.33-.72.57-1.04l-.23.3c.11-.14.23-.27.38-.39l-.3.23c.11-.08.22-.15.34-.2l-.36.15c.06-.03.13-.05.19-.07.75-.23,1.3-1.06,1.05-1.85s-1.04-1.29-1.85-1.05c-1.17.35-1.91,1.31-2.37,2.39-.49,1.15-.9,2.33-1.19,3.55-.18.76.24,1.66,1.05,1.85s1.65-.23,1.85-1.05h0Z"/>
      <path d="M634.62,434.59c.11,1.26.21,2.52.32,3.78.02.26.07.53.2.76.17.28.42.49.72.61.58.24,1.17.09,1.64-.31.05-.05.11-.09.16-.14.28-.24.44-.7.44-1.06s-.16-.81-.44-1.06-.66-.46-1.06-.44-.75.17-1.06.44c-.05.05-.11.09-.16.14.85.35,1.71.71,2.56,1.06-.11-1.26-.21-2.52-.32-3.78-.03-.4-.14-.77-.44-1.06-.26-.26-.69-.46-1.06-.44s-.79.14-1.06.44c-.26.28-.47.67-.44,1.06h0Z"/>
      <path d="M637.84,437.9c.95-.52,1.87-1.09,2.75-1.71.33-.23.58-.5.69-.9.1-.36.05-.84-.15-1.16s-.51-.6-.9-.69-.83-.08-1.16.15c-.88.62-1.8,1.19-2.75,1.71-.32.18-.59.54-.69.9s-.05.84.15,1.16.51.6.9.69.79.05,1.16-.15h0Z"/>
      <ellipse class="cls-16" cx="663.98" cy="251.41" rx="2.1" ry="6.38" transform="translate(-39.84 158.09) rotate(-13.19)"/>
      <polyline class="cls-16" points="645.8 174.89 647.35 180.32 651.76 191.5 655.74 197.05 660.22 201.7 658.02 206.81 655.14 214.22 649.88 222.79 646.89 227.49 653.01 231.38 658.02 232.93 662.24 234.3 666.64 229.48 669.16 222.98 671.88 219 679.13 209.43 685.32 198.56 682.33 191.92 677.22 186.07 677.22 181.64 671.88 173.74 668.12 167.5 667.17 160.6"/>
      <polyline class="cls-16" points="575.14 116.53 573.73 106.15 571.33 99.98 567.91 95.19 563.45 89.37 561.06 84.57 561.06 79.43 564.14 69.84 568.1 65.05 591.2 65.05 600.82 65.05 609.69 65.05 614.4 65.05 622.71 67.1 626.48 73.95 626.48 78.75 624.08 88.34 621 95.87 617.57 103.4 614.4 108.2 614.85 111.75 615.5 113.48 617.19 115.45"/>
      <ellipse class="cls-17" cx="587.95" cy="82.48" rx="7.82" ry="3.51"/>
      <ellipse class="cls-17" cx="620.48" cy="81.5" rx="5" ry="2.54"/>
      <ellipse class="cls-20" cx="592.33" cy="82.76" rx="3.02" ry="2.3"/>
      <ellipse class="cls-13" cx="623.23" cy="81.91" rx="1.75" ry="1.44"/>
      <path class="cls-29" d="M564.78,64.34c9.62-.21,19.24-.42,28.86-.63,9.52-.21,19.2-.88,28.68.24.63.07,1.3-.52,1.45-1.1.69-2.67,1.08-5.41,1.1-8.17.02-1.98.27-5.14-1.34-6.63-.77-.71-1.78-.88-2.79-.92-1.48-.07-2.97-.07-4.46-.09-2.71-.05-5.41-.08-8.12-.07-11.01.04-22.16.83-32.72,4.17-2.77.88-5.89,1.77-8.4,3.26-1.2.71-1.7,1.82-2,3.13-.37,1.59-.68,3.2-1.03,4.8-.41,1.9,2.24,2.61,2.89.8,1.17-3.23,3.77-5.85,7-7.02.71-.26,1.36-1.04,1.05-1.85-.8-2.09-3.09-2.66-4.83-1.31-1,.78-.24,2.14.66,2.51,4.56,1.89,9.51,1.24,14.23.42,2.43-.42,4.85-.91,7.32-1.1,1.08-.08,5.43-.67,5.66.92.27,1.9,3.16,1.09,2.89-.8-.35-2.46-3.17-3.07-5.23-3.18-2.71-.14-5.43.24-8.1.69-5.28.88-10.8,2.3-15.97.16.22.84.44,1.67.66,2.51-.13.1-.12.16-.18-.01.35-.62.7-1.23,1.05-1.85-4.28,1.55-7.55,4.83-9.1,9.12l2.89.8c.26-1.2.51-2.4.77-3.6.22-1.03.22-2.18,1.22-2.71,2.07-1.1,4.46-1.84,6.68-2.56,4.55-1.49,9.25-2.51,13.99-3.17,9.55-1.32,19.24-1.19,28.85-.99.7.01,2.64-.29,3.12.28.26.31.2,1.16.23,1.55.05.69.08,1.38.09,2.08.03,2.73-.31,5.42-1,8.06.48-.37.96-.73,1.45-1.1-9.49-1.12-19.16-.45-28.68-.24-9.62.21-19.24.42-28.86.63-1.93.04-1.93,3.04,0,3h0Z"/>
      <path class="cls-29" d="M616.21,44.64c-1.89,1.4-2.26,3.96-.61,5.73.73.78,2.3.45,2.51-.66.93-5.06-3.67-9.66-8.73-8.77-.48.08-.95.58-1.05,1.05-.23,1.09-.24,2.09-.04,3.18l1.85-1.85c-2.6-.88-6.05-1.34-7.69,1.46-1.45,2.49.75,5.52,3.52,4.97.68-.13,1.06-.82,1.1-1.45.24-3.35-3.61-4.85-6.36-5.04-1.67-.12-3.38.37-4.45,1.71-.95,1.18-1.2,2.84-.31,4.13.79,1.14,2.32,1.73,3.64,1.24,1.5-.55,1.96-2.32,1.62-3.75-.67-2.89-4.43-5.54-7.33-4.19s-1.9,6.53,1.58,5.8c.91-.19,1.42-1.43.9-2.2-1.48-2.2-4.16-3.43-6.79-2.71-2.24.61-4.72,3.1-4.43,5.61.3,2.67,4.07,1.99,4.75-.07.9-2.72-2.46-4.15-4.48-4.71-2.35-.65-5-.86-7.31,0-2.31.86-4.47,2.94-4.45,5.56.02,2.42,2.63,4.62,4.99,3.47s2.44-4.48.92-6.4c-1.71-2.16-4.91-2.7-7-.75-1.86,1.74-2.27,4.78-.86,6.91.48.72,1.28.9,2.05.54,1.49-.7,1.64-2.53.89-3.85-.9-1.59-2.65-2.13-4.39-1.94-3.91.43-6.98,4.49-8.06,8.03-.42,1.38-.49,3.17.69,4.22,1.52,1.36,3.51.51,4.63-.89,2.29-2.87,2.98-7.78-1.2-9.32-.75-.28-1.66.31-1.85,1.05-.72,2.86-1.41,6.08.07,8.83,1.23,2.29,3.76,3.71,6.34,3.09,1.88-.45,1.08-3.34-.8-2.89-1.5.36-2.8-1.03-3.21-2.35-.59-1.9.02-4.02.49-5.88-.62.35-1.23.7-1.85,1.05,1.74.64.64,3.15-.03,4.13-.22.32-.44.59-.73.85.37-.33-.17.76.16-.18.2-.56.23-1.12.51-1.68.82-1.63,1.82-3.44,3.41-4.44.69-.44,1.72-.86,2.55-.63.16-.02.29.02.39.11.07.07.14.14.21.21.06.08.1.18.13.27.01.23.06.1.14-.38l2.05.54c-1.36-2.05,1.11-5.13,2.95-2.77.29.37.58.99.35,1.46-.24.51-.65.41-.88-.08-.6-1.3,1.39-2.68,2.34-3.04,1.31-.5,2.8-.49,4.17-.27.7.12,1.4.3,2.07.52.32.1.65.21.95.36.12.06.67.52.76.54-.03-.2.01-.33.14-.41.41-.28.72.07.96,1.03.14-.17.21-.75.33-.97.32-.61.85-1.13,1.47-1.42,1.38-.64,3.04-.07,3.87,1.17l.9-2.2c.4.25.55.28.44.08l-.02-.09s.07-.18-.05-.14c.6-.2,1.11-.04,1.67.27s1.1.8,1.4,1.4c.17.33.15,1.17.41.67-.02.04-.17-.22-.12-.33.13-.28.28-.47.54-.64.68-.43,1.66-.31,2.41-.17,1,.19,2.8.66,2.7,1.94.37-.48.73-.96,1.1-1.45-.22.04-.17-.46-.14-.56.12-.34.61-.55.91-.64,1.1-.33,2.35.2,3.39.56,1.17.4,2.04-.8,1.85-1.85-.1-.54-.08-1.05.04-1.59l-1.05,1.05c2.71-.48,5.53,2.37,5.04,5.08l2.51-.66c-.23-.24-.31-.78,0-1.01,1.53-1.14.04-3.74-1.51-2.59h0Z"/>
      <path class="cls-29" d="M587.08,54.01c-.99-3.21-4.31-4.33-7.39-4.36-3.54-.04-7.95,1.02-9.5,4.58-1.44,3.28.76,6.48,4.09,7.14,1.48.3,3.06.18,4.44-.44,1.61-.72,3.09-2.51,1.97-4.27-1.03-1.62-3.67-1.85-5.39-1.63-1.99.26-3.84,1.22-5.12,2.78-.62.75-.58,1.81.3,2.36,7.34,4.55,15.67.28,22.53-3,4.11-1.96,8.22-3.25,12.8-3.26,4.63-.02,9.18.89,13.69,1.81-.37-.48-.73-.96-1.1-1.45-.19,3.52-.38,7.03-.57,10.55l1.5-1.5c-4.38-.23-8.69-1.13-13.04-1.57-4.39-.44-8.81-.57-13.22-.53-8.82.07-17.64.65-26.44,1.08-1.71.08-2.01,2.4-.4,2.95,8.48,2.87,17.2-.25,25.81-.46,8.32-.2,16.89,2.01,24.86-1.34,2.86-1.2,7.24-3.77,7.55-7.24.16-1.8-.99-3.53-1.85-5.03s-1.89-3.03-3.15-4.26c-2.05-2-6.05-4.12-8.48-1.47-1.05,1.14-.85,3.01.48,3.85,1.33.85,3.17.23,4.18-.84,2.87-3.02.97-8.38-3.12-8.9-4.18-.54-6.75,4.32-4.03,7.49.4.46,1.31.6,1.82.23,1.65-1.18,2.86-2.93,2.59-5.04-.23-1.88-1.59-3.45-3.24-4.29-4.2-2.13-8.28.63-11.55,3.16-.61.47-.56,1.64,0,2.12,1.5,1.29,3.3,1.76,5.23,1.27,1.08-.28,1.48-1.73.66-2.51-2.52-2.39-7.05-3.65-10.1-1.47-1.36.97-2.38,2.78-1.52,4.41.8,1.51,2.68,1.85,4.12,1.05,1.57-.87,2.21-2.61,1.71-4.32-.56-1.9-2.31-3.3-3.95-4.26s-3.83-1.94-5.75-1.73-2.98,1.88-3.58,3.57c-1.4,3.95-.23,8.52,2.66,11.48l1.46-2.51c-5.16-2.06-11.77-1.74-16.41,1.49-2.11,1.46-2.9,4.13-1,6.13,1.6,1.68,4.31,2.42,6.56,2.09s4.21-2.54,2.97-4.85c-1.04-1.94-3.8-3-5.91-2.96-2.87.05-4.33,2.93-2.05,5.01,1.86,1.71,4.48,1.92,6.84,1.33,2.67-.68,5.47-2.41,6.94-4.78,1.52-2.45,1.16-5.66-1.25-7.36-.57-.4-1.34-.17-1.82.23-3.95,3.36-2.77,9.84,1.77,12.03,5,2.41,10.3-.51,12.28-5.37.23-.57-.15-1.43-.69-1.69-2.21-1.07-5.56-1.89-6.99.81-1.49,2.8,1.28,5.51,3.91,5.88,2.14.3,6.04.15,6.92-2.34,1.14-3.21-2.94-4.32-5.23-4.72-5.74-1.01-11.76.04-16.82,2.94-1.23.7-2.38,1.53-3.47,2.43s-2.53,2.27-1.92,3.89c.9,2.41,5.2,2.24,7.27,2.04,5.91-.58,11.47-4.11,14.06-9.53.6-1.26-.38-2.4-1.69-2.2-2.35.35-4.31,1.67-6.3,2.88-2.16,1.31-4.45,2.32-6.88,3.01-2.36.67-4.78,1.02-7.23,1.05-.75,0-6.06.13-4.98-1.59.59-.95,1.94-.95,2.91-.94,1.33.01,2.62.08,3.95-.14,2.37-.39,4.58-1.5,6.67-2.66,2.38-1.33,4.74-2.71,7.11-4.07,1.82-1.04,4.21-2.09,4.97-4.23.7-1.99-.65-4.2-2.8-4.38-1.02-.08-1.93.37-2.44,1.27-.72,1.29-1.1,2.89-1.62,4.27-.19.51.05,1.08.39,1.46.76.86,1.74,1.05,2.83.88,1.9-.31,1.09-3.2-.8-2.89l.09-.1c.13.49.26.97.39,1.46.22-.58.43-1.16.65-1.74.1-.27.76-1.52.65-1.74,0,0-.44.15-.43.1-.01.05.35.13.32.24-.07.28-.23.49-.42.7-.68.78-1.79,1.24-2.66,1.75-1.21.69-2.42,1.39-3.64,2.08-2.11,1.21-4.2,2.52-6.4,3.54-1.03.48-2.12.88-3.25,1.09-1.26.24-2.52.11-3.79.11-2.17,0-4.38.68-5.44,2.72-.92,1.77-.23,3.85,1.49,4.82,1.81,1.03,4.24,1,6.25.98,2.35-.02,4.71-.33,6.99-.88,2.48-.6,4.91-1.54,7.16-2.74s4.4-3.03,7.06-3.42c-.56-.73-1.13-1.47-1.69-2.2-1.48,3.08-3.98,5.46-7.09,6.86-1.47.66-3.11,1.1-4.72,1.22-.8.06-1.6.06-2.4-.02-.44-.04-.87-.11-1.3-.2-.1-.02-.4-.15-.49-.12-.24-.11-.24-.02,0,.26.08.42.23.41.44,0,.74-.45,1.38-1.2,2.1-1.7.79-.55,1.62-1.05,2.48-1.49,1.66-.86,3.43-1.49,5.25-1.91,3.43-.79,7.81-1.01,11.12.42.11.05.44.2.46.23-.05-.07.23-.23-.12-.05-.3.15-.67.22-.99.27-.99.16-2.47.34-3.39-.15-.45-.24-1.26-1.1-.57-1.51.64-.38,2.02.33,2.58.6-.23-.56-.46-1.13-.69-1.69-1.24,3.04-4.75,5.02-7.89,3.57-2.91-1.35-3.65-5.18-1.14-7.31-.61.08-1.21.16-1.82.23,1.62,1.14.25,3.4-.78,4.37-1.28,1.2-2.98,2.1-4.71,2.41-.72.13-1.5.15-2.21-.05-.4-.11-.73-.43-1.11-.54-.19-.31-.4-.27-.64.11.16-.06.32-.09.48-.08.56.04,3.6.59,3.24,1.56-.18.5-1.6.35-1.97.3-.72-.1-1.45-.33-2.07-.71-2-1.22.08-2.31,1.39-2.93,3.9-1.85,8.43-1.82,12.4-.23,1.46.59,2.43-1.51,1.46-2.51-1.72-1.77-2.57-4.22-2.32-6.68.09-.86.34-2.6,1.13-3.13.92-.62,3.01.52,3.86.98,1.04.56,2.59,1.46,2.94,2.68.18.64-.05.52-.33.93-.2.3-.16-.22-.03.13.11.28.18-.14.26-.19.49-.3.77-.64,1.37-.78s1.3-.16,1.94-.07c1.27.17,2.42.74,3.34,1.62.22-.84.44-1.67.66-2.51-.84.22-1.64.08-2.31-.49v2.12c1.87-1.45,4.43-3.52,6.99-3,2.21.45,3.83,2.86,1.58,4.46l1.82.23c-.59-.68-.27-1.88.51-2.27.94-.47,2.2.08,2.64.99.38.79.37,2.18-.34,2.8-.16.14-1.45.58-.23,1.02.11.04.86-.26,1.08-.23,2.26.25,4.09,2.76,5.19,4.51.58.93,1.13,1.9,1.61,2.89.34.71.57,1.21.18,1.92-.33.61-.91,1.13-1.41,1.6-3.74,3.44-9.2,4.24-14.09,4.21-3.13-.02-6.24-.33-9.36-.5-3.15-.16-6.26-.06-9.39.31-6.6.78-13.45,2.37-19.94.17-.13.98-.27,1.96-.4,2.95,8.81-.42,17.62-1,26.44-1.08,4.41-.04,8.83.09,13.22.53,4.36.44,8.66,1.34,13.04,1.57.84.05,1.46-.73,1.5-1.5.19-3.52.38-7.03.57-10.55.03-.62-.49-1.32-1.1-1.45-4.46-.91-8.98-1.81-13.55-1.91-4.32-.09-8.45.7-12.42,2.38-6.66,2.82-15.07,8.79-22.33,4.28.1.79.2,1.57.3,2.36.8-.97,1.81-1.65,3.06-1.89.63-.12,1.29-.13,1.92,0,.24.05.58.26.8.25.28.15.23.04-.15-.33l-.29.17c-.48.03-.99.35-1.5.39-.46.03-.91,0-1.36-.11-.86-.2-1.78-.69-2.02-1.6-.79-3.03,3.94-4,5.97-4.14,1.83-.12,4.8.01,5.45,2.13.57,1.84,3.46,1.06,2.89-.8h0Z"/>
      <path class="cls-29" d="M589.76,45.62c1.93,0,1.93-3,0-3s-1.93,3,0,3h0Z"/>
      <path class="cls-29" d="M586.35,40.78c-.61-.42-1.38-.61-2.12-.63s-1.47.19-2.15.5c-.56.26-1.08.66-1.47,1.14-.32.4-.53.75-.73,1.23-.15.36-.19.72-.24,1.1-.04.36.2.82.44,1.06.26.26.69.46,1.06.44s.79-.14,1.06-.44c.29-.31.39-.64.44-1.06v-.05c-.01.13-.03.27-.05.4.03-.22.09-.44.18-.65l-.15.36c.09-.2.21-.39.34-.57l-.23.3c.15-.19.32-.36.51-.51l-.3.23c.24-.18.49-.33.77-.45l-.36.15c.26-.11.53-.18.81-.22l-.4.05c.26-.03.51-.04.77,0l-.4-.05c.22.03.43.09.64.18l-.36-.15c.14.06.28.14.41.23.31.21.8.25,1.16.15s.73-.36.9-.69c.4-.76.16-1.58-.54-2.05h0Z"/>
      <path class="cls-29" d="M605.16,51.87c-4.55.6-11.51,1.25-12.87-4.54-.66-2.82-3.44-3.04-5.94-2.79-3.09.31-6.15,1.13-9.19,1.76-1.89.39-1.09,3.28.8,2.89,2.9-.6,5.91-1.5,8.87-1.69.63-.04,1.62-.19,2.22.1.42.2.34.55.47,1.05.28,1.09.82,2.08,1.53,2.95,3.46,4.23,9.24,3.92,14.12,3.27.81-.11,1.49-.61,1.5-1.5,0-.73-.7-1.61-1.5-1.5h0Z"/>
      <path class="cls-29" d="M583.51,57.88c4.13.15,8.25.31,12.38.46v-3c-3.15.02-6.45-.26-9.58.13-2.34.29-4.96,2.53-3.58,5.1.7,1.31,2.53,1.21,3.84,1.37,1.76.22,3.53.35,5.3.37,3.28.03,6.52-.36,9.74-.97,2.77-.52,5.68-1.2,8.51-.76,1.32.2,2.38.72,3.53,1.36,1.23.69,2.64,1.22,4,.55,2.46-1.2,1.97-4.12,1.34-6.25-.2-.68-.4-1.29-.17-2,.17-.53.54-1.03.77-1.54.53-1.14.8-2.42.05-3.53-.78-1.16-2.15-1.42-3.45-1.4-1.84.03-3.68.17-5.51.26-3.89.18-7.79.37-11.68.55-1.59.07-2.16,2.68-.4,2.95,6.44.96,12.93,1.57,19.44,1.78-.48-.63-.96-1.27-1.45-1.9-1.95,4.66-8.26,6.84-12.71,4.56-.25.93-.5,1.86-.76,2.8,4.29-.39,8.59-.79,12.88-1.18,1.61-.15,2.12-2.47.4-2.95-8.59-2.39-17.74-1.6-25.83,2.12-1.16.53-.86,2.49.36,2.74,4.55.94,9.23.61,13.56-1.09,1.54-.61,1.37-2.85-.4-2.95-3.13-.17-6.26-.31-9.38.12s-6.08,1.91-9.21,2.64c-2.95.69-6.02.92-9.04,1.09-2.74.16-5.53.11-7.85-1.53l-.36,2.74c6.07-1.56,10.66-5.89,15.61-9.47,2.44-1.76,5.06-3.44,7.98-4.26.51-.14,1.05-.25,1.58-.15.65.12.37.28.39.9.05,1.6,1.2,2.73,2.8,2.71,1.88-.02,3.89-1.06,5.61-1.72,2.19-.83,4.35-1.75,6.49-2.72.57-.26.89-1.12.69-1.69-.76-2.22-2.1-4.82-4.87-4.54-2.54.26-3.97,2.93-2.03,4.87,1.61,1.61,4.4,1.93,6.22.49,1.91-1.51,2.36-4.37,1.02-6.39-.61-.93-1.99-1.01-2.59,0-1.42,2.41-.15,5.26,1.03,7.5,1.19,2.26,2.76,4.29,4.35,6.27,3.12,3.86,6.68,7.66,7.75,12.66.35-.62.7-1.23,1.05-1.85-1.74.45-2.74-2.89-3.46-3.97-.45-.68-.99-1.31-1.68-1.76-.9-.6-1.97-.69-2.91-1.19-3.28-1.75-1.77-6.76-4.66-8.86-1.66-1.2-3.73-2.12-5.62-2.9-1.93-.8-3.97-1.36-6.07-1.37-1.95,0-3.97.44-5.63,1.5-1.56,1-3.09,2.95-1.85,4.8.41.61.99.8,1.69.69,2.65-.4,2.3-4,.38-5.08-1.17-.65-2.69-.62-3.98-.74-1.81-.17-3.61-.33-5.42-.5l1.45,1.1-.56.75c1.79.72,2.57-2.18.8-2.89-1.88-.75-3.54,1.16-3.13,2.94.16.69.8,1.04,1.45,1.1,1.64.15,3.29.3,4.93.45.71.07,1.43.1,2.13.2.17.02.67.24.83.18s.2-.39.34-.41l1.69.69c-.16-.24,1.57-1.14,1.81-1.24.84-.34,1.77-.51,2.68-.54,1.82-.06,3.59.41,5.27,1.09.96.39,1.88.86,2.8,1.34.76.4,1.69.76,2.34,1.32.6.52.64,1.4.81,2.14.18.78.38,1.57.65,2.33.49,1.37,1.17,2.72,2.27,3.7.63.56,1.34.95,2.13,1.24.86.31,1.69.43,2.3,1.18.97,1.19,1.38,2.74,2.39,3.92,1.18,1.36,2.83,2.13,4.62,1.67.82-.21,1.21-1.06,1.05-1.85-.99-4.67-3.96-8.44-6.93-12.05-1.47-1.78-2.95-3.55-4.22-5.49-.64-.98-1.23-1.99-1.72-3.05-.46-1.01-1.19-2.47-.57-3.53h-2.59c.95,1.43-.23,3.42-1.98,2.63-.15-.07-.95-.73-.69-.29.24.4,0,.08.5.14.89.11,1.29,1.69,1.52,2.37l.69-1.69c-1.83.83-3.68,1.61-5.55,2.33-.89.34-1.78.67-2.67.98-.45.16-.9.32-1.35.46-.25.08-.81.11-1.02.25.23-.15-.06.59.2.11.05-.09.02-.41.02-.52,0-.33-.05-.68-.15-1-.2-.64-.64-1.2-1.21-1.57-1.09-.71-2.47-.77-3.72-.56-2.89.5-5.7,2.17-8.1,3.8-2.51,1.7-4.84,3.65-7.29,5.44-2.74,2.01-5.62,3.81-8.94,4.66-1.34.34-1.36,2.03-.36,2.74,2.32,1.64,5.18,2.05,7.97,2,3.13-.06,6.32-.37,9.4-.9,3.29-.55,6.25-2.06,9.49-2.74,3.32-.69,6.77-.46,10.13-.28-.13-.98-.27-1.96-.4-2.95-3.83,1.51-7.93,1.93-11.97,1.09l.36,2.74c7.34-3.38,15.75-3.99,23.52-1.82l.4-2.95c-4.29.39-8.59.79-12.88,1.18-1.36.12-2.2,2.06-.76,2.8,6.33,3.23,14.39.14,17.11-6.36.4-.94-.58-1.87-1.45-1.9-6.24-.2-12.47-.75-18.64-1.68l-.4,2.95c4.46-.21,8.92-.42,13.38-.63,1.14-.05,2.27-.11,3.41-.16.33-.01.67-.05,1.01-.01.46.05.31-.09.25.29-.11.69-.73,1.4-.99,2.06-.38.95-.41,1.88-.22,2.88.12.62,1.42,3.47.39,3.8-.5.16-1.99-1.02-2.46-1.24-.85-.39-1.73-.69-2.65-.86-3.8-.7-7.6.25-11.33.92-5.02.9-10.18.89-15.2-.02l.9.69c-.67-1.09,3.67-.93,4.03-.93,2.13-.01,4.26-.02,6.38-.03,1.94-.01,1.93-2.93,0-3-4.13-.15-8.25-.31-12.38-.46-1.93-.07-1.93,2.93,0,3h0Z"/>
      <path class="cls-12" d="M580.72,74.89c9.19.47,8.93,2.94,18.12,3.4"/>
      <path class="cls-12" d="M625.45,75.18c-5.88.47-5.71,2.94-11.59,3.4"/>
      <polygon class="cls-10" points="603.69 90.32 607.57 90.32 611.08 90.32 613.31 90.32 615.7 90.32 617.55 90.32 617.55 93.09 616.42 95.12 615.18 97.19 613.89 98.26 612.42 99.02 610.96 99.02 608.78 99.02 607.62 98.66 606.11 98.13 605.3 97.55 604.28 96.53 603.26 95.19 602.77 93.94 602.5 93.14 602.5 91.9 602.15 90.52 602.46 89.94 603.69 90.32"/>
      <polygon class="cls-18" points="602.46 89.94 602.82 91.16 603.34 91.63 604.55 91.63 605.18 91.84 606.6 91.84 607.75 91.84 609.01 91.84 610.01 91.84 611.17 92.05 614.21 92.05 616.05 92.05 616.84 92.05 617.55 91.74 617.55 90.32 602.46 89.94"/>
      <polyline class="cls-17" points="680.13 159.08 677.18 160.77 674.72 163.24 671.49 165.71 668.17 167.6 660.11 173.3 655.84 176.99 651.95 178.61 645.5 181.55 641.8 183.54 639.9 183.64 639.05 180.98 639.52 178.8 641.51 176.62 644.08 175 647.05 173.01 652.33 169.31 655.74 167.03 659.25 164.95 662.58 163.05 666.47 162.48 668.55 161.82 670.92 161.06 673.2 160.39 675.76 159.92 680.13 158.69 679.05 156.19 677.63 150.83 674.77 144.05 669.77 134.41 666.47 127.98 659.77 118.7 656.56 121.2 653.35 123.34 650.49 130.12 645.85 135.12 642.64 140.83 639.78 146.9 635.49 154.76 632.28 162.61 628 167.97 628 174.04 626.57 186.18 624.78 197.6 621.21 207.24 621.21 221.25 620.15 228.45 620.15 237.14 617.61 245.17 613.98 266.16 604.88 266.65 596.98 267.41 590.61 267.87 583.32 269.08 574.66 269.08 568.28 269.99 559.63 269.69 552.79 269.39 545.96 269.39 543.83 269.23 546.11 260.27 547.31 251.89 548.94 246.05 550.27 241.04 550.89 236.12 552.53 226.4 552.73 221.08 552.93 218.52 554.98 210.64 555.6 201.83 555.6 197.02 555.7 193.23 555.39 186.99 555.19 182.69 555.08 179.93 554.67 177.37 553.4 168.1 553.4 163.75 550.74 158.43 546.88 154.32 543.83 150.22 542.05 147.08 536.25 142.49 532.87 139.35 528.28 135.48 524.89 131.37 521.51 128.71 523.82 127.14 526.95 124.97 530.45 122.68 533.82 119.79 537.07 116.78 540.45 114 544.78 111.11 551.17 106.54 553.58 105.57 556.47 104.37 559.24 103.64 561.77 103.64 563.82 103.64 567.31 103.64 569 107.38 571.05 111.35 572.37 113.16 575.14 116.53 578.13 118.58 580.44 120.99 585.38 123.52 588.27 125.45 592.73 127.26 596.59 127.5 600.8 127.02 604.06 126.29 607.43 125.45 609.96 123.88 614.4 119.55 617.19 115.45 618.87 112.44 620.8 107.14 622.73 103.64 629.6 103.4 631.76 103.4 633.93 103.52 636.95 103.88 640.8 107.14 643.81 108.7 648.99 112.08 654.05 115.93 657.3 118.34 659.33 119.45"/>
      <text class="cls-3" transform="translate(572.62 172.84)"><tspan x="0" y="0">FCK</tspan></text>
      <path class="cls-27" d="M605.83,115.33c-.01-.12.19-.22.02-.14-.15.07-.31.28-.44.39-.37.32-.74.64-1.11.96-.74.64-1.48,1.28-2.22,1.92-.84.72-.4,2.28.66,2.51,2.8.6,5.68.42,8.3-.78,2.2-1.01,4.11-2.87,5.08-5.09.3-.69.26-1.45-.39-1.94-.6-.45-1.42-.41-1.97.12-.72.69-1.32,1.52-1.72,2.43-.32.74-.22,1.61.54,2.05.63.37,1.73.21,2.05-.54s.69-1.29,1.25-1.83l-2.36-1.82c-.79,1.81-2.08,3.09-3.84,3.94-1.86.9-4.13.99-6.15.55.22.84.44,1.67.66,2.51.91-.79,1.82-1.58,2.73-2.36s2.02-1.58,1.89-2.89c-.07-.81-.64-1.5-1.5-1.5-.75,0-1.58.69-1.5,1.5h0Z"/>
      <path class="cls-27" d="M614.67,114.23c-1.23.66-2.22,1.4-3.06,2.52-.75,1-1.6,1.85-2.52,2.69l2.12,2.12c.56-.52,1.13-1.02,1.75-1.47s1.37-.78,1.87-1.33c.54-.59.72-1.46.34-2.18-.41-.76-1.14-1-1.94-1.07-3.1-.28-6.52-.01-8.85,2.28-1.3,1.28.34,3,1.82,2.36,2.64-1.14,5.15-2.54,7.52-4.16.62-.43,1.04-1.35.54-2.05-.89-1.25-2.14-1.09-3.49-.8s-2.7.76-3.99,1.32-2.39,1.16-3.54,1.83c-.54.32-1.03.62-1.67.66-.67.05-1.35-.16-1.99-.31v2.89c2.6-.65,4.95-1.92,6.96-3.69,1.03-.91.15-2.5-1.06-2.56-2.86-.14-5.7.59-8.15,2.06-1.65.99-.15,3.59,1.51,2.59,2.03-1.22,4.28-1.76,6.64-1.65-.35-.85-.71-1.71-1.06-2.56-1.62,1.43-3.54,2.4-5.63,2.92-1.43.36-1.43,2.54,0,2.89,1.24.31,2.51.56,3.78.31s2.3-1.05,3.39-1.64,2.13-1.1,3.26-1.5c.53-.19,1.06-.35,1.6-.49.3-.08.59-.14.89-.2.27-.05.7.02.38-.16l-.54-.54.11.15c.18-.68.36-1.37.54-2.05-2.37,1.63-4.88,3.02-7.52,4.16l1.82,2.36c.82-.8,1.88-1.21,3-1.38.6-.09,1.21-.1,1.82-.1.32,0,.64.01.96.03.21,0,.42.02.64.03.39.03.42.03.11-.02l-.54-.54.09.15-.2-.76v.19c.06-.25.13-.5.2-.76.19-.16.14-.14-.14.06-.17.11-.33.21-.5.33-.33.22-.65.46-.96.7-.65.5-1.28,1.02-1.88,1.59-1.41,1.33.7,3.41,2.12,2.12.89-.81,1.75-1.63,2.48-2.6.74-.98,1.4-1.56,2.49-2.14,1.7-.91.19-3.5-1.51-2.59h0Z"/>
      <path class="cls-27" d="M598.44,115.74c-4.13,0-8.26.01-12.39.02-1.99,0-1.86,2.77,0,3,2.62.33,5.25.6,7.88.83v-3c-2.61-.07-5.23-.15-7.83-.44-1.24-.14-2.46-.38-3.69-.6-.65-.12-1.31-.22-1.97-.27-.33-.02-.66-.02-.99-.02h-.25c-.37-.05-.35.03.03.25l-1.69,2.2c.64.17,1.24.42,1.76.84s.87,1.03,1.44,1.42c.6.41,1.3.65,1.91,1.06.73.49,1.42,1.04,2.19,1.46,1.47.8,3.08,1.26,4.59,1.97s3.03,1.72,4.75,2.12c.13-.98.27-1.96.4-2.95-1.36-.06-2.64-.41-3.9-.91-1.04-.42-2.31-.84-3.14-1.63-1.4-1.33-3.52.79-2.12,2.12,1.15,1.09,2.67,1.66,4.12,2.26,1.63.67,3.28,1.09,5.05,1.16,1.68.07,2.05-2.56.4-2.95-1.63-.38-3-1.37-4.52-2.04s-3.25-1.18-4.71-2.11c-.69-.44-1.32-.96-2.02-1.38-.56-.34-1.15-.5-1.59-.98-1.05-1.16-2.28-1.96-3.8-2.36-1.23-.32-2.41,1.07-1.69,2.2.76,1.2,1.92,1.21,3.2,1.22,1.58.01,3.14.47,4.69.69,3.12.44,6.26.55,9.4.64,1.95.06,1.9-2.84,0-3-2.63-.22-5.26-.5-7.88-.83v3c4.13,0,8.26-.01,12.39-.02,1.93,0,1.93-3,0-3h0Z"/>
      <path class="cls-27" d="M583.65,118.6c-.49.04-.98.03-1.47-.04l.4.05c-.11-.02-.21-.04-.32-.08l.36.15c-.05-.02-.09-.05-.14-.08l.3.23c-.27-.23-.49-.55-.72-.82-.25-.29-.5-.59-.75-.88s-.71-.44-1.06-.44-.81.16-1.06.44-.46.66-.44,1.06.17.74.44,1.06c.25.29.5.59.75.88.23.27.45.59.72.82.29.24.61.44.98.52.28.06.56.09.84.11.39.03.78.03,1.16,0s.77-.15,1.06-.44c.26-.26.46-.69.44-1.06s-.14-.79-.44-1.06-.67-.47-1.06-.44h0Z"/>
      <path class="cls-27" d="M589.89,118.97c-.48-.04-.96-.04-1.44-.02-1.98.1-1.87,2.76,0,3,3.39.44,6.79.79,10.2,1.06,1.69.13,2.04-2.57.4-2.95-2.31-.53-4.66-.44-7-.67-2.41-.23-4.72-1.06-6.99-1.86-1.65-.58-2.56,1.87-1.16,2.74,2.9,1.8,6.41,1.55,9.65,1.12,1.84-.25,3.67-.59,5.48-1,1.4-.32,3.16-.98,4.53-.27.12-.91.24-1.83.36-2.74-2.37.94-4.84,1.58-7.38,1.84-1.21.12-1.77,1.16-1.3,2.26.68,1.58,2.84,1.81,4.32,1.99,1.82.22,3.65.25,5.48.11,1.94-.15,1.91-2.81,0-3-3.08-.31-6.12.36-9.15.83-3.1.49-6.22.8-9.35.83-1.95.02-1.91,2.86,0,3,2.06.16,4.11.14,6.16-.15,1.01-.15,2.01-.35,2.99-.66.46-.14.92-.34,1.39-.45.21-.07.42-.11.64-.11.31.07.35.06.12-.03-.13-.49-.26-.97-.39-1.46.19-.31.12-.34-.22-.08-.21.09-.42.18-.64.25-.45.16-.92.28-1.38.41-1.59.44-1.33,3.05.4,2.95,3.42-.21,6.84-.49,10.25-.84,1.9-.2,1.92-3.2,0-3-3.41.35-6.83.63-10.25.84.13.98.27,1.96.4,2.95,1.37-.38,3.75-.86,4.28-2.4.69-2.04-1.82-2.73-3.32-2.5-1.72.27-3.31,1.03-5.05,1.24-1.78.22-3.59.19-5.38.05v3c3.13-.03,6.25-.35,9.34-.81s6.06-1.16,9.16-.85v-3c-1.31.1-2.61.12-3.92.04-.61-.04-3.03-.03-3.3-.66-.43.75-.86,1.5-1.3,2.26,2.82-.29,5.54-.91,8.18-1.95,1.1-.44,1.61-2.09.36-2.74-3.07-1.6-6.73.02-9.88.59-3.07.55-6.97,1.31-9.78-.43l-1.16,2.74c2.29.8,4.59,1.57,7.01,1.88s4.69.13,6.98.65l.4-2.95c-3.41-.26-6.81-.62-10.2-1.06v3c.48-.02.96-.02,1.44.02,1.93.14,1.92-2.86,0-3h0Z"/>
      <path class="cls-27" d="M605.55,124.87c1.05.41,2.13,0,3.07-.52.98-.54,1.95-1.11,2.92-1.66.58-.33.86-1.06.69-1.69-.19-.68-.78-1.03-1.45-1.1-1.44-.16-2.79.34-4.15.7s-2.8.34-4.19.61c-1.3.25-2.45.87-3.57,1.55-.89.54-1.81,1.17-2.88,1.21-1.94.06-1.92,2.89,0,3,2.04.11,4.07-.38,6.06-.77.99-.19,1.97-.39,2.96-.58s1.85-.44,2.54-1.16c1.34-1.39-.78-3.51-2.12-2.12-.39.4-1.35.42-1.89.52-.85.17-1.7.33-2.55.5-1.66.33-3.3.71-5.01.61v3c1.31-.04,2.49-.51,3.62-1.15,1.01-.58,1.97-1.29,3.12-1.59,1.37-.36,2.82-.3,4.21-.6,1.29-.28,2.51-.87,3.86-.71-.25-.93-.5-1.86-.76-2.8-.73.42-1.46.83-2.19,1.25-.31.18-.61.37-.93.53-.13.07-.25.12-.39.16-.22.06.27.11-.16-.05-.76-.29-1.65.32-1.85,1.05-.23.85.29,1.55,1.05,1.85h0Z"/>
      <polyline class="cls-19" points="531.6 200.66 536.26 197.61 539.73 194.34 544.69 187.91 547.42 183.23 547.42 178.02 547.42 171.57 547.42 167.73 550.39 166.61 553.4 163.75"/>
    </g>
  </g>
  <text class="cls-26" transform="translate(151.7 169.87)"><tspan class="cls-1" x="0" y="0">SEJR!!!! DU </tspan><tspan class="cls-5" x="105.66" y="0">V</tspan><tspan class="cls-7" x="117.11" y="0">A</tspan><tspan class="cls-6" x="131.51" y="0">N</tspan><tspan class="cls-2" x="144.27" y="0">DT KAMPEN!</tspan><tspan class="cls-32" x="258.3" y="0"> </tspan></text>
  <text class="cls-26" transform="translate(12.32 76.36) rotate(-13.19)"><tspan class="cls-1" x="0" y="0">3 POIN</tspan><tspan class="cls-4" x="62.28" y="0">T</tspan><tspan class="cls-1" x="70.4" y="0">, KOM NUU!</tspan><tspan class="cls-32" x="166.41" y="0"> </tspan></text>
</svg>